<svg xmlns="http://www.w3.org/2000/svg" width="282" height="278" viewBox="0 0 282 278">
    <g fill="#225795" fill-rule="evenodd">
        <text font-family="SFCompactDisplay-Bold, SF Compact Display" font-size="40" font-weight="bold" transform="translate(1 -3)">
            <tspan x="50" y="233">A</tspan>
        </text>
        <text font-family="SFCompactDisplay-Bold, SF Compact Display" font-size="40" font-weight="bold" transform="translate(1 -3)">
            <tspan x="155" y="233">B</tspan>
        </text>
        <text font-family="SFCompactDisplay-Bold, SF Compact Display" font-size="40" font-weight="bold" transform="translate(1 -3)">
            <tspan x="151" y="124">D</tspan>
        </text>
        <text font-family="SFCompactDisplay-Bold, SF Compact Display" font-size="40" font-weight="bold" transform="translate(1 -3)">
            <tspan x="50" y="124">C</tspan>
        </text>
        <text font-family="PingFangTC-Medium, PingFang TC" font-size="14" font-weight="400" letter-spacing="2.333" transform="translate(1 -3)">
            <tspan x="83" y="15">記錄檔案</tspan> <tspan x="83" y="35">易於查找</tspan>
        </text>
        <text font-family="PingFangTC-Medium, PingFang TC" font-size="14" font-weight="400" letter-spacing="2.333" transform="translate(1 -3)">
            <tspan x="234" y="160">主動積</tspan> <tspan x="234" y="180">極回顧</tspan>
        </text>
        <path fill-rule="nonzero" d="M115.5 46.71l.872 1.55 6.75 12c.27.481.1 1.09-.382 1.362-.447.251-1.004.122-1.299-.283l-.063-.099-4.878-8.673V279.5c0 .552-.448 1-1 1-.513 0-.936-.386-.993-.883l-.007-.117V52.567l-4.878 8.673c-.252.447-.796.626-1.257.433l-.105-.051c-.447-.252-.626-.796-.433-1.257l.051-.105 6.75-12 .872-1.55z" transform="translate(1 -3)"/>
        <path fill-rule="nonzero" d="M219.135 156.827l.105.051 12 6.75 1.55.872-1.55.872-12 6.75c-.481.27-1.09.1-1.362-.382-.251-.447-.122-1.004.283-1.299l.099-.063 8.671-4.878H0c-.552 0-1-.448-1-1 0-.513.386-.936.883-.993L0 163.5h226.934l-8.674-4.878c-.447-.252-.626-.796-.433-1.257l.051-.105c.252-.447.796-.626 1.257-.433z" transform="translate(1 -3)"/>
    </g>
</svg>
