<svg xmlns="http://www.w3.org/2000/svg" width="501" height="265" viewBox="0 0 501 265">
    <g fill="none">
        <path fill="#FFF" d="M288.877 10H288l1.608-7.833h.877l-.307 1.507c.29-.536.708-.987 1.214-1.31.499-.256 1.051-.38 1.608-.362l-.205.979c-.431-.02-.861.062-1.257.24-.347.161-.656.398-.906.694-.258.304-.466.65-.614 1.024-.164.404-.292.822-.38 1.25l-.76 3.811zM293.136 6.735c-.098.427-.131.865-.1 1.3.021.382.13.753.315 1.087.18.304.445.55.762.708.364.203.777.3 1.194.28.633.003 1.255-.174 1.79-.51.543-.354.97-.857 1.226-1.449h1.11c-.203.393-.442.767-.712 1.12-.273.341-.59.646-.945.905-.36.267-.764.473-1.193.609-.477.15-.975.223-1.475.214-.572.015-1.14-.103-1.658-.346-.426-.208-.783-.534-1.027-.938-.254-.431-.396-.917-.414-1.416-.03-.591.02-1.183.149-1.761.127-.615.345-1.209.646-1.761.289-.53.658-1.014 1.094-1.433.417-.413.905-.747 1.442-.987.524-.224 1.087-.342 1.657-.346 1.007-.09 1.983.378 2.536 1.218.529 1.096.612 2.351.232 3.506h-6.63zm5.784-.823c.056-.387.056-.78 0-1.168-.017-.309-.096-.611-.232-.89-.168-.279-.416-.502-.713-.641-.349-.174-.736-.259-1.127-.247-.416-.006-.83.078-1.21.247-.373.158-.715.381-1.01.658-.304.28-.567.602-.78.955-.22.363-.398.75-.53 1.152l5.602-.066zM306.008 5.777l.702-.098c.234-.034.464-.095.685-.18.174-.077.316-.21.4-.379.061-.166.112-.336.15-.509.042-.228.042-.461 0-.69-.027-.2-.114-.389-.25-.541-.163-.165-.363-.289-.584-.362-.315-.093-.641-.137-.97-.131-.627-.016-1.248.125-1.804.41-.564.34-.972.882-1.136 1.511h-1.019c.123-.464.339-.9.635-1.28.253-.352.578-.648.952-.87.374-.234.787-.401 1.22-.494.442-.113.897-.168 1.353-.164.405 0 .808.044 1.203.132.331.086.64.243.902.46.246.21.416.491.484.804.092.411.092.837 0 1.248l-1.002 4.631v.723c0 .099.401 0 .852 0l-.167.772-.35.098c-.156.022-.313.022-.469 0-.144.017-.29.017-.434 0-.216-.064-.377-.241-.418-.46-.05-.271-.05-.549 0-.82-.494.438-1.058.793-1.67 1.05-.587.242-1.218.364-1.855.362-.356.004-.71-.046-1.052-.148-.313-.083-.6-.24-.835-.46-.226-.21-.388-.477-.468-.772-.084-.35-.084-.716 0-1.067.3-1.445 1.487-2.3 3.575-2.562l1.37-.214zm1.587.493c-.434.172-.889.288-1.353.345l-1.337.131c-.666.022-1.318.197-1.904.51-.494.272-.838.748-.936 1.297-.06.226-.06.463 0 .69.07.183.185.347.334.476.16.124.341.219.535.279.222.025.446.025.668 0 .406-.001.81-.05 1.203-.148.386-.099.757-.248 1.103-.443.335-.21.629-.477.868-.789.258-.322.435-.698.518-1.1l.301-1.248zM309 11L311.873 0 313 0 310.127 11zM318 6.19L317.805 6.81 314 6.81 314.195 6.19zM321.3 10.88l-.468.102c-.217.024-.437.024-.655 0-.363.041-.725-.079-.982-.324-.214-.367-.254-.801-.11-1.197l1.248-5.596h-1.138l.171-.739h1.139L320.988 1h.936l-.484 2.17H323l-.172.74h-1.56L320.1 9.15c-.04.161-.072.324-.093.488-.034.11-.034.228 0 .34.032.09.107.16.202.191.144.03.293.03.437 0h.78l-.125.71zM323 11l2.037-7.944h1.111L324.111 11H323zm2.426-9.64l.352-1.36H327l-.352 1.36h-1.222zM326 10h-1l1.834-7.816h1l-.25 1.203c.336-.442.796-.795 1.334-1.022.516-.238 1.088-.362 1.667-.361.339-.006.676.034 1 .12.229.064.44.172.617.316.156.137.281.3.367.48.087.19.154.386.2.587.362-.48.848-.872 1.417-1.142.52-.229 1.09-.352 1.668-.361.469-.025.937.069 1.35.27.301.154.532.399.65.692.125.312.17.646.134.977-.024.384-.08.766-.167 1.142L336.654 10h-1l1.267-5.38c.038-.25.038-.503 0-.752.008-.195-.044-.387-.15-.557-.12-.162-.287-.292-.484-.375-.279-.086-.572-.127-.867-.12-.385.004-.766.08-1.117.225-.4.148-.758.374-1.05.661-.14.147-.268.303-.384.466-.12.171-.22.352-.3.541-.083.196-.166.376-.233.571-.062.173-.112.349-.15.527L331.202 10h-1l1.267-5.38c.038-.25.038-.503 0-.752.008-.195-.044-.387-.15-.557-.116-.166-.284-.297-.484-.375-.279-.085-.572-.126-.867-.12-.385.004-.766.08-1.117.225-.4.148-.758.374-1.05.661-.145.14-.268.297-.367.466-.131.167-.238.35-.317.541-.083.196-.166.376-.233.571-.062.173-.112.349-.15.527L326 10zM340.12 6.736c-.098.426-.132.864-.1 1.3.02.381.129.753.315 1.087.179.299.437.543.745.708.37.201.789.298 1.21.28.634.003 1.255-.174 1.79-.51.543-.354.97-.858 1.227-1.45h1.11c-.204.397-.448.772-.729 1.12-.262.346-.575.65-.928.905-.361.268-.764.473-1.193.61-.477.15-.975.222-1.476.213-.571.011-1.138-.107-1.657-.345-.42-.218-.774-.541-1.028-.939-.238-.436-.374-.92-.397-1.415-.03-.591.02-1.184.149-1.762.127-.615.345-1.208.646-1.761.289-.53.658-1.013 1.094-1.432.417-.413.905-.748 1.442-.988.524-.224 1.087-.341 1.658-.346 1.002-.092 1.973.378 2.52 1.219.541 1.09.63 2.35.248 3.506h-6.647zm5.784-.823c.064-.387.064-.782 0-1.169-.01-.31-.09-.613-.232-.889-.169-.28-.417-.503-.713-.642-.35-.174-.737-.259-1.127-.247-.417-.006-.83.078-1.21.247-.374.159-.716.382-1.011.659-.304.28-.566.601-.78.954-.22.363-.397.75-.53 1.153l5.603-.066zM239.872 29H239l1.628-7.832h.872l-.305 1.506c.289-.536.704-.986 1.206-1.31.496-.257 1.045-.381 1.599-.362l-.203.979c-.434-.022-.867.06-1.265.241-.343.164-.65.4-.901.693-.257.304-.463.65-.61 1.024-.159.404-.28.823-.364 1.25L239.872 29zM246.123 25.736c-.106.425-.14.864-.1 1.3.013.382.122.756.316 1.086.167.31.43.557.749.708.37.202.79.298 1.214.28.631.009 1.25-.169 1.78-.51.545-.357.977-.86 1.247-1.449h1.114c-.21.394-.455.768-.731 1.12-.264.345-.578.65-.932.905-.366.26-.77.466-1.197.609-.48.15-.979.221-1.48.214-.575.014-1.144-.104-1.664-.346-.428-.208-.786-.534-1.031-.938-.24-.436-.376-.92-.4-1.416-.03-.59.02-1.183.15-1.761.128-.615.347-1.209.649-1.761.278-.533.643-1.017 1.081-1.432.424-.406.913-.74 1.447-.988.526-.223 1.091-.34 1.663-.346 1.007-.092 1.981.378 2.529 1.218.529 1.096.618 2.349.25 3.507h-6.654zm5.805-.823c.056-.388.056-.782 0-1.17-.021-.337-.124-.664-.3-.954-.173-.282-.428-.505-.731-.642-.345-.174-.728-.259-1.115-.247-.423-.005-.843.079-1.23.247-.368.163-.705.386-.999.659-.304.28-.568.601-.781.954-.227.36-.406.747-.533 1.153h5.689z"/>
        <path fill="#FFF" d="M252.995 29H252l1.825-7.785h.995l-.266 1.172c.334-.442.793-.794 1.327-1.022.514-.238 1.082-.361 1.66-.36.33-.005.66.036.978.12.233.062.448.17.63.315.155.137.28.3.365.481.086.19.153.386.2.586.358-.48.843-.872 1.409-1.142.541-.243 1.138-.366 1.742-.36.461-.027.922.067 1.327.27.3.157.533.4.663.691.124.313.17.647.133.977-.032.383-.087.765-.166 1.142L263.661 29h-.995l1.26-5.38c.03-.25.03-.502 0-.752.003-.196-.054-.388-.166-.556-.11-.17-.28-.301-.48-.376-.272-.086-.559-.127-.847-.12-.383.003-.762.08-1.11.225-.399.148-.756.374-1.046.662-.144.143-.272.3-.381.466-.12.17-.22.352-.299.54-.092.186-.17.377-.232.572-.062.172-.111.348-.15.526L258.237 29h-.995l1.26-5.38c.057-.248.085-.5.083-.752.003-.196-.054-.388-.166-.556-.11-.17-.28-.301-.48-.376-.272-.086-.559-.127-.847-.12-.384.003-.762.08-1.111.225-.398.148-.755.374-1.045.662-.144.143-.272.3-.382.466-.119.17-.219.352-.298.54-.092.186-.17.377-.232.572-.062.172-.112.348-.15.526L252.995 29zM268.078 30c-.497-.006-.988-.106-1.449-.297-.416-.178-.778-.468-1.046-.84-.289-.415-.471-.896-.531-1.401-.093-.654-.06-1.32.096-1.961.123-.612.323-1.205.596-1.764.263-.528.612-1.007 1.03-1.417.405-.409.88-.738 1.4-.972.562-.237 1.165-.354 1.772-.347.555-.016 1.107.103 1.61.347.413.223.762.552 1.014.955.237.443.38.931.418 1.434.035.591-.008 1.184-.128 1.764-.135.644-.357 1.265-.66 1.846-.288.525-.651 1.003-1.08 1.417-.413.392-.893.705-1.416.923-.517.21-1.07.317-1.626.313zm3.767-4.5c.088-.466.131-.941.13-1.417-.003-.394-.09-.782-.258-1.137-.151-.328-.4-.599-.709-.774-.383-.2-.81-.297-1.24-.28-.474-.012-.944.095-1.368.313-.396.19-.752.46-1.046.79-.303.344-.553.733-.74 1.154-.191.434-.337.887-.436 1.352-.106.48-.144.975-.112 1.466.017.398.121.787.306 1.138.163.316.415.574.724.741.364.189.768.28 1.175.264.467.007.93-.095 1.353-.297.397-.202.753-.482 1.046-.824.298-.347.548-.735.74-1.153.194-.427.34-.875.435-1.335zM277.303 28.815l-.483.104c-.21.047-.424.072-.639.074-.366.039-.732-.08-.996-.325-.208-.37-.242-.804-.094-1.198l1.246-5.602H275.2l.172-.74h1.136l.483-2.128h.935l-.483 2.1H279l-.171.738h-1.558l-1.167 5.248c-.041.16-.072.324-.094.488-.032.11-.032.228 0 .34.038.087.11.156.203.192.148.03.302.03.451 0h.374l.405-.074-.14.783zM280.128 25.735c-.102.426-.14.864-.115 1.3.034.382.146.751.329 1.087.165.309.425.557.74.708.368.202.784.298 1.202.28.625.008 1.238-.17 1.762-.51.54-.358.967-.86 1.234-1.449h1.103c-.208.393-.45.768-.724 1.12-.26.345-.571.65-.922.905-.362.26-.762.466-1.185.609-.48.15-.98.222-1.482.214-.568.015-1.132-.103-1.646-.346-.423-.208-.778-.534-1.02-.938-.237-.436-.372-.92-.396-1.416-.03-.59.02-1.183.149-1.761.127-.615.343-1.209.642-1.761.28-.53.641-1.013 1.07-1.432.42-.406.903-.74 1.432-.988.546-.234 1.134-.352 1.728-.346.996-.092 1.96.378 2.502 1.218.524 1.096.612 2.349.247 3.506h-6.65zm5.745-.823c.056-.387.056-.78 0-1.168-.02-.338-.122-.665-.296-.955-.168-.28-.414-.503-.708-.642-.348-.172-.732-.257-1.12-.247-.419-.005-.834.079-1.218.247-.366.167-.705.389-1.004.659-.292.285-.546.605-.757.954-.232.356-.41.744-.527 1.152h5.63zM297.92 23.845c.001-.553-.206-1.086-.58-1.492-.41-.386-.96-.584-1.52-.548-.477-.012-.949.097-1.373.316-.409.21-.774.497-1.074.845-.321.345-.579.744-.76 1.178-.196.42-.346.859-.447 1.31-.1.435-.145.881-.132 1.327.007.401.097.797.264 1.161.158.34.41.629.727.83.383.217.818.32 1.257.298.685.019 1.356-.198 1.901-.614.548-.43.966-1.004 1.207-1.658h1.042c-.176.46-.403.9-.678 1.31-.278.38-.606.721-.976 1.012-.36.286-.769.505-1.206.647-.481.154-.983.233-1.488.232-.571.014-1.137-.105-1.654-.348-.425-.21-.78-.538-1.025-.946-.24-.444-.376-.938-.396-1.443-.03-.595.02-1.192.148-1.775.123-.58.33-1.138.612-1.658.27-.537.628-1.024 1.058-1.443.411-.422.9-.76 1.438-.995.561-.255 1.17-.385 1.786-.382.813-.062 1.619.193 2.248.713.558.595.803 1.419.662 2.223l-1.042-.1zM303.078 30c-.497-.006-.988-.106-1.449-.297-.416-.178-.778-.468-1.046-.84-.289-.415-.471-.896-.531-1.401-.093-.654-.06-1.32.096-1.961.123-.612.323-1.205.596-1.764.263-.524.605-1.002 1.014-1.417.414-.405.893-.734 1.417-.972.561-.237 1.164-.354 1.77-.347.556-.016 1.108.103 1.61.347.414.223.763.552 1.015.955.237.443.38.931.418 1.434.035.591-.008 1.184-.128 1.764-.133.647-.36 1.27-.677 1.846-.276.532-.641 1.012-1.078 1.417-.406.395-.881.708-1.4.923-.518.209-1.07.315-1.627.313zm3.767-4.5c.08-.467.123-.941.13-1.417-.003-.394-.09-.782-.258-1.137-.151-.328-.4-.599-.709-.774-.383-.2-.81-.297-1.24-.28-.474-.012-.944.095-1.368.313-.396.19-.752.46-1.046.79-.303.344-.553.733-.74 1.154-.189.437-.34.889-.452 1.352-.093.482-.126.975-.096 1.466.02.396.118.783.29 1.138.174.313.43.57.74.741.364.189.768.28 1.175.264.467.007.93-.095 1.353-.297.397-.202.753-.482 1.046-.824.298-.344.543-.733.725-1.153.19-.43.341-.877.45-1.335zM308.848 29H308l1.554-7.785h.833l-.212 1.172c.285-.442.675-.794 1.13-1.022.438-.238.922-.361 1.413-.36.282-.005.563.036.833.12.199.062.382.17.537.315.132.137.238.3.31.481.076.188.128.385.156.586.315-.477.731-.868 1.215-1.142.44-.232.922-.355 1.413-.36.393-.027.785.067 1.13.27.255.157.454.4.565.691.105.313.144.647.113.977-.025.385-.077.766-.156 1.142L317.86 29h-.848l1.06-5.38c.052-.247.08-.499.084-.752.003-.196-.046-.388-.141-.556-.094-.17-.238-.301-.41-.376-.23-.086-.475-.127-.72-.12-.327.003-.65.08-.946.225-.34.148-.643.374-.89.662-.123.143-.232.3-.325.466-.102.17-.187.352-.255.54-.078.186-.144.377-.197.572l-.142.526-.819 4.193h-.777l1.074-5.38c.025-.25.025-.502 0-.752.002-.196-.047-.388-.141-.556-.095-.17-.239-.301-.41-.376-.231-.086-.475-.127-.72-.12-.328 0-.65.078-.947.225-.339.148-.643.374-.89.662-.123.143-.231.3-.325.466-.101.17-.186.352-.254.54-.078.186-.144.377-.198.572-.058.17-.101.346-.127.526L308.848 29zM320.995 29H320l1.825-7.785h.995l-.266 1.172c.334-.442.793-.794 1.327-1.022.514-.238 1.082-.361 1.66-.36.33-.005.66.036.978.12.233.062.448.17.63.315.155.137.28.3.365.481.088.188.15.385.183.586.37-.477.858-.868 1.426-1.142.541-.243 1.138-.366 1.742-.36.461-.027.922.067 1.327.27.3.157.533.4.663.691.124.313.17.647.133.977-.032.383-.087.765-.166 1.142L331.661 29h-.995l1.26-5.38c.057-.248.085-.5.083-.752.003-.196-.054-.388-.166-.556-.11-.17-.28-.301-.48-.376-.272-.086-.559-.127-.847-.12-.384.003-.762.08-1.111.225-.398.148-.755.374-1.045.662-.144.143-.272.3-.382.466-.119.17-.219.352-.298.54-.092.186-.17.377-.232.572l-.166.526L326.32 29h-.995l1.26-5.38c.057-.248.085-.5.083-.752.003-.196-.054-.388-.166-.556-.11-.17-.28-.301-.48-.376-.272-.086-.56-.127-.847-.12-.384 0-.763.078-1.111.225-.36.155-.682.375-.946.647-.144.143-.272.3-.381.466-.12.17-.22.352-.299.54-.092.186-.17.377-.232.572-.061.172-.111.348-.15.526L320.997 29zM341.03 21h.97l-1.78 7.788h-1.035l.242-1.083-.534.436c-.205.156-.428.292-.663.406-.253.14-.525.245-.809.316-.32.092-.652.138-.987.135-.464.015-.926-.057-1.36-.21-.323-.122-.595-.339-.776-.617-.183-.27-.283-.582-.291-.902-.024-.384.014-.769.113-1.142L335.285 21h.971l-1.165 5.112c-.166.499-.114 1.04.146 1.503.403.426 1.016.626 1.618.526.383-.001.762-.073 1.116-.21.35-.152.668-.36.939-.617.29-.273.53-.588.711-.932.207-.376.359-.775.454-1.187l.954-4.195zM341.97 29H341l1.78-7.789h.97l-.242 1.083c.434-.355.905-.667 1.408-.932.496-.25 1.054-.374 1.618-.361.47-.003.938.079 1.375.24.408.182.735.49.923.873.133.273.188.573.161.872 0 .285 0 .601-.145.917L347.683 29h-.971l1.165-5.082c.184-.523.131-1.093-.146-1.579-.386-.401-.962-.599-1.537-.526-.29 0-.58.04-.857.12-.267.088-.523.204-.761.346-.226.136-.432.298-.615.481-.18.169-.333.361-.453.571-.147.226-.261.469-.34.722-.083.247-.154.498-.21.752L341.97 29zM350 29l2.037-7.914h1.111L351.111 29H350zm2.426-9.64l.352-1.36H354l-.352 1.36h-1.222zM360.91 23.845c.002-.553-.204-1.086-.578-1.492-.41-.386-.959-.584-1.519-.548-.476-.012-.947.097-1.37.316-.409.21-.773.497-1.073.845-.32.345-.578.744-.76 1.178-.195.42-.345.859-.446 1.31-.1.435-.144.881-.132 1.327.008.401.098.797.264 1.161.158.34.41.629.727.83.381.217.817.32 1.255.298.684.019 1.353-.198 1.898-.614.547-.43.965-1.004 1.206-1.658h1.056c-.187.458-.42.897-.693 1.31-.276.376-.597.716-.958 1.012-.368.283-.781.501-1.222.647-.48.154-.981.233-1.486.232-.57.014-1.135-.105-1.65-.348-.425-.21-.78-.538-1.024-.946-.24-.444-.376-.938-.397-1.443-.03-.595.02-1.192.15-1.775.122-.58.328-1.138.61-1.658.27-.537.627-1.024 1.057-1.443.41-.422.898-.76 1.436-.995.56-.255 1.168-.385 1.783-.382.812-.062 1.617.193 2.246.713.556.596.806 1.417.677 2.223l-1.057-.1z"/>
        <path fill="#FFF" d="M366.05 24.747l.675-.098c.231-.035.458-.095.675-.18.179-.066.322-.203.396-.377.065-.165.12-.335.164-.507.04-.227.04-.46 0-.687-.032-.202-.124-.39-.263-.54-.158-.168-.356-.292-.577-.36-.304-.093-.62-.137-.939-.131-.618-.02-1.232.121-1.779.409-.56.334-.963.875-1.12 1.505h-1.005c.115-.461.322-.895.61-1.276.255-.35.58-.646.955-.867.364-.23.765-.396 1.186-.491.829-.196 1.692-.196 2.52 0 .33.078.636.235.89.458.24.213.412.492.494.802.09.41.09.834 0 1.243l-.988 4.615c-.099.377-.082.622 0 .72.082.098.395.082.857 0l-.165.77-.363.098c-.147.021-.297.021-.444 0-.143.017-.286.017-.429 0-.33 0-.51-.213-.543-.442-.058-.27-.058-.549 0-.818-.488.436-1.045.79-1.648 1.047-.573.24-1.19.362-1.812.36-.357.003-.712-.047-1.054-.147-.307-.087-.59-.244-.824-.459-.216-.21-.37-.477-.444-.769-.1-.347-.1-.716 0-1.063.296-1.44 1.466-2.291 3.525-2.553l1.45-.262zm1.647.49c-.434.172-.888.288-1.35.344l-1.302.131c-.662.024-1.31.198-1.895.508-.484.271-.817.747-.906 1.292-.067.225-.067.463 0 .688.063.182.17.345.313.474.162.126.347.22.544.279.215.053.437.08.659.081.394 0 .787-.05 1.17-.147.382-.093.748-.242 1.087-.442.336-.207.632-.473.873-.785.247-.325.422-.699.51-1.097l.297-1.325zM374.303 28.815l-.483.104c-.21.047-.424.072-.639.074-.366.039-.732-.08-.996-.325-.208-.37-.242-.804-.094-1.198l1.246-5.602H372.2l.172-.74h1.136l.483-2.128h.935l-.483 2.1H376l-.171.738h-1.558l-1.23 5.277c-.04.161-.072.324-.093.488-.033.111-.033.229 0 .34.038.087.11.156.202.192.15.03.303.03.452 0h.374l.404-.074-.077.754zM375 29l2.13-7.944h1.122l-2.056 7.913L375 29zm2.449-9.64l.355-1.36H379l-.374 1.36h-1.177zM382.085 30c-.498-.006-.99-.106-1.452-.297-.417-.178-.78-.468-1.048-.84-.29-.415-.472-.896-.533-1.401-.09-.653-.063-1.318.081-1.961.129-.613.335-1.206.613-1.764.264-.524.607-1.002 1.016-1.417.415-.405.896-.734 1.42-.972.562-.238 1.166-.356 1.775-.347.557-.016 1.11.103 1.613.347.414.223.764.552 1.016.955.24.44.378.931.403 1.434.07 1.255-.204 2.505-.79 3.61-.277.532-.643 1.012-1.08 1.417-.41.392-.886.704-1.404.923-.52.209-1.072.315-1.63.313zm3.775-4.5c.08-.467.123-.941.13-1.417-.003-.394-.09-.782-.259-1.137-.151-.328-.4-.599-.71-.774-.384-.2-.811-.297-1.242-.28-.475-.012-.946.095-1.371.313-.397.19-.753.46-1.049.79-.303.344-.554.733-.742 1.154-.196.434-.347.886-.451 1.352-.102.481-.135.975-.097 1.466.012.397.11.786.29 1.138.175.313.432.57.742.741.364.189.77.28 1.178.264.468.007.931-.095 1.355-.297.398-.202.755-.482 1.049-.824.298-.344.543-.733.726-1.153.202-.429.364-.876.483-1.335h-.032zM387.969 29H387l1.776-7.789h.953l-.226 1.083c.433-.355.903-.667 1.405-.932.495-.25 1.052-.374 1.614-.361.476-.005.947.077 1.39.24.405.178.727.488.903.873.145.27.207.571.178.872-.033.308-.087.615-.161.917L393.669 29h-.953l1.147-5.082c.188-.521.141-1.09-.13-1.579-.404-.423-1.014-.623-1.614-.526-.29.002-.578.042-.856.12-.26.091-.509.207-.743.346-.225.136-.431.298-.613.481-.18.172-.338.364-.469.571-.134.232-.247.473-.339.722 0 .226-.145.481-.21.752L387.97 29zM279.932 64H279l2.378-10.79h.932l-.295 1.356c.185-.256.41-.482.668-.67.252-.189.523-.354.808-.493.273-.127.56-.227.855-.298.263-.07.535-.105.808-.104.536-.013 1.068.094 1.554.313.398.186.724.49.932.864.215.398.337.835.358 1.282.014.536-.038 1.071-.156 1.595-.127.515-.315 1.015-.56 1.49-.237.481-.551.924-.932 1.312-.386.365-.832.667-1.32.894-.529.224-1.101.336-1.679.328-.543.008-1.079-.12-1.554-.373-.463-.22-.82-.605-.994-1.073l-.87 4.367zm1.554-6.87c-.068.41-.068.827 0 1.236.024.366.13.722.311 1.044.166.283.408.52.7.685.323.186.695.28 1.072.268.455.005.906-.087 1.32-.268.392-.192.745-.45 1.042-.76.3-.33.546-.702.73-1.103.205-.436.346-.898.42-1.37.235-.751.133-1.561-.28-2.236-.416-.538-1.09-.836-1.787-.79-.418-.001-.832.085-1.212.253-.383.166-.726.404-1.01.7-.31.302-.566.65-.762 1.029-.24.415-.434.855-.575 1.311h.031zM289 60.924L291.467 50h.967l-.935 4.157c.437-.358.913-.673 1.419-.94.494-.252 1.05-.378 1.612-.365.474-.003.945.08 1.387.243.7.332 1.125 1.023 1.08 1.76-.033.312-.087.62-.161.926l-1.161 5.143h-.968l1.161-5.128c.158-.504.112-1.044-.129-1.517-.405-.425-1.013-.626-1.612-.531-.29 0-.578.041-.855.121-.26.089-.51.206-.741.349-.233.133-.445.296-.629.485-.174.175-.326.369-.451.577-.134.234-.248.477-.339.728-.083.25-.153.503-.21.759l-.95 4.233-.952-.076zM300.076 62c-.493-.007-.98-.108-1.437-.297-.42-.173-.784-.465-1.05-.84-.294-.413-.483-.895-.549-1.401-.076-.655-.044-1.318.097-1.961.13-.613.335-1.206.614-1.764.264-.524.607-1.002 1.017-1.417.413-.408.895-.737 1.42-.973.558-.236 1.157-.354 1.76-.346.558-.015 1.111.103 1.615.346.41.225.755.554 1.001.956.246.44.39.93.42 1.434.043.591 0 1.186-.129 1.764-.127.646-.35 1.268-.662 1.846-.288.525-.653 1.003-1.082 1.417-.41.392-.885.704-1.404.923-.52.207-1.073.313-1.631.313zm3.778-4.5c.096-.465.14-.94.13-1.417-.005-.392-.088-.778-.243-1.137-.157-.324-.404-.594-.71-.774-.39-.2-.824-.297-1.26-.28-.47-.01-.936.097-1.356.312-.4.195-.76.463-1.066.792-.304.343-.554.732-.742 1.153-.191.434-.338.887-.436 1.352-.107.48-.145.975-.113 1.466.016.398.121.787.306 1.138.175.313.433.57.743.741.358.191.76.282 1.163.264.473.005.941-.096 1.372-.297.396-.207.752-.486 1.05-.824.293-.348.538-.736.726-1.153.193-.427.34-.875.436-1.335zM305.967 61H305l1.773-7.789h.968l-.242 1.083c.437-.355.913-.668 1.419-.932.494-.25 1.05-.374 1.612-.361.474-.003.945.079 1.387.24.7.329 1.125 1.014 1.08 1.745-.033.308-.087.615-.161.917L311.675 61h-.968l1.161-5.082c.158-.499.112-1.035-.129-1.504-.405-.42-1.013-.62-1.612-.526-.29.001-.578.042-.855.12-.26.088-.51.204-.741.346-.233.132-.445.294-.629.481-.174.173-.326.365-.451.572-.134.231-.248.473-.339.721-.083.248-.153.498-.21.752l-.935 4.12zM315.136 57.735c-.098.427-.131.865-.1 1.3.021.382.13.753.315 1.087.18.304.445.55.762.708.364.203.777.3 1.194.28.633.003 1.255-.174 1.79-.51.543-.354.97-.857 1.226-1.449h1.11c-.203.393-.442.767-.712 1.12-.273.341-.59.646-.945.905-.36.267-.764.473-1.193.609-.477.15-.975.223-1.475.214-.572.015-1.14-.103-1.658-.346-.426-.208-.783-.534-1.027-.938-.254-.431-.396-.917-.414-1.416-.03-.591.02-1.183.149-1.761.127-.615.345-1.209.646-1.761.289-.53.658-1.014 1.094-1.433.417-.413.905-.747 1.442-.987.524-.224 1.087-.342 1.657-.346 1.007-.09 1.983.378 2.536 1.218.529 1.096.612 2.351.232 3.506h-6.63zm5.784-.823c.056-.387.056-.78 0-1.168-.034-.338-.141-.663-.315-.955-.168-.28-.416-.503-.713-.642-.349-.174-.736-.259-1.127-.247-.416-.006-.83.078-1.21.247-.373.159-.715.381-1.01.658-.304.28-.567.602-.78.955-.22.363-.397.75-.53 1.152h5.685zM333 50L334.111 50 335.379 59.778 340.889 50 342 50 335.739 61 334.565 61zM340 61l2.037-7.944h1.111l-2.037 7.913L340 61zm2.426-9.64l.352-1.36H344l-.352 1.36h-1.222zM352.078 50H353l-2.46 10.79h-.922l.292-1.364c-.183.26-.406.493-.66.689-.25.184-.518.345-.8.48-.266.125-.544.225-.83.299-.265.07-.54.106-.815.105-.53.013-1.056-.095-1.537-.315-.39-.186-.711-.484-.922-.854-.212-.404-.328-.85-.338-1.304-.028-.538.018-1.077.138-1.603.126-.518.312-1.02.554-1.498.235-.483.552-.924.937-1.304.368-.384.813-.69 1.307-.9.515-.231 1.077-.349 1.644-.344.535-.003 1.063.12 1.538.36.448.238.792.627.968 1.094l.984-4.331zm-1.537 6.878c.09-.413.122-.837.092-1.259-.03-.356-.135-.703-.308-1.019-.157-.293-.39-.54-.676-.719-.33-.176-.7-.263-1.076-.255-.453-.009-.9.089-1.306.285-.39.183-.74.437-1.03.75-.305.334-.554.713-.738 1.123-.205.433-.344.892-.415 1.364-.082.426-.082.863 0 1.289.035.343.157.672.353.959.187.26.442.467.738.599.327.13.677.197 1.03.195.419 0 .833-.087 1.214-.255.373-.17.711-.404 1-.69.304-.312.553-.671.737-1.063.18-.419.31-.856.385-1.304zM355.126 57.735c-.096.427-.13.865-.098 1.3.02.382.127.753.312 1.087.18.303.442.55.756.708.36.203.77.3 1.184.28.628.003 1.244-.174 1.775-.51.538-.354.961-.858 1.216-1.45h1.102c-.203.394-.44.768-.707 1.12-.271.342-.586.646-.937.905-.358.268-.758.474-1.184.61-.472.15-.967.222-1.463.213-.567.017-1.13-.101-1.643-.345-.427-.203-.782-.53-1.02-.938-.25-.431-.392-.917-.41-1.416-.03-.591.02-1.184.147-1.761.127-.616.343-1.209.641-1.762.286-.526.646-1.008 1.069-1.432.42-.405.902-.74 1.43-.987.546-.231 1.133-.349 1.726-.346.999-.09 1.966.378 2.515 1.218.524 1.096.607 2.351.23 3.506h-6.64zm5.737-.823c.083-.383.11-.777.082-1.168-.033-.338-.14-.663-.312-.955-.167-.28-.413-.503-.707-.642-.346-.174-.73-.259-1.118-.247-.413-.006-.822.078-1.2.247-.37.159-.71.381-1.002.658-.302.28-.562.602-.773.955-.218.363-.394.75-.526 1.152h5.556z"/>
        <path fill="#FFF" d="M364.076 62c-.498-.01-.99-.11-1.453-.297-.414-.178-.77-.469-1.034-.84-.294-.413-.483-.895-.549-1.401-.076-.655-.044-1.318.097-1.961.13-.613.335-1.206.614-1.764.264-.524.607-1.002 1.017-1.417.407-.409.883-.738 1.405-.973.563-.236 1.167-.354 1.776-.346.557-.014 1.11.105 1.614.346.407.229.75.558 1.001.956.246.439.39.93.42 1.434.043.591 0 1.185-.129 1.764-.127.646-.35 1.268-.662 1.845-.288.526-.653 1.004-1.082 1.418-.413.395-.895.708-1.42.923-.514.209-1.062.315-1.615.313zm3.778-4.5c.096-.465.14-.94.13-1.417-.005-.392-.088-.779-.243-1.137-.157-.324-.404-.594-.71-.775-.39-.2-.824-.296-1.26-.28-.47-.01-.936.098-1.356.313-.4.195-.76.463-1.066.791-.304.344-.554.733-.742 1.154-.191.434-.338.887-.436 1.352-.107.48-.145.974-.113 1.466.016.398.121.787.306 1.138.173.309.424.565.727.741.365.189.77.28 1.179.264.473.005.941-.096 1.372-.297.396-.207.752-.486 1.05-.824.293-.348.538-.736.726-1.153.193-.428.34-.875.436-1.335z"/>
        <path fill="#23548E" d="M211 39.5L413 39.5"/>
        <path fill="#FFF" d="M411 39.53h-3.077V39H411v.53zm-6.154 0h-3.077V39h3.077v.53zm-6.154 0h-3.077V39h3.077v.53zm-6.154 0h-3.076V39h3.076v.53zm-6.153 0h-3.077V39h3.077v.53zm-6.154 0h-3.077V39h3.077v.53zm-6.154 0H371V39h3.077v.53zm-6.154 0h-3.077V39h3.077v.53zm-6.154 0h-3.077V39h3.077v.53zm-6.154 0h-3.077V39h3.077v.53zm-6.153 0h-3.077V39h3.077v.53zm-6.154 0h-3.077V39h3.077v.53zm-6.154 0h-3.077V39h3.077v.53zm-6.154 0h-3.077V39H331v.53zm-6.154 0h-3.077V39h3.077v.53zm-6.154 0h-3.077V39h3.077v.53zm-6.154 0h-3.076V39h3.076v.53zm-6.153 0h-3.077V39h3.077v.53zm-6.154 0h-3.077V39h3.077v.53zm-6.154 0H291V39h3.077v.53zm-6.154 0h-3.077V39h3.077v.53zm-6.154 0h-3.077V39h3.077v.53zm-6.154 0h-3.077V39h3.077v.53zm-6.153 0h-3.077V39h3.077v.53zm-6.154 0h-3.077V39h3.077v.53zm-6.154 0h-3.077V39h3.077v.53zm-6.154 0h-3.077V39H251v.53zm-6.154 0h-3.077V39h3.077v.53zm-6.154 0h-3.077V39h3.077v.53zm-6.154 0h-3.076V39h3.076v.53zm-6.153 0h-3.077V39h3.077v.53zm-6.154 0h-3.077V39h3.077v.53zm-6.154 0H211V39h3.077v.53zM184.58 107.987c-.146-.003-.287-.044-.407-.12-.127-.082-.223-.198-.276-.333l-1.106-3.139c-.022-.065-.088-.108-.162-.105h-4.389c-.07-.002-.13.042-.146.105l-1.17 3.17c-.035.122-.116.23-.228.301-.12.078-.26.12-.406.121-.112.002-.216-.05-.277-.136-.017-.054-.017-.111 0-.166-.009-.04-.009-.08 0-.12l3.82-10.142c.052-.127.143-.237.26-.317.121-.072.263-.108.406-.106.15-.003.296.034.423.106.118.077.204.188.244.317l3.82 10.111c.009.04.009.081 0 .121.019.06.019.122 0 .181-.083.13-.25.193-.407.151zm-6.161-4.527h3.852l-.552-1.887c-.407-1.071-.83-2.309-1.285-3.743-.325 1.102-.747 2.355-1.267 3.743l-.748 1.887zM157 89H202V90H157zM442.955 107.961c-.527 0-.955-.39-.955-.872v-9.223c-.002-.232.1-.454.28-.617.18-.161.424-.248.675-.24h2.339c1.036-.056 2.067.169 2.964.646.708.454 1.108 1.212 1.054 2.001.015.535-.152 1.06-.478 1.505-.314.432-.787.747-1.334.888.708.098 1.361.404 1.861.872.472.521.697 1.193.626 1.866.055.925-.395 1.815-1.202 2.377-.968.6-2.126.891-3.294.827l-2.536-.03zm0-6.289s0 .106.115.106h1.977c2.223 0 3.293-.677 3.293-2.016.043-.594-.257-1.164-.79-1.505-.748-.365-1.592-.532-2.437-.481h-1.993c-.032-.006-.065.003-.088.025-.023.02-.033.05-.027.08l-.05 3.791zm0 5.417c0 .09 0 .12.115.12h2.207c.973.055 1.94-.155 2.783-.602.653-.421 1.021-1.121.972-1.85 0-1.505-1.252-2.257-3.755-2.257h-2.207c-.082 0-.115 0-.115.12v4.469zM422 89H467V90H422zM157 246H202V247H157zM220.286 172.27l.143-.612h.968l.238-1.009c.08-.438.276-.85.571-1.192.311-.297.737-.458 1.175-.443.206-.019.413-.019.619 0l-.143.673c-.142-.013-.286-.013-.428 0-.17-.003-.34.034-.492.107-.12.07-.222.164-.302.275-.08.116-.14.246-.175.382 0 .152 0 .29-.11.443l-.191.78h1.27l-.127.61h-1.27l-1.27 5.716H220l1.27-5.715-.984-.016zM225.76 174.464h.524c.175-.022.346-.063.508-.124.136-.045.243-.14.293-.262.05-.106.086-.216.108-.33.03-.155.03-.313 0-.468-.028-.133-.097-.257-.2-.357-.121-.11-.269-.195-.432-.248-.23-.061-.469-.089-.708-.083-.461-.008-.917.086-1.326.276-.422.223-.723.59-.832 1.018h-.724c.09-.313.248-.607.462-.867.19-.238.43-.44.71-.592.28-.143.58-.254.893-.33.328-.067.665-.1 1.001-.096.297-.006.593.026.879.096.244.047.47.146.662.289.19.141.32.335.37.55.07.277.07.563 0 .84l-.74 3.096v.495c0 .069.309 0 .632 0l-.123.523h-.601c-.107.013-.216.013-.324 0-.196-.004-.364-.13-.4-.303-.04-.177-.04-.36 0-.536-.37.294-.792.53-1.248.701-.429.164-.89.248-1.356.248-.267 0-.532-.038-.786-.11-.228-.05-.436-.155-.601-.303-.172-.134-.295-.312-.355-.509-.061-.24-.061-.49 0-.73.232-.962 1.11-1.54 2.635-1.705l1.08-.18zm1.171.33c-.324.108-.66.187-1.001.234l-.971.082c-.496.018-.98.136-1.418.344-.363.181-.613.5-.678.867-.047.149-.047.306 0 .454.051.123.136.232.247.317.113.093.25.16.4.192.164.022.33.022.493 0 .297.002.592-.03.879-.096.287-.063.563-.166.816-.303.247-.135.466-.307.648-.509.183-.222.314-.474.385-.743l.2-.84zM235.219 173.94c.01-.368-.145-.724-.433-.988-.307-.249-.715-.377-1.13-.357-.359-.004-.714.066-1.037.206-.306.14-.58.33-.804.562-.235.229-.428.488-.573.768-.134.285-.242.578-.325.878-.076.287-.107.583-.093.878.008.265.077.526.201.767.109.226.292.418.527.549.288.141.615.208.944.192.516.016 1.024-.124 1.439-.398.41-.294.72-.683.897-1.124h.79c-.139.305-.315.594-.527.864-.2.252-.44.479-.712.672-.278.181-.586.325-.913.425-.357.112-.734.168-1.114.164-.438.015-.873-.065-1.269-.233-.322-.138-.59-.358-.773-.63-.186-.29-.292-.614-.31-.947-.018-.396.024-.793.124-1.18.082-.397.233-.78.449-1.137.209-.352.475-.676.789-.96.317-.271.683-.494 1.083-.658.419-.166.872-.25 1.33-.247.614-.04 1.222.126 1.703.466.404.4.586.937.495 1.467h-.758zM237.75 175.147c-.052.29-.052.587 0 .877.01.251.089.497.232.713.132.202.324.368.555.48.276.128.584.19.894.178.469.006.929-.109 1.326-.329.409-.237.73-.575.925-.973h.833c-.158.263-.338.515-.54.754-.387.466-.925.815-1.541 1-.354.103-.724.154-1.095.152-.437.012-.87-.067-1.265-.233-.318-.143-.585-.361-.77-.631-.18-.29-.28-.615-.293-.946-.031-.391.005-.784.107-1.166.094-.411.255-.808.478-1.179.214-.353.484-.676.802-.96.313-.27.679-.49 1.08-.644.41-.154.85-.234 1.295-.233.746-.059 1.47.252 1.88.809.394.728.455 1.564.17 2.33h-5.072zm4.303-.549c.045-.259.045-.522 0-.781-.014-.223-.088-.44-.216-.63-.13-.187-.317-.334-.54-.426-.258-.115-.544-.172-.833-.164-.313-.004-.623.052-.91.164-.272.109-.522.257-.74.439-.227.185-.424.397-.585.63-.162.244-.296.501-.401.768h4.225zM217 186L217.836 186 218.786 191.145 222.164 186 223 186 218.995 192 218.126 192zM226.275 192c-.36-.01-.714-.08-1.047-.207-.308-.114-.574-.31-.766-.562-.22-.272-.357-.594-.398-.933-.085-.43-.085-.872 0-1.303.085-.407.234-.8.442-1.166.185-.353.435-.673.737-.946.3-.272.649-.49 1.032-.645.467-.18.97-.259 1.474-.233.413-.012.822.068 1.194.233.307.138.564.358.738.63.183.294.29.623.31.961.027.39-.003.783-.09 1.166-.094.432-.258.848-.486 1.235-.215.35-.483.668-.796.946-.3.26-.65.464-1.032.604-.417.154-.863.229-1.312.22zm2.757-3.005c.07-.311.104-.629.103-.947-.006-.26-.071-.518-.192-.754-.106-.218-.287-.397-.516-.508-.281-.136-.596-.203-.914-.192-.342-.004-.68.066-.987.206-.293.134-.557.315-.782.535-.223.229-.407.488-.545.768-.132.288-.236.587-.31.892-.078.32-.108.647-.088.974.02.267.095.528.221.768.132.206.32.377.545.494.267.118.56.174.856.165.34.003.677-.063.987-.192.294-.131.555-.318.767-.55.22-.23.404-.489.545-.767.151-.284.265-.583.34-.892h-.03zM230 192l1.526-6.514h.832L230.832 192H230zm1.82-7.867l.26-1.133h.92l-.277 1.133h-.902zM237.219 187.94c0-.366-.155-.718-.433-.988-.311-.252-.724-.38-1.145-.356-.353-.005-.704.065-1.02.205-.307.14-.58.33-.805.563-.234.228-.427.487-.572.768-.147.28-.261.575-.34.877-.068.289-.1.583-.093.878.008.265.077.527.201.768.122.223.309.412.542.549.29.136.615.203.943.192.51.006 1.01-.133 1.423-.398.414-.29.726-.681.897-1.125h.789c-.133.305-.304.594-.51.864-.206.253-.451.48-.728.672-.275.186-.583.33-.912.425-.358.113-.734.168-1.114.165-.437.011-.871-.069-1.268-.233-.316-.147-.582-.364-.773-.631-.174-.293-.274-.616-.294-.946-.024-.396.013-.793.108-1.18.095-.396.25-.78.464-1.138.21-.352.475-.675.789-.96.314-.274.68-.497 1.083-.658.417-.169.871-.253 1.33-.247.608-.04 1.21.126 1.685.466.415.394.604.935.51 1.468h-.757zM240.867 189.216c-.07.288-.095.583-.077.878.021.25.105.494.247.712.128.205.321.372.555.48.276.128.584.189.895.178 1 .007 1.897-.54 2.252-1.37h.818c-.153.266-.334.518-.54.753-.2.228-.434.431-.695.604-.266.175-.563.31-.879.397-.359.101-.734.152-1.11.151-.437.011-.87-.069-1.265-.233-.314-.143-.576-.361-.756-.63-.185-.29-.29-.614-.309-.947-.015-.39.021-.781.108-1.165.1-.412.266-.809.494-1.179.209-.355.48-.679.802-.96.307-.27.668-.488 1.064-.643.41-.155.851-.234 1.296-.233.748-.066 1.475.247 1.882.808.392.728.458 1.561.185 2.33l-4.967.07zm4.304-.548c.053-.258.053-.523 0-.781-.023-.223-.102-.439-.231-.631-.124-.185-.307-.333-.525-.425-.263-.116-.555-.173-.848-.164-.313-.003-.623.053-.91.164-.269.115-.518.263-.74.439-.224.185-.416.397-.572.63-.167.24-.302.499-.4.768h4.226zM182.576 264.992c-.148.001-.292-.047-.406-.136-.13-.077-.228-.195-.276-.332l-1.105-3.136c-.027-.06-.093-.096-.162-.09h-4.386c-.063 0-.12.036-.146.09l-1.17 3.166c-.029.13-.11.242-.227.317-.119.078-.26.12-.406.12-.111.002-.215-.049-.276-.135-.021-.059-.021-.122 0-.181-.007-.04-.007-.08 0-.12l3.817-10.133c.053-.122.144-.226.26-.301.12-.076.261-.118.406-.121.15.003.296.045.422.12.117.072.203.178.244.302l3.817 10.102c.007.04.007.08 0 .12.024.064.024.133 0 .197-.089.123-.25.182-.406.15zm-6.156-4.524h3.85l-.683-1.884c-.406-1.07-.828-2.322-1.283-3.74-.325 1.101-.747 2.337-1.267 3.74l-.617 1.884zM324.978 182.063h-1.543c.017-.697-.22-1.374-.66-1.89-.563-.52-1.3-.773-2.043-.702-1.125-.006-2.207.46-3.01 1.296-.986 1.068-1.628 2.44-1.837 3.919-.314 1.165-.225 2.411.25 3.513.537.942 1.54 1.466 2.57 1.342 1.13.02 2.21-.501 2.938-1.42.463-.584.835-1.243 1.102-1.952h1.469c-.376 1.26-1.066 2.388-1.998 3.263-1.123 1.036-2.567 1.592-4.054 1.561-1.17.07-2.311-.403-3.129-1.295-1.04-1.539-1.314-3.517-.734-5.309.29-1.702 1.077-3.263 2.247-4.465 1.168-1.24 2.757-1.927 4.407-1.905 1.179-.12 2.345.333 3.173 1.234.653.761.964 1.786.852 2.81zM327.701 178h1.598l-1.007 4.826c.36-.382.762-.718 1.199-1.002.602-.34 1.279-.515 1.966-.508 1.342 0 2.141.492 2.413 1.444.173.717.173 1.466 0 2.183L332.623 191h-1.598l1.215-5.958c.124-.501.124-1.026 0-1.527-.176-.509-.655-.771-1.423-.771-.68.018-1.34.253-1.885.673-.722.671-1.187 1.585-1.31 2.577L326.597 191H325l2.701-13zM340.341 185.558c.331-.02.635-.171.831-.413.116-.166.193-.351.228-.545.145-.38.015-.802-.325-1.06-.495-.254-1.063-.367-1.63-.325-1.157-.117-2.228.566-2.493 1.591h-1.483c.172-.904.765-1.699 1.63-2.18.81-.412 1.726-.626 2.656-.619.892-.048 1.78.152 2.542.575.6.41.848 1.12.619 1.768l-1.157 4.891c-.042.115-.042.239 0 .354 0 .088.13.132.391.132h.538l-.261 1.046c-.191.056-.387.095-.587.118h-.521c-.438.048-.862-.158-1.06-.515-.098-.256-.131-.528-.097-.796-.466.423-1.02.759-1.63.987-.648.287-1.363.434-2.085.427-.74.049-1.464-.218-1.956-.722-.451-.497-.603-1.164-.407-1.782.145-.728.587-1.38 1.238-1.827.684-.453 1.488-.733 2.33-.81l2.69-.295zm-3.128 4.214c.564-.015 1.119-.135 1.63-.354.9-.32 1.562-1.03 1.759-1.886l.26-1.15c-.251.124-.52.218-.798.28-.305.069-.616.118-.929.148l-.977.118c-.472.043-.934.152-1.369.324-.526.232-.9.674-1.01 1.194-.115.345-.008.72.277.972.313.26.733.388 1.157.354zM345.167 182.187h1.526l-.273 1.255c.366-.354.77-.672 1.204-.949.561-.324 1.206-.493 1.862-.49.583-.032 1.157.149 1.605.506.236.249.407.548.498.872.408-.431.899-.784 1.445-1.04.504-.221 1.051-.336 1.605-.337 1.237 0 1.991.413 2.248 1.27.15.614.15 1.252 0 1.866l-1.3 5.86h-1.606l1.365-6.12c.128-.581 0-.994-.193-1.209-.302-.224-.677-.338-1.06-.32-.62-.002-1.222.204-1.701.58-.594.504-.981 1.193-1.092 1.944L350.16 191h-1.605l1.268-5.753c.106-.427.106-.873 0-1.3-.144-.413-.546-.627-1.188-.627-.644.027-1.26.258-1.75.657-.685.626-1.122 1.459-1.236 2.357L344.605 191H343l2.167-8.813zM366.7 183.54c.227.464.327.972.294 1.48-.034.634-.138 1.263-.31 1.879h-6.861c-.195.69-.132 1.418.18 2.072.368.557 1.065.865 1.776.784.79.014 1.555-.251 2.134-.74.344-.28.626-.617.832-.992h1.548c-.152.38-.373.736-.652 1.051-.28.353-.615.667-.994.932-.573.425-1.249.72-1.972.859-.433.091-.876.136-1.32.133-1.055.035-2.063-.395-2.706-1.154-.66-.97-.826-2.152-.456-3.241.272-1.272.972-2.436 2.005-3.33.94-.823 2.197-1.28 3.504-1.273.643-.009 1.277.134 1.841.415.517.242.926.64 1.157 1.124zm-1.369 2.234c.092-.494.058-1-.097-1.48-.297-.71-1.095-1.14-1.924-1.036-.732.004-1.436.258-1.971.71-.602.474-1.03 1.105-1.223 1.806h5.215zM369.507 178L371 178 368.493 191 367 191zM378.715 183.54c.215.468.31.973.28 1.48-.035.634-.14 1.263-.313 1.879h-6.925c-.196.69-.133 1.418.181 2.072.373.557 1.076.865 1.793.784.798.017 1.572-.249 2.155-.74.354-.273.64-.611.838-.992h1.645c-.154.38-.376.736-.658 1.051-.283.353-.62.667-1.003.932-.578.425-1.26.72-1.99.859-.437.091-.884.136-1.332.133-1.064.035-2.082-.395-2.73-1.154-.666-.97-.834-2.152-.461-3.241.274-1.272.981-2.436 2.023-3.33.949-.823 2.218-1.28 3.536-1.273.649-.009 1.29.134 1.859.415.49.26.876.654 1.102 1.124zm-1.398 2.234c.092-.494.058-1-.1-1.48-.287-.712-1.09-1.144-1.923-1.036-.744.003-1.46.257-2.007.71-.608.471-1.034 1.103-1.217 1.806h5.247zM388.805 186.285c-.26 1.261-.9 2.43-1.848 3.371-.964.9-2.294 1.384-3.666 1.334-1.075.084-2.115-.37-2.725-1.187-.585-.96-.723-2.097-.383-3.151.243-1.293.93-2.48 1.96-3.386.917-.829 2.158-1.283 3.443-1.26 1.049-.057 2.065.345 2.741 1.084.68.943.855 2.118.478 3.195zm-1.593 0c.167-.63.167-1.29 0-1.92-.258-.783-1.095-1.28-1.977-1.173-.889-.02-1.735.35-2.279.997-.608.693-1.018 1.514-1.195 2.39-.22.739-.181 1.524.112 2.242.34.627 1.076.986 1.832.894.927.043 1.812-.356 2.343-1.055.55-.698.94-1.49 1.148-2.33l.016-.045zM391.046 182.184h1.454l-.272 1.255c.46-.457 1-.83 1.599-1.102.533-.227 1.11-.342 1.694-.337 1.31 0 2.093.429 2.349 1.301.173.674.173 1.378 0 2.051L396.623 191h-1.598l1.23-5.556c.102-.428.102-.873 0-1.301-.155-.553-.717-.908-1.31-.827-.313-.005-.626.036-.927.123-.486.125-.927.374-1.278.72-.301.247-.542.555-.703.902-.184.425-.324.866-.416 1.317l-1.023 4.591H389l2.046-8.785zM401.496 178h2.328l1.293 10.99 5.585-10.99H413l-2.541 13h-1.522l1.522-7.678c0-.264.137-.709.274-1.318.137-.61.274-1.269.41-1.977L405.56 191h-1.598l-1.309-10.973-.076.395c0 .33-.152.807-.259 1.466l-.274 1.434-1.521 7.678H399l2.496-13zM419.348 185.558c.33-.02.635-.171.831-.413.11-.168.187-.353.228-.545.145-.38.015-.802-.326-1.06-.495-.254-1.062-.367-1.63-.325-.695-.043-1.379.176-1.89.604-.288.282-.5.62-.62.988h-1.466c.172-.905.765-1.7 1.63-2.18.805-.411 1.715-.625 2.64-.62.898-.049 1.79.151 2.559.575.603.41.846 1.123.603 1.768l-1.141 4.891c-.042.115-.042.239 0 .354 0 .088.13.132.391.132h.522l-.245 1.046c-.19.056-.387.095-.587.118h-.521c-.44.053-.866-.155-1.06-.515-.098-.256-.131-.528-.097-.796-.466.423-1.02.759-1.63.987-.65.286-1.364.432-2.086.427-.741.049-1.465-.218-1.956-.722-.46-.494-.613-1.164-.408-1.782.145-.728.587-1.38 1.24-1.827.682-.453 1.487-.733 2.33-.81l2.689-.295zm-3.13 4.214c.565-.015 1.12-.135 1.63-.354.927-.304 1.616-1.016 1.826-1.886l.26-1.149c-.253.12-.52.215-.798.28-.305.068-.616.117-.929.147l-.978.118c-.472.041-.935.15-1.369.324-.526.232-.9.674-1.01 1.194-.122.345-.015.723.277.972.296.245.69.373 1.092.354zM423.521 188.05c-.078.368-.029.75.14 1.089.265.455.874.69 1.81.69.54.002 1.073-.114 1.559-.338.459-.202.784-.602.873-1.073.096-.312-.037-.647-.327-.823-.38-.183-.784-.316-1.201-.397l-1.123-.294c-.555-.108-1.084-.312-1.56-.602-.536-.356-.78-.99-.608-1.588.163-.786.644-1.482 1.341-1.94.77-.511 1.695-.774 2.636-.75 1.05-.136 2.09.303 2.682 1.132.247.453.319.973.203 1.47h-1.435c.057-.304-.004-.616-.171-.882-.25-.367-.811-.558-1.669-.558-.474-.023-.945.084-1.357.308-.32.175-.546.469-.623.809-.104.344.049.711.374.896.283.152.588.266.904.338l.952.236c.714.13 1.4.373 2.027.72.52.42.712 1.097.483 1.705-.19.78-.665 1.47-1.34 1.955-.861.582-1.906.873-2.964.823-.974.118-1.95-.203-2.635-.867-.444-.621-.596-1.387-.421-2.117l1.45.059zM433.552 178L434.99 178 433.443 185.546 438.082 181.51 440 181.51 435.887 185.068 438.299 191 436.397 191 434.572 186.222 433.026 187.441 432.314 191 431 191zM280.785 264.997c-1.327.045-2.6-.497-3.447-1.465-.936-1.156-1.408-2.59-1.33-4.046-.08-1.45.398-2.877 1.345-4.016.873-.98 2.174-1.52 3.525-1.466 1-.01 1.962.36 2.674 1.026.09.066.143.17.139.278.005.106-.04.208-.124.279-.063.076-.16.12-.263.117-.104.01-.208-.028-.278-.103-.58-.522-1.35-.81-2.148-.806-1.11-.034-2.168.441-2.844 1.276-.741 1-1.106 2.208-1.036 3.43-.069 1.237.29 2.461 1.02 3.488.653.849 1.706 1.337 2.813 1.305.951-.007 1.86-.377 2.52-1.026.073-.07.174-.107.278-.103.098.003.191.04.263.103.065.085.103.187.108.293-.001.1-.046.196-.124.264-.813.782-1.933 1.207-3.091 1.172zM466.95 265c-.252.002-.494-.09-.671-.255-.179-.164-.279-.385-.279-.616v-9.251c0-.481.425-.871.95-.871h2.343c1.028-.05 2.048.18 2.933.66.705.454 1.102 1.21 1.049 1.998.011.531-.149 1.053-.46 1.502-.32.43-.795.744-1.343.886.704.098 1.354.404 1.852.87.458.487.699 1.115.672 1.758.054.924-.394 1.812-1.197 2.373-.965.594-2.115.884-3.276.826l-2.573.12zm0-6.278c-.006.03.004.06.027.08.023.022.056.031.088.026h1.884c2.212 0 3.277-.676 3.277-2.013.036-.591-.26-1.158-.786-1.502-.746-.358-1.586-.52-2.425-.465h-1.917s-.115 0-.115.105l-.033 3.77zm0 5.407c0 .075 0 .12.115.12h2.212c.964.053 1.923-.161 2.752-.616.65-.413 1.017-1.108.967-1.832 0-1.502-1.245-2.268-3.72-2.268h-2.178s-.115 0-.115.12l-.033 4.476zM447 196.5L304 196.5M447 196.5h-3.057v-.5H447v.5zm-6.113 0h-3.057v-.5h3.057v.5zm-6.113 0h-3.057v-.5h3.057v.5zm-6.113 0h-3.057v-.5h3.057v.5zm-6.113 0h-3.057v-.5h3.057v.5zm-6.113 0h-3.057v-.5h3.057v.5zm-6.113 0h-3.057v-.5h3.057v.5zm-6.113 0h-3.057v-.5h3.057v.5zm-6.114 0h-3.056v-.5h3.056v.5zm-6.113 0h-3.056v-.5h3.056v.5zm-6.113 0h-3.056v-.5h3.056v.5zm-6.113 0H376.7v-.5h3.056v.5zm-6.113 0h-3.056v-.5h3.056v.5zm-6.113 0h-3.056v-.5h3.056v.5zm-6.113 0h-3.057v-.5h3.057v.5zm-6.113 0h-3.057v-.5h3.057v.5zm-6.113 0h-3.057v-.5h3.057v.5zm-6.113 0h-3.057v-.5h3.057v.5zm-6.113 0h-3.057v-.5h3.057v.5zm-6.113 0h-3.057v-.5h3.057v.5zm-6.113 0h-3.057v-.5h3.057v.5zm-6.113 0h-3.057v-.5h3.057v.5zm-6.114 0h-3.056v-.5h3.056v.5zm-6.113 0H304v-.5h2.4v.5zM257 246H501V247H257zM202 161l-1-1.069c.277-.228 28.33-22.107 57-.185l-.984 1.097c-27.654-21.138-54.74-.057-55.016.157z"/>
        <path fill="#FFF" d="M246 158.244L246.491 156.665 256.357 160.022 250.878 150.872 252.224 150 260 163zM47.683 44L50.462 44 53.656 53.077 55.541 44 58 44 55.317 57 52.618 57 49.424 47.775 47.523 57 45 57zM67.591 55.555c-1.289.977-2.906 1.481-4.556 1.422-1.472.142-2.926-.386-3.92-1.422-1.107-1.466-1.41-3.343-.817-5.055.342-1.98 1.44-3.774 3.087-5.04 1.283-.988 2.903-1.499 4.557-1.437 1.474-.143 2.932.391 3.92 1.438 1.13 1.45 1.44 3.331.832 5.04-.369 1.979-1.469 3.77-3.103 5.054zm.392-5.055c.338-1.052.256-2.185-.228-3.184-.475-.756-1.36-1.194-2.287-1.129-1.065-.006-2.087.402-2.825 1.129-.861.888-1.429 1.995-1.634 3.184-.343 1.053-.256 2.19.245 3.185.475.764 1.37 1.203 2.303 1.128 1.057.009 2.069-.4 2.793-1.128.86-.889 1.428-1.995 1.633-3.185zM75.622 44L75.741 51.506 75.741 53.566 76.411 51.506 79.182 44.049 81.788 44.049 81.788 51.473 81.788 53.533 82.533 51.538 85.512 44.049 88 44.049 82.176 57 79.807 57 79.807 49.429 79.807 46.927 79.063 49.38 76.083 56.951 73.834 56.951 73 44zM2.848 202.607c1.084-1.009 2.468-1.566 3.902-1.571 1.563-.221 3.095.6 3.873 2.073.33.715.447 1.521.336 2.31H8.533c0-.474-.116-.94-.336-1.351-.424-.583-1.1-.887-1.783-.801-.889 0-1.733.42-2.31 1.146-.738.89-1.243 1.974-1.461 3.143-.307 1.034-.244 2.154.175 3.142.39.683 1.098 1.08 1.842 1.037.79.021 1.554-.302 2.12-.896.372-.416.674-.9.89-1.43h2.456c-.443 1.308-1.223 2.453-2.25 3.3-1.023.843-2.279 1.291-3.567 1.272-1.39.14-2.746-.51-3.58-1.712-.76-1.432-.934-3.138-.483-4.713.32-1.92 1.237-3.665 2.602-4.95zM20.74 205.366c.185.336.275.719.258 1.104-.06.627-.163 1.25-.306 1.862L19.514 214H17l1.21-5.866c.104-.41.104-.841 0-1.252-.146-.445-.517-.675-1.146-.675-.605-.012-1.19.232-1.612.675-.474.53-.787 1.188-.903 1.895L13.435 214H11l2.71-13h2.45l-.951 4.613c.396-.505.905-.906 1.483-1.17.508-.228 1.058-.34 1.613-.329.527-.014 1.05.093 1.532.313.398.197.717.53.903.94zM25.915 206.912c.334-.027.665-.097.983-.208.32-.099.566-.368.646-.707.105-.29.01-.62-.23-.802-.336-.167-.707-.239-1.077-.209-.462-.032-.92.123-1.275.434-.221.243-.39.533-.492.85h-2.275c.182-.76.553-1.458 1.076-2.022.945-.884 2.193-1.33 3.458-1.236.868-.035 1.728.176 2.49.61.697.407.927 1.177.692 2.311l-.892 4.382c0 .305-.123.674-.2 1.091-.049.216-.049.442 0 .658.07.123.17.224.292.289v.353h-2.628c-.022-.176-.022-.354 0-.53-.013-.192-.013-.385 0-.577-.401.371-.845.69-1.322.947-.56.3-1.183.455-1.813.449-.695.045-1.375-.217-1.875-.722-.452-.58-.591-1.36-.37-2.07.183-1.087.85-2.018 1.8-2.504.689-.327 1.427-.528 2.182-.594l.83-.193zm1.198 1.156c-.154.095-.32.17-.491.225-.217.072-.438.13-.661.176l-.554.096c-.391.061-.773.175-1.137.337-.391.209-.669.594-.753 1.044-.1.312-.042.656.154.914.207.19.477.288.753.273.545.008 1.08-.154 1.537-.465.55-.395.918-1.012 1.014-1.701l.138-.9zM44.74 203.966c.193.344.282.736.256 1.129-.027.435-.088.868-.18 1.294l-1.203 5.55h-2.36l1.187-5.61c.067-.267.067-.546 0-.813-.12-.421-.451-.617-.992-.617-.606-.032-1.182.268-1.503.783-.185.336-.308.703-.361 1.083L38.47 212h-2.33l1.113-5.235c.1-.373.126-.761.075-1.144-.105-.42-.436-.647-.992-.647-.578-.047-1.141.195-1.504.647-.2.333-.338.7-.406 1.084L33.3 212H31l1.864-8.786h2.21l-.27 1.279c.29-.369.63-.697 1.007-.978.551-.35 1.195-.528 1.849-.511.536-.03 1.066.124 1.503.436.284.293.473.665.541 1.068.357-.486.827-.878 1.368-1.143.518-.242 1.082-.365 1.654-.361.377-.001.75.076 1.097.225.379.138.701.397.917.737zM54.689 204.653c.253.552.355 1.155.294 1.753-.051.566-.15 1.128-.294 1.68H48.5c-.154.855 0 1.449.449 1.782.312.23.702.348 1.098.333.464.011.917-.127 1.285-.39.224-.168.418-.368.572-.595h2.429c-.251.599-.661 1.127-1.191 1.536-.966.826-2.235 1.272-3.543 1.245-1.053.038-2.075-.34-2.816-1.042-.787-.975-.996-2.255-.557-3.405.238-1.297.93-2.484 1.965-3.375.926-.766 2.122-1.184 3.357-1.173.676-.02 1.346.12 1.95.405.54.272.962.713 1.19 1.246zm-5.756 1.97h3.683c.118-.459.022-.943-.263-1.332-.303-.306-.731-.475-1.176-.464-.51-.008-1.003.169-1.377.493-.402.359-.7.807-.867 1.303zM57.383 214L55 214 57.617 201 60 201zM68.701 204.653c.248.553.344 1.156.28 1.753-.044.567-.142 1.13-.295 1.68h-6.198c-.22.626-.047 1.314.45 1.782.317.232.712.35 1.115.333.463.007.915-.13 1.286-.39.217-.175.41-.375.573-.595h2.417c-.251.599-.662 1.127-1.193 1.536-.965.83-2.237 1.277-3.548 1.246-1.054.035-2.077-.343-2.82-1.043-.775-.98-.978-2.256-.542-3.405.222-1.3.91-2.49 1.952-3.375.932-.768 2.135-1.187 3.378-1.173.672-.019 1.338.12 1.937.405.55.266.979.708 1.208 1.246zm-5.826 1.97h3.688c.122-.46.02-.949-.279-1.333-.292-.311-.72-.482-1.162-.463-.515-.01-1.015.166-1.395.492-.397.361-.69.81-.852 1.304zM73.483 212.984c-1.15.12-2.272-.44-2.937-1.467-.548-1.069-.69-2.328-.396-3.509.253-1.337.873-2.56 1.776-3.508.962-1.01 2.262-1.546 3.597-1.483 1.155-.123 2.28.445 2.937 1.483.54 1.071.681 2.327.396 3.508-.253 1.337-.872 2.56-1.776 3.509-.968.995-2.265 1.524-3.597 1.467zm2.936-4.976c.208-.712.172-1.483-.103-2.169-.286-.514-.814-.81-1.365-.765-.629-.016-1.233.263-1.66.765-.502.609-.834 1.362-.953 2.17-.197.708-.16 1.47.102 2.152.286.514.814.81 1.366.766.628.015 1.233-.263 1.659-.766.503-.602.835-1.35.954-2.153zM89.835 206.084L88.503 212h-2.519l1.204-5.345c.094-.35.094-.717 0-1.067-.145-.45-.546-.675-1.236-.675-.79-.02-1.531.358-1.94.99-.267.41-.446.864-.53 1.337L82.39 212H80l1.99-8.769h2.374l-.305 1.276c.335-.363.711-.69 1.123-.976.617-.355 1.33-.537 2.054-.525.809-.048 1.605.206 2.214.705.556.676.702 1.573.385 2.373zM100.433 201H104l-2.518 13h-2.369l1.694-8.782c0-.262.12-.607.225-1.066.105-.46.165-.805.195-1.051L96.88 214h-2.353l-.12-10.899c0 .246-.105.59-.18 1.05-.075.46-.165.805-.21 1.067L92.323 214H90l2.533-13h3.583l.165 10.226L100.433 201zM108.853 206.912c.335-.027.665-.097.984-.208.32-.099.566-.368.645-.707.105-.29.011-.62-.23-.802-.335-.167-.706-.239-1.076-.209-.463-.032-.92.123-1.276.434-.22.243-.389.533-.492.85h-2.213c.182-.76.553-1.458 1.076-2.022.945-.884 2.193-1.33 3.458-1.236.868-.035 1.728.176 2.49.61.697.407.927 1.177.692 2.311l-.892 4.382c0 .305-.123.674-.2 1.091-.049.216-.049.442 0 .658.07.123.17.224.292.289v.353h-2.628c-.022-.176-.022-.354 0-.53-.013-.192-.013-.385 0-.577-.401.371-.845.69-1.322.947-.56.3-1.183.455-1.813.449-.695.045-1.375-.217-1.875-.722-.452-.58-.591-1.36-.37-2.07.183-1.087.85-2.018 1.8-2.504.689-.327 1.427-.528 2.182-.594l.768-.193zm1.199 1.156c-.155.095-.32.17-.492.225-.217.072-.437.13-.66.176l-.554.096c-.391.061-.774.175-1.137.337-.392.209-.67.594-.754 1.044-.099.312-.041.656.154.914.208.19.478.288.753.273.545.008 1.08-.154 1.537-.465.55-.395.918-1.012 1.015-1.701l.138-.9zM116.561 209.577c-.054.317-.005.644.14.93.231.336.741.496 1.546.496.392.013.783-.064 1.144-.224.277-.104.486-.344.557-.641.062-.235-.025-.485-.217-.625-.74-.33-1.513-.577-2.304-.737-.73-.137-1.41-.481-1.964-.993-.333-.458-.442-1.05-.294-1.602.207-.906.723-1.702 1.454-2.243.853-.65 1.895-.978 2.954-.93.92-.058 1.836.189 2.613.705.666.599.952 1.533.742 2.42h-2.381c.027-.257-.01-.516-.108-.753-.304-.375-.77-.562-1.238-.497-.397-.031-.795.058-1.144.256-.224.115-.388.326-.448.577-.081.235.018.495.232.609.747.315 1.524.546 2.32.689.724.129 1.39.494 1.901 1.041.376.499.502 1.152.34 1.763-.213.936-.767 1.751-1.546 2.275-.976.643-2.123.951-3.278.88-1.067.127-2.136-.209-2.954-.928-.557-.65-.76-1.548-.541-2.388l2.474-.08zM125.569 201L127.862 201 126.471 208.035 130.11 204.394 133 204.394 129.147 208.085 131.242 214 128.413 214 127.083 209.881 125.89 210.968 125.294 214 123 214z"/>
        <circle cx="180" cy="15" r="10" fill="#FFF"/>
        <path fill="#FFF" d="M194.99 56.73l-2.283-22.313c-.238-2.51-2.392-4.428-4.963-4.417H172.27c-2.577-.019-4.74 1.9-4.978 4.417L165.01 56.73c-.063.691.17 1.377.644 1.893.467.515 1.135.81 1.838.811h2.742l2.053 20.058c.215 2.543 2.377 4.501 4.978 4.508h5.47c2.606.008 4.777-1.958 4.978-4.508l2.053-20.103h2.742c.706-.003 1.38-.297 1.853-.811.465-.503.692-1.173.628-1.848z"/>
        <circle cx="444" cy="15" r="10" fill="#FFF"/>
        <path fill="#FFF" d="M458.99 56.73l-2.283-22.313c-.238-2.51-2.392-4.428-4.963-4.417h-15.488c-2.571-.01-4.725 1.906-4.963 4.417L429.01 56.73c-.063.69.17 1.377.644 1.893.467.515 1.135.81 1.838.811h2.742l2.053 20.058c.2 2.55 2.372 4.516 4.978 4.508h5.47c2.606.008 4.777-1.958 4.978-4.508l2.053-20.103h2.742c.706-.003 1.38-.297 1.853-.811.465-.503.692-1.173.628-1.848z"/>
        <circle cx="178" cy="171" r="10" fill="#FFF"/>
        <path fill="#FFF" d="M192.991 212.752l-2.283-22.33c-.238-2.514-2.392-4.433-4.963-4.422H170.27c-2.577-.019-4.74 1.902-4.979 4.421l-2.282 22.33c-.062.693.171 1.379.643 1.896.467.515 1.136.81 1.839.812h2.68l2.053 20.12c.26 2.509 2.41 4.418 4.98 4.421h5.484c2.569.004 4.719-1.911 4.964-4.421l2.053-20.12h2.742c.707-.003 1.38-.298 1.854-.812.499-.504.75-1.195.689-1.895z"/>
        <g fill="#FFF" fill-opacity=".692" opacity=".5" transform="translate(265 161)">
            <ellipse cx="14.925" cy="10.445" rx="9.795" ry="9.857"/>
            <path d="M29.595 52.09l-2.22-22.415c-.247-2.521-2.357-4.442-4.875-4.437H7.35c-2.52-.012-4.635 1.912-4.875 4.437L.24 52.091c-.06.694.168 1.382.63 1.901.464.517 1.123.813 1.815.816h2.67l2.01 20.196c.254 2.518 2.36 4.435 4.875 4.438h5.37c2.515-.003 4.621-1.92 4.875-4.438l1.995-20.196h2.685c.692-.003 1.35-.3 1.815-.816.467-.515.69-1.208.615-1.901z"/>
        </g>
        <circle cx="470" cy="171" r="10" fill="#FFF"/>
        <path fill="#FFF" d="M484.985 212.752l-2.267-22.33c-.252-2.513-2.406-4.426-4.978-4.422h-15.47c-2.574-.011-4.733 1.906-4.978 4.421l-2.282 22.33c-.062.693.171 1.379.643 1.896.473.516 1.146.81 1.853.812h2.727l2.052 20.12c.26 2.509 2.41 4.418 4.978 4.421h5.484c2.568-.003 4.719-1.912 4.978-4.421l2.037-20.12h2.742c.706-.003 1.38-.298 1.853-.812.477-.514.706-1.204.628-1.895z"/>
    </g>
</svg>
