<svg xmlns="http://www.w3.org/2000/svg" width="240" height="311" viewBox="0 0 240 311">
    <g fill="#FFF">
        <path d="M44.583 37.393c-.072 25.627-.266 51.25-.583 76.87 0 1.346 2.4.638 2.408-.442.328-25.774.525-51.552.592-77.333 0-.987-2.417-.372-2.417.905zM48.937 34.944c21.533-5.155 43.337-8.933 65.295-11.313 1.887-.213 2.653-2.866.318-2.614-22.27 2.42-44.384 6.253-66.227 11.476-2.134.516-1.51 2.942.614 2.439v.012zM117.041 25.404c.465 27.798.617 55.6.456 83.407 0 1.82 2.43 1.394 2.438-.219.165-27.798.016-55.6-.448-83.407 0-1.82-2.487-1.382-2.487.219h.041z"/>
        <path d="M49.533 116.718c13.345-5.594 27.195-6.95 41.303-9.474 10.555-1.888 20.558-5.663 30.49-9.66 2.053-.822-1.172-.625-1.922-.323-13.215 5.236-27.02 8.884-41.116 10.863-10.515 1.489-20.801 4.266-30.62 8.27-2.04.857 1.173.648 1.924.324h-.06zM52.058 42.342c.17 20.99.943 41.967 2.32 62.933 0 .823 1.485.777 1.972.661l56.348-13.162c2.1-.487 1.484-2.713-.592-2.226l-56.36 13.162 1.972.66c-1.337-20.741-2.11-41.51-2.32-62.306 0-1.716-3.41-1.16-3.398.278h.058z"/>
        <path d="M56.444 42.799c18.312-2.1 36.442-5.565 54.238-10.366l-2.019-1.055 2.924 58.485c.093 1.785 3.482 1.287 3.412-.244l-2.924-58.485c0-1.032-1.16-1.287-2.031-1.055-17.494 4.736-35.317 8.158-53.322 10.239-1.88.208-2.565 2.76-.278 2.504V42.8z"/>
        <path d="M43.754 115.565c-16.502-5.26-19.903-29.159-19.28-44.006.69-18.42 8.202-35.906 21.044-48.987C59.528 8.46 79.94-.113 99.831 2.056c20.088 2.193 32.438 17.74 34.479 37.428 1.234 11.909-.83 24.05-3.356 35.667-2.087 9.564-5.212 19.315-13.11 25.59-1.385 1.096 1.925.793 2.594.256 7.068-5.621 10.62-13.61 12.846-22.242 2.988-10.89 4.573-22.126 4.716-33.427-.104-20.574-10.286-39.83-31.412-44.1C68.27-6.504 29.536 23.331 22.386 60.98c-3.32 17.495-1.96 49.441 18.623 55.985.83.268 3.829-1.062 2.71-1.423l.035.023z"/>
        <path d="M64.968 54.323l11.677-7.515c.665-.422.28-.627-.21-.796-.849-.07-1.694.165-2.394.663L62.364 54.18c-.677.434-.292.627.199.808.852.073 1.702-.161 2.405-.664z"/>
        <path d="M69.675 54.293l.136-2.046c0-.609-3.424 0-3.547.828-.296 1.917-.616 4.053.69 5.646 1.135 1.213 2.847 1.604 4.36.997 1.384-.248 2.578-1.163 3.226-2.473.488-1.464.59-3.039.295-4.558 0-.22-.505-.272-.628-.272H71.99c-.868-.009-1.72.238-2.463.712-.492.376-.541.868.222.855h2.217l-.64-.272c.139.855.176 1.725.11 2.59-.043.44-.134.875-.27 1.294-.1.337-.543.829-.58 1.114-.036.285-.098.155.358-.143.455-.297.59-.207.295-.323 0-.091-.443-.324-.517-.402-.368-.358-.65-.801-.825-1.295-.333-1.34-.333-2.75 0-4.091l-3.682.803-.136 2.033c0 .556 3.498.129 3.572-.997h.024zM81.646 48.333v.235l1.717-1.003-.255.078 1.653-.182c-.216-.066 1.653-1.225 1.908-1.303l2.314-1.107 4.31-2.057c.547-.274.992-.469.484-.873-.51-.403-2.137.313-2.544.521-3.142 1.271-6.204 2.741-9.167 4.402-.496.325-1.463.937-.89 1.628.572.69 1.932.104 2.543-.065.61-.17 1.615-.391 1.704-1.003v-.235c0-.286-3.523-.078-3.688 1.003l-.089-.039z"/>
        <path d="M87.82 46.393c-.756.388-1.342 1.094-1.629 1.963-.286.868-.25 1.828.102 2.666.965 2.36 3.446 2.423 5.261 1.16 1.815-1.262 3.446-4.017 1.7-6.044-1.585-1.85-4.744-1.276-6.169.51-.528.65.46.88.85.88.82.013 1.612-.33 2.206-.957-.861 1.072-1.23 0-.712.383.192.106.377.23.551.37.342.325.563.78.62 1.275.119 1.311-.502 2.568-1.562 3.163l1.677-.498c-1.24 0-1.964-3.366-.896-3.991.448-.255.988-.855.345-1.276-.784-.202-1.61-.056-2.297.409l-.046-.013zM82.759 60.95v-1.846c0-1.752-3.56-1.235-3.56.27v10.103c0 1.952-.79 6.033.778 7.61 3.22 3.233 9.975-3.035 12.356-4.611 1.968-1.294-.911-2.458-2.32-1.517-1.483 1.093-3.025 2.11-4.618 3.046-.43.364-.972.583-1.543.623-.996.624-1.348.4-1.057-.682-.143-1.172-.143-2.356 0-3.528V59.057l-3.56.27v1.894c0 1.764 3.573 1.235 3.573-.27h-.05zM70.202 89.66c10.238 4.008 22.696-1.248 27.077-12.122l-3.347.786c.538 3.343 2.995 5.947 6.113 6.48.802.187 3.742-1.249 2.754-1.448-2.853-.49-5.077-2.92-5.485-5.993-.197-.936-3.091.162-3.347.787-3.58 8.851-12.318 13.458-21 10.075-.766-.313-3.788 1.036-2.754 1.435h-.011zM79.025 111.624c1.088 4.57 2.33 9.107 3.728 13.61.405 1.31 2.824.743 3.275-.24l.857-1.811c.776-1.648-2.604-1.66-3.218-.371l-.845 1.812 3.287-.23c-1.404-4.511-2.647-9.052-3.727-13.621-.347-1.474-3.704-.644-3.357.851zM93 109.193l.59 14.553c0 .63 2.451 0 2.41-.946l-.549-14.54c0-.643-2.493 0-2.41.933H93z"/>
        <path d="M86.356 128.03c3.162 2.711 9.508-.657 8.546-5.226-.321-1.575-3.768-.62-3.447 1.006.32 1.627-1.058 3.343-2.377 2.182-1.081-.943-4.16.761-2.686 2.039h-.036zM65.738 138.6c-9.819 8.206-18.474 17.707-25.728 28.241-.205.301 2.87.217 3.45-.626 7.174-10.408 15.731-19.796 25.438-27.904.712-.59-2.509-.253-3.16.289zM104.634 124.853c9.814 1.26 18.798 4.94 27.412 9.661 4.082 2.292 7.98 4.756 11.993 7.117 1.742 1.008 2.537 1.662 4.51 1.238.415-.092 1.406-.505 1.44-1.055.035-.55 0-.699-.414-1.043-.945-.503-2.107-.356-2.895.367l-.196.172c-1.464 1.26 1.834 1.318 2.687.585l.196-.172-2.894.366.173.126 1.441-1.065c-.6.126-6.78-4.47-8.2-5.307-3.713-2.189-7.484-4.297-11.381-6.154-6.874-3.375-14.248-5.631-21.842-6.681-1.084-.138-3.921 1.604-2.03 1.845zM42.197 169.95c3.352 4.815 6.264 9.908 8.702 15.221.573 1.232 2.293.94 3.073.1 6.099-6.383 11.995-12.912 17.69-19.587 1.364-1.602-1.766-2.24-2.81-1.12-5.732 6.675-11.628 13.204-17.69 19.588l3.062.1c-2.529-5.515-5.536-10.81-8.988-15.824-.906-1.3-4.047 0-3.039 1.478v.045zM75.047 163.62c-.864 11.53-1.582 23.062-2.153 34.6-.208 4.151-3.3 17.654 3.38 18.724 2.79.442 5.857-1.85 8.103-2.954 4.678-2.245 9.47-4.245 14.354-5.99 11.133-3.932 22.682-6.558 34.415-7.827.417 0 2.223-.581 1.91-1.384l-20.477-51.73-3.01 1.267 21.705 13.351c1.032.366 2.181.056 2.893-.779l11.669-14.107c.938-1.163-2.42-.919-3.114-.07l-11.657 14.107 2.894-.779-21.693-13.351c-.625-.384-3.473.174-3.01 1.267l20.536 51.72 1.898-1.384c-16.817 1.827-33.233 6.358-48.618 13.421-3.473 1.628-8.728 4.862-9.26-1.244-.499-5.525.485-11.747.786-17.294.54-10.002 1.177-19.997 1.91-29.983.093-1.36-3.276-.71-3.357.419h-.104z"/>
        <path d="M65.735 140.627c3.919-2.889 8.064-5.46 12.396-7.69 1.97-1 .19-2.512-1.387-1.712-4.597 2.346-8.997 5.055-13.157 8.102-1.768 1.3.906 2.222 2.104 1.3h.044zM80.815 132.077c3.44 2.273 7.638 2.672 11.38 1.08 3.741-1.591 6.606-4.994 7.765-9.222l-3.451.387c-.622 3.516-1.96 7.755-5 9.668-1.504.86-3.277.94-4.838.215s-2.748-2.177-3.238-3.963c-.387-1.396-3.78-.362-3.404 1.008 1.35 4.834 6.338 6.527 10.564 5.428 5.446-1.434 8.393-7.134 9.39-12.782.282-1.577-3.075-.84-3.404.426-1.725 6.58-7.618 9.384-13.052 5.83-1.021-.66-4.144.943-2.688 1.886l-.024.04zM42.778 171.774c-8.573 11.866-17.738 23.23-27.455 34.043-1.345 1.498 1.897 1.436 2.667.577 9.863-10.97 19.162-22.503 27.858-34.546.897-1.228-2.437-1.007-3.104-.074h.034zM23.931 206.496c8.766-7.427 15.932-16.651 21.041-27.084.355-.73-2.816-.448-3.297.518-4.93 10.11-11.86 19.05-20.343 26.249-1.373 1.177 1.912.906 2.599.317z"/>
        <path d="M13.045 208.829c-4.03-6.784-15.71 7.027-12.49 13.395 1.554 3.067 5.629 3.322 8.37 2.072 4.864-2.211 5.974-8.104 8.095-12.584l-3.009.578c1.92 3.068 5.807 5.164 8.882 2.316 2.554-2.408.278-5.465-2.665-5.164-1.698.186-2.564 2.42-.355 2.188-.366 1.841-.9 2.154-1.61.95-.522-.46-.952-1.022-1.265-1.656-.578-.937-2.598-.254-2.998.58-1.188 2.488-4.352 14.239-9.226 10.835-2.332-1.632-1.555-5.244-.644-7.409.355-.845 4.44-7.19 5.973-4.63.666 1.157 3.764 0 2.964-1.402l-.022-.07zM149.737 152.59l-.105-.223c-.384-.842-2.165 0-2.666.21l-.28.145c-.29.158-.907.54-.605.961 2.329 3.132 8.802 4.474 12.086 5.382 4.64 1.261 9.395 1.91 14.169 1.935.768 0 3.842-1.606 2.177-1.632-4.576-.016-9.136-.63-13.587-1.83-3.144-.868-9.617-2.394-11.643-5.184l-.605.96.28-.144-2.679.223.105.224c.454.987 3.68-.355 3.377-1.026h-.024z"/>
        <path d="M138.238 156.29c7.218 10.002 19.338 13.432 29.826 8.44 2.097-.948.262-3.195-1.505-2.39-9.021 3.992-19.273.835-25.3-7.79-1.015-1.403-4.138.142-3.021 1.7v.04zM174.892 156.794c1.588-1.676 3.304-3.186 5.128-4.513.997-.717 3.556-2.967 4.596-.742.234.936.2 1.932-.097 2.844-1.29 4.945-6.126 6.441-9.996 7.567-1.908.556-1.453 2.472.455 1.966 3.361-.977 6.895-2.078 9.595-4.711 1.919-1.892 4.174-5.54 3.187-8.655-2.32-7.307-13.183 3.178-15.416 5.502-1.366 1.434 1.724 1.583 2.548.717v.025zM169.463 167.06c-.404 1.468-.832 3.352.073 4.704.905 1.351 2.641 1.403 4.035 1.052 1.542-.286 2.91-1.224 3.791-2.599.93-1.741.648-3.898.367-5.756-.16-1.027-3.669-.182-3.546 1.013.221 1.092.303 2.211.244 3.327-.044.586-.189 1.159-.428 1.69-.122.233-.831.87-.452.766.379-.104-.281-.273-.502-.533-.257-.358-.414-.786-.452-1.234-.066-.993.067-1.99.391-2.924.294-1.079-3.203-.559-3.521.559v-.065zM81.011 215.676c1.84 12.653 4.86 25.103 9.019 37.183 1.983 5.7 4.214 11.297 6.691 16.793 1.39 3.083 3.59 10.335 6.646 12.11.777.384 1.701.298 2.396-.221l.648-.41c.411-.233.64-.695.58-1.167l-.151-.619c-.348-1.495-3.705-.607-3.358.9l.081-.13 2.397-.233c-2.316-1.354-3.473-5.909-4.55-8.174-1.158-2.57-2.315-5.162-3.473-7.778-2.192-5.302-4.16-10.639-5.904-16.01-3.465-10.813-6.029-21.9-7.664-33.143-.22-1.483-3.59-.654-3.358.9zM107.02 233.389c4.582 16.514 6.487 33.73 5.632 50.917-.065 1.274 3.083.597 3.137-.448.885-17.335-1.016-34.703-5.622-51.365-.304-1.09-3.44-.184-3.148.896z"/>
        <path d="M103.2 283.674c4.957.818 10.11.084 14.438-2.059.687-.334.268-.476-.198-.61-.824-.039-1.642.145-2.327.524-2.748 1.3-6 1.685-9.086 1.077-.802-.098-1.62.026-2.327.353-.244.114-1.163.581-.407.715h-.093zM115.132 231.305c-.647-.715-1.295-1.43-1.93-2.157-.432-.49-3.407.333-3.19 1.048 4.173 14.32 11.284 27.504 20.833 38.628.545.632 3.6-.596 3.1-1.192-9.468-11.053-16.517-24.148-20.653-38.365l-3.19 1.049c.636.727 1.283 1.442 1.93 2.157.647.715 3.588-.62 3.1-1.192v.024zM126.019 203.592c4.77 11.3 9.527 22.647 12.898 34.469 1.603 5.484 2.816 11.08 3.626 16.742.175 1.186 1.388 19.826.782 19.826-1.528 0-3.499 2.371-1.166 2.371 3.708 0 4.28-2.371 4.606-5.775.711-7.41-.292-15.32-1.668-22.588-3.043-15.971-9.33-31.054-15.65-45.935-.606-1.435-3.953-.439-3.382.913l-.046-.023z"/>
        <path d="M130.081 266.458c3.048 4.002 7.78 6.05 12.551 5.434.913-.09 3.784-1.734 1.514-1.514-4.184.355-8.251-1.592-10.81-5.175-.528-.698-3.807.57-3.279 1.294l.024-.039zM107.011 286.403l1.621 8.096c.209 1.075 3.578.254 3.358-.902l-1.621-8.096c-.209-1.075-3.59-.254-3.358.902zM111.087 285.616c1.326 2.704 2.144 5.605 2.417 8.573.133 1.514 3.625.728 3.492-.877-.268-2.972-1.086-5.877-2.417-8.584-.7-1.457-4.169-.5-3.492.888z"/>
        <path d="M113.026 294.87l-9.071.24c-.999 0-3.068 1.2-1.203 1.538 4.308.784 8.9.244 12.583-1.48 1.973-.902-.95-1.53-2.25-.935-2.42 1.134-5.445 1.473-8.264.927l-1.203 1.53 9.07-.24c1.89-.05 2.768-1.654.386-1.58h-.048z"/>
        <path d="M104.002 296.964c-4.252-1.373-8.872.23-11.482 3.983-3.648 5.43-.225 8.782 4.933 9.722 6.075 1.058 12.305-.442 17.317-4.169 2.852-2.164 8.414-8.04 2.852-10.39-1.51-.63-4.017 1.608-1.985 2.474 3.566 1.485-4.611 7.187-5.336 7.582-2.156 1.16-4.511 1.862-6.93 2.066-1.83.149-5.574.26-7.214-.928-4.968-3.562 2.033-8.98 5.872-7.866 1.52.445 4.064-1.868 1.973-2.474zM141.21 269.188c-.574-2.422-4.451-.761-4.198 1.597.391 3.69 2.864 7.822 4.762 10.79.725 1.115 3.935-.166 3.083-1.497-1.087-1.68-2.038-3.461-2.841-5.325-.61-1.42-1.99-3.993-1.565-5.59l-.989 1.064.334-.152-1.68.203.345.14-.667-.584.08.33c.334 1.42 3.67.444 3.337-.976z"/>
        <path d="M140.08 272.504c1.366 2.746 2.9 5.42 4.592 8.012.775 1.18 4.078 0 3.172-1.364-1.587-2.421-3.028-4.919-4.317-7.481-.668-1.354-4.09-.444-3.447.833z"/>
        <path d="M149.01 280.963c.746-2.267 2.655-3.944 4.98-4.377 2.325-.433 4.699.447 6.196 2.297 2.278 2.578 3.077 6.162 2.114 9.479-1.215 4.376-6.376 10.388-11.627 7.422-3.632-2.069-3.958-6.638-2.845-10.23.461-1.477-2.867-1.136-3.294.273-1.833 5.9 1.124 12.684 7.78 13.15 5.95.42 11.706-5.103 13.247-10.581 1.63-5.683-1.383-12.502-7.287-14.048-5.094-1.35-10.388 1.33-12.368 6.263-.641 1.75 2.608 1.67 3.103.34v.012zM85.411 161.231c2.362 6.123 3.674 12.59 3.884 19.137 0 1.297.447 9.811-.8 10.32-.448.174-2.143-6.556 2.059-7.262 2.553-.429 4.472.845 7.155-.545 1.601-.68 2.813-2.026 3.308-3.672.496-1.646.224-3.424-.743-4.854-.435-.764-2.824.093-3.248.58-2.812 3.174 2.73 3.533 4.708 2.41 5.707-3.28 3.318-12.535.494-16.705-.483-.706-3.695.243-3.413.892l11.768 27.558c.342.823 3.672-.266 3.401-.892l-11.768-27.558-3.413.892c1.624 2.19 2.613 4.772 2.86 7.472.157 1.74-.027 3.494-.541 5.166-.483 1.332-2.354 2.085-1 .521l-3.26.568c1.965 3.475.176 5.954-4.355 6.684-.553.093-1.365-.162-1.977-.104-1.582.158-3.076.797-4.272 1.83-2.424 2.155-3.742 8.248.506 9.174 11.769 2.618 3.66-28.38 2.083-32.55-.294-.8-3.66.22-3.4.892l-.036.046zM112.057 204.485c.842 4.4 1.185 9.57 4.829 12.445 2.575 1.931 5.817 2.55 8.859 1.692 1.949-.473 1.495-2.248-.443-1.775-7.564 1.822-9.014-7.725-10.077-13.273-.233-1.183-3.455-.367-3.212.91h.044zM90.487 213.166l.61-.093-1.29-.105c1.751 2.17.415 7.394 0 9.995-.778 4.41-2.053 8.714-3.8 12.83-.183.42 2.937.198 3.283-.63 2.22-5.248 3.674-10.796 4.318-16.468.3-2.823 1.44-7.255-2.384-6.637-1.278.21-3.017 1.493-.656 1.108h-.08zM116.492 56.247l-.403.443c-.45.49.95.268 1.092.21 7.836-3.036 15.437-6.626 22.744-10.743 3.06-1.747 6.066-3.58 9.017-5.499 1.839-1.165 5.481-2.68 6.027-5.056.041-.051.041-.124 0-.175l-.415-.338c-.392-.326-1.958.326-1.614.606 1.186.955-16.088 11.313-17.63 12.14-2.445 1.305-4.92 2.552-7.428 3.74-2.752 1.305-7.664 2.33-9.776 4.66.415-.442-1.258-.28-1.566 0l-.048.012z"/>
        <path d="M145.646 36.919h-.298c-.421-.064-.84.137-1.102.53-.772 1.29.44 1.626 1.356 1.574 2.205-.13 4.917-1.885 6.89-3.02l-1.102-.323c-.07 4.422-.816 8.794-2.205 12.908-.22.671 1.39.465 1.61-.206 1.378-4.118 2.125-8.488 2.205-12.909 0-.632-.816-.503-1.103-.335-.86.503-1.73.98-2.624 1.407l-1.102.529c-.69.495-1.514.661-2.305.464l-1.102.53h.308c.662.103 1.676-.994.596-1.15h-.022zM160 30.616c.156 6.433.48 12.837.971 19.213l1.028-.478-.149-1.224c-.056-.416-1.084 0-1.028.478l.15 1.224c.049.416 1.063 0 1.027-.478-.489-6.38-.815-12.771-.971-19.212 0-.343-1.042 0-1.028.477z"/>
        <path d="M159.732 35.803c.314-2.52 1.906-4.635 4.119-5.471l-1.015-.372c.945 3.535-.301 7.329-3.093 9.418-.157.084-.264.248-.285.436-.022.189.046.376.18.5 1.471 1.253 3.167 2.16 4.98 2.664.72.192 2.03-.935 1.003-1.281-1.696-.467-3.284-1.314-4.662-2.486l-.094.923c3.217-2.343 4.699-6.653 3.682-10.712-.106-.423-.696-.487-1.003-.371-2.895.958-5.04 3.614-5.536 6.855-.141.91 1.594.666 1.724-.154v.051z"/>
        <path d="M167.166 38.037c1.605-.048 3.028-1.063 3.618-2.58.035-.04.035-.1 0-.139-2.405-1.267-5.496 1.488-4.637 4.068.164.572.547 1.054 1.062 1.34.516.285 1.122.351 1.686.182 1.03-.22 2.507-1.08 2.003-2.324-.172-.407-1.797.128-1.66.453.165.3.165.665 0 .964-.286.384-.47.256-.801 0-.52-.537-.793-1.27-.756-2.022.009-.407.115-.806.309-1.162.092-.174.595-1.046.87-1 .79.14-.48 1.57-.904 1.616-.424.047-.985.116-1.145.407-.16.29.103.325.4.29l-.045-.093zM172.184 32.643c-.403 2.718-.142 5.494.762 8.09.178.546 1.653.166 1.713-.344.269-2.26.755-4.488 1.45-6.655l-1.665.45c1.104 1.214 1.548 2.886 1.19 4.485-.13.652 1.558.32 1.725-.214l1.57-5.409-1.653.45c1.189 1.166 1.9 2.73 1.998 4.39 0 .546 1.773.19 1.725-.463-.11-1.745-.869-3.387-2.13-4.602-.584-.304-1.305-.108-1.653.45l-1.582 5.398 1.725-.214c.387-1.759-.1-3.596-1.309-4.934-.356-.416-1.51 0-1.665.438-.704 2.185-1.186 4.434-1.44 6.715l1.714-.344c-.878-2.557-1.131-5.286-.738-7.96.095-.653-1.642-.356-1.713.225l-.024.048zM182.4 31.446c-.983 1.56-2.027 3.513-.933 5.282.971 1.357 2.873 1.68 4.246.719 1.373-.96 1.699-2.839.727-4.196-1.206-1.268-3.067-1.69-4.712-1.068-1.057.368-.783 1.523.31 1.154.904-.335 1.921-.124 2.612.541.367.351.565.84.544 1.346-.022.504-.26.976-.656 1.295-1.057.652-1.679-1.032-1.666-1.818.127-1.12.556-2.184 1.243-3.083.51-.799-1.318-.787-1.716-.172zM186.615 30.981c2.205.145 4.38-.552 6.064-1.941.987-.818-.552-1.38-1.25-.805-1.125 1.004-2.616 1.532-4.143 1.469-.421 0-1.065.115-1.25.55-.068.176-.039.374.079.525.118.15.306.232.5.215v-.013z"/>
        <path d="M187.23 25.645c-.305 3.91-1.28 14.722 5.474 13.211 3.573-.8 7.194-9.442 1.841-9.378-.436-.004-.83.274-.987.698-.488 2.335-.378 5.533 2.329 6.244 1.627.527 3.377-.296 4.072-1.917.33-.939-1.427-.837-1.67-.14-1.39.965-2.28.902-2.683-.228-.277-.363-.443-.805-.475-1.269-.087-.94.004-1.888.268-2.792l-.988.698c2.28 0 .585 4.29.073 5.166-1.585 2.779-4.316 1.497-5.157-.914-.988-2.868-.488-6.523-.256-9.48.06-.889-1.732-.584-1.78.165l-.061-.064zM203 27.894c.14 2.211 1.057 6.897 5.093 5.991 4.036-.905 3.068-6.549 1.833-8.75-.216-.378-2.011.127-1.846.411.685 1.162 1.046 2.436 1.057 3.728 0 .852-.204 3.527-1.426 3.695-2.343.327-2.75-4.306-2.827-5.475 0-.295-1.871 0-1.846.4H203zM216.372 29.243c-.458-.313-1-.324-1.465-.03-.464.294-.799.86-.903 1.529-.08 1.251 1.015 1.853 1.442 2.774.766 1.676-.4 3.28-1.308 4.331-.25.295.89.118 1.166-.153.828-.956 1.967-2.36 1.638-4.013-.196-.657-.518-1.235-.935-1.676-.285-.39-.659-.767-.721-1.322l.053-.637c.205-.378.134-.449-.213-.236.276.271 1.37-.425 1.22-.567h.026z"/>
        <path d="M216.914 32.36c2.727-.378 5.536-2.614 5.358-5.49-.177-2.877-4.09-1.987-5.345-.314-1.363 1.922-.982 5.23 1.487 6.132 1.107.45 2.365.412 3.44-.107 1.074-.52 1.855-1.465 2.137-2.587.163-.98-1.855-.758-2.005.131-.114.559-.512 1.026-1.06 1.244-.548.218-1.174.158-1.667-.159-1.02-.812-1.405-2.147-.968-3.347.13-.594.53-1.102 1.09-1.385.996-.34.969.876.819 1.53-.328 1.488-1.562 2.64-3.123 2.915-.409 0-1.05.287-1.077.784.018.21.13.404.309.53.177.124.403.17.618.124h-.013z"/>
        <path d="M222.16 25.227c1.262 1.896 2.04 4.156 2.247 6.528l1.618-.502c-1.393-2.807-.416-7.223 2.875-7.223.595 0 1.741-1.017.64-1.03-3.965 0-7.39 4.313-5.167 8.73.27.553 1.685.193 1.618-.503-.24-2.463-1.076-4.8-2.415-6.746-.326-.49-1.899.154-1.517.72l.101.026zM228.49 16.65c-.435 1.275-.584 2.675-.432 4.05.062.62 1.563.194 1.491-.505-.14-1.29.009-2.604.432-3.791.134-.389-.493-.415-.648-.402-.35.021-.668.265-.843.647zM236.74 22.249c-1.889-.747-4.74.241-4.74 2.263.02.935.633 1.782 1.588 2.196.65.275 2.126.21 2.501.857.563 1.099-1.113 1.967-2.013 2.395-1.088.505-.113 1.351.8.923 1.6-.758 3.752-2.021 2.951-3.9-.249-.574-.824-.992-1.513-1.098-.913-.165-1.963-.1-2.35-1.099-.304-.44-.219-1.006.204-1.362.423-.356 1.071-.406 1.558-.12.75.296 2.089-.649 1.05-1.1l-.037.045zM187.164 59.622c-.973-.788-3.028.482-1.766 1.189.877.492 2.199-.102 3.052-.359l4.902-1.465c1.02-.307.769-1.24-.289-.922l-3.352 1.025-1.55.46-.78.226c-.4.057-.758.244-.998.523l-.937-.144.12.103c.517.42 2.175-.164 1.598-.625v-.01z"/>
        <path d="M194.977 53.286c-1.475-2.67-4.81-4.964-7.022-1.623-1.51 2.352-.889 6.421-.433 8.961.843 4.705 2.434 9.08 2.118 13.914 0 .858 1.381.317 1.65 0 .678-.877 1.219-1.853 1.604-2.894.327-.835-1.37-.693-1.592-.094-.396 1.035-.94 2.005-1.615 2.882h1.65c.281-4.152-.76-7.962-1.661-11.985-.628-2.333-.916-4.746-.855-7.162.14-1.835-.082-2.776 1.966-2.964 1.85-.176 1.767.235 2.598 1.729.304.565 1.943 0 1.556-.694l.036-.07zM199.237 57.229c-.167-.825-.982-1.362-1.823-1.2-.38 0-1.076.156-1.223.552-1.09 2.59-1.44 5.423-1.015 8.195.085.516 1.382 0 1.59-.144 2.675-1.896 3.685-5.339 2.446-8.34-.22-.515-1.761 0-1.774.469-.06 2.358.985 4.614 2.838 6.119.428.348 2.055-.324 1.664-.648-1.782-1.458-2.779-3.64-2.703-5.915l-1.774.468c1.19 2.734.328 5.912-2.092 7.703l1.578-.144c-.418-2.708-.07-5.476 1.003-8.003l-1.223.564c.214-.008.421.074.57.225.15.151.227.357.213.567.11.491 1.884.072 1.773-.468h-.048zM206.222 53.278c-2.234.692-3.057 2.346-3.2 4.387-.105 1.63.09 4.2 2.456 4.33 2.103.128 4.324-1.936 5.473-3.297 1.778-2.11 2.629-4.732 2.391-7.368 0-.493-1.097-.317-1.306-.211-3.201 1.373-4.952 5.866-1.568 8.036 2.3 1.467 6.362.188 6.532-2.499 0-.81-1.868-.516-1.907.165.027.627-.325 1.219-.921 1.547-.596.328-1.343.342-1.953.036-.69-.398-1.188-1.013-1.398-1.724-.684-1.801.176-3.783 2.038-4.693l-1.307-.211c.266 2.995-1.044 5.93-3.54 7.93-.64.505-1.881 1.174-2.613.317-.266-.632-.378-1.308-.326-1.982 0-1.174.117-3.273 1.62-3.731 1.11-.34.836-1.396-.314-1.044l-.157.012zM142.078 202.89c4.075 5.053 9.003 9.15 14.5 12.056.5.268 1.924-.525 1.24-.89-5.413-2.87-10.266-6.91-14.282-11.885-.392-.488-1.893.17-1.458.719z"/>
        <path d="M148.53 218l12.193-.21c.2 0 1.494-.271 1.245-.702-1.682-3.199-4.127-5.943-7.124-7.996-.486-.345-2.117.37-1.681.665 2.938 2 5.34 4.676 7 7.799l1.245-.702-12.193.222c-.61 0-1.93.948-.723.924h.038zM176.39 210.29c0-1.65-1.465-2.408-2.886-2.275-1.656.267-3.103 1.328-3.922 2.876-1.261 2.021-.363 2.623 1.637 3.02 1.74.35 3.637.421 4.07 2.684.138.984-.005 1.99-.41 2.888l-.807 1.372c-.545.312-.66.71-.34 1.203l-1.422.397.182.072c.41.157 1.898-.53 1.33-.746l-.182-.072c-.508-.118-1.039.035-1.42.41-.205.336-.273.336-.126.71.069.168.33.18.478.168 2.58-.241 4.705-3.887 4.398-6.487-.2-1.7-1.5-3.017-3.114-3.152-.29-.027-.578-.07-.864-.133-.704-.24-2.102-.89-2.205-1.865-.193-1.793 3.967-3.249 3.956-.578 0 .374 1.648.109 1.648-.469v-.024zM181.541 211.966c-.579-.873-1.903-.359-2.47.25-.055.056-.08.137-.068.216.58 2.115 1.113 6.405 4.018 5.425.921-.296 1.659-1.04 1.993-2.008.456-1.481-.312-3.142-.368-4.648l-1.614.466 2.338 3.907c.29.502 1.803-.131 1.614-.466l-2.338-3.907c-.267-.442-1.636-.096-1.614.466 0 1.075 1.28 4.78-.244 5.234-.568.167-.646-.359-.857-.849-.212-.49-.334-.896-.49-1.338-.156-.442-.99-2.39-.724-2.724l-.656.382v.227c.267.394 1.825-.167 1.513-.633h-.033zM188.014 208.063l2.69 7.702 1.589-.595c-1.753-2.289-1.515-5.727.533-7.688.704-.633-.93-.57-1.305-.228-1.143 1.014-1.87 2.5-2.013 4.12-.143 1.62.309 3.236 1.253 4.48.272.366 1.77 0 1.588-.583l-2.69-7.7c-.204-.57-1.826 0-1.645.492zM193.008 206.174c.713 2.035 1.239 4.206 1.563 6.454l1.175-.476c-.667-2.43-.59-5.179.21-7.516.284-.854-.899-.793-1.117-.146-.873 2.524-.97 5.496-.268 8.138.195.72 1.288.305 1.175-.476-.335-2.341-.88-4.603-1.62-6.723-.227-.646-1.352 0-1.085.745h-.033zM198.874 206.735c-.804 1.251-1.712 3.219.26 4.057.698.27 1.496.277 2.201.021.706-.256 1.256-.754 1.52-1.373.508-1.39-.36-2.877-1.958-3.354-1.508-.313-3.08.246-3.89 1.386-.13.29 1.66.146 1.854-.28.195-.424.285-.524.713-.413.464.154.846.448 1.077.827.487.728.577 1.603.246 2.392-.03.083-.078.159-.142.224-.22.212-.104.224.337 0-.192-.07-.379-.153-.558-.246-.329-.222-.562-.533-.661-.883-.105-.963.204-1.926.869-2.705.168-.268-.662-.179-.766-.168-.324 0-.907.168-1.089.448l-.013.067z"/>
        <path d="M208.012 204.51c.318-2.753-5.33-1.539-4.707 2.006.259 1.337 1.036 1.783 2.495 1.427 2.353-.58 2.247-2.52 1.647-4.392-.153-.457-1.847 0-1.706.435l1.765 5.573c.553 1.76 1.93 4.458 1.66 6.286-.448 2.987-4.708 3.099-6.99 4.782-.718.535.976.412 1.33.144 2.047-1.515 5.954-1.426 7.19-3.923.811-1.65-.2-3.645-.695-5.238l-2.554-8.081-1.706.434c.612.937.365 1.728-.741 2.397-.365-1.27.07-1.817 1.282-1.627 0 .512 1.636.2 1.695-.246l.035.023zM213.51 202.531c.623-.575.298-1.338-.486-1.498-.963-.17-1.917.34-2.3 1.23-.92 1.927-1.176 4.964.514 6.53.447.414 1.353.133 1.705-.201 1.99-1.66 2.616-4.43 1.528-6.77l-1.88.656 3.517 4.99c.406.575 2.3-.094 1.813-.776l-3.517-4.99c-.352-.509-2.178 0-1.88.642 1.004 1.994.52 4.408-1.177 5.873l1.704-.2c-.824-.813-1.202-1.968-1.015-3.104 0-.696.19-2.676.866-3.01l-1 .267c-.84.776 1.081.843 1.595.374l.014-.013zM215.218 198.919l6.308-2.14c1.074-.365.11-1.006-.78-.698l-6.272 2.14c-1.074.365-.11 1.006.793.698h-.049z"/>
        <path d="M215.133 194.543c-.668 4.737 1.215 9.474 4.923 12.384.27.227 1.6-.114 1.71-.467l1.23-3.544c.087-.264-1.599-.1-1.747.34l-1.23 3.545 1.723-.467c-3.63-2.917-5.45-7.609-4.763-12.283 0-.139-1.71 0-1.784.492h-.062z"/>
        <path d="M223.394 201.303c1.743-1.076 3.275-2.48 4.52-4.138.08-.112.08-.266 0-.379-1.106-.97-2.704-1.05-3.894-.195-1.468.776-2.259 2.466-1.936 4.138.756 3.92 6.124 4.395 7.859 1.001.389-.756-1.322-.598-1.593 0-1.711 3.333-5.534-.451-4.413-3.222.201-.518.567-.949 1.038-1.221.236-.122.65-.28.897-.086.248.196 0 .513-.212.806-.966 1.098-2.088 2.037-3.328 2.784-.99.61.496.927 1.074.573l-.012-.06zM228.19 184.431c-.417 3.193-.145 6.503.778 9.445.107.366 1.106-.171 1.028-.419-.914-2.896-1.189-6.156-.785-9.305.043-.322-.97-.086-1.02.28zM236.465 190.21c-1.557 1.085-2.62 2.71-2.967 4.536-.092.448.556.538.861.512.92-.067 1.826.234 2.51.832.683.598 1.083 1.442 1.106 2.333 0 2.14-1.934 3.151-3.974 3.37-1.006.102-1.536 1.28-.211 1.203 2.86-.281 5.946-1.28 6.198-4.548.225-2.959-2.65-4.573-5.364-4.394l.86.513c.24-1.451 1.051-2.756 2.265-3.639 1.033-.768-.556-1.217-1.231-.717h-.053zM195 233.7c.507 5.239 1.913 10.36 4.159 15.159l1.753-.441c-1.392-2.433-1.609-5.329-.592-7.928.943-2.414 1.583-.174 1.668 1.01.046.79-.081 1.582-.375 2.321-1.052.79-1.148 1.347-.29 1.649l-1.209.626h.206c.556 0 1.886-.777.725-.8h-.218c-.35 0-1.209.185-1.209.626v.267c0 .116.266.163.315.163 3.627.197 5.718-6.964 2.418-8.044-1.366-.257-2.739.413-3.325 1.625-1.4 2.827-1.31 6.126.242 8.88.266.452 1.934 0 1.753-.442-2.246-4.806-3.651-9.936-4.16-15.18 0-.419-1.8-.094-1.752.452l-.109.058zM205.11 237.66c-.78.232-.37-.143-.291.206 0 .142.145.298.198.44.053.142.171.672.264 1.022.092.6.462 1.125 1.003 1.422 1.347.498 2.863.24 3.96-.672.514-.532.786-1.245.753-1.976-.032-.731-.366-1.418-.924-1.904-1.241-1.294-3.3-1.294-4.964-1.113-.238 0-1.096.233-1.109.556-.013.324.555.272.78.246 1.508-.343 3.079.252 3.96 1.5.343.57.752 3.001-.515 2.587-1.03-.297-.925-1.655-1.255-2.457-.33-.802-1.108-.906-1.94-.647-.211 0-.95.259-.858.595.092.336.871.142 1.043.09l-.106.104zM219.518 232.37c-1.546-.404-3.171.253-4.03 1.63-1.332 2.174.32 4.41 1.897 5.85.383.342 1.59.064 1.726-.48 1.035-4.118.408-8.49-1.738-12.13-.296-.517-1.972-.126-1.787.48 1.097 3.652 2.292 7.253 3.611 10.817.222.606 1.985 0 1.788-.493-1.32-3.563-2.466-7.164-3.612-10.803l-1.787.48c2.127 3.562 2.754 7.857 1.738 11.902l1.725-.48c-.879-.682-1.575-1.582-2.021-2.615-.32-.91-.382-3.64 1.393-3.21.53.14 2.083-.707 1.097-.947zM220.112 230.65c1.817 1.143 4.011 1.947 6.383 2.34.661.1 2.218-.594 1.128-.777-2.146-.345-4.133-1.068-5.773-2.103-.532-.339-2.31.182-1.738.54z"/>
        <path d="M222.009 227.608c.71 1.87 7.847 24.895 5.043 24.644-.41 0-1.998.639-1.12.718 2.3.217 3.816-.753 4.032-3.057.301-3.252-1.372-7.314-2.202-10.428-1.108-4.165-2.48-8.26-4.008-12.322-.157-.423-1.89.068-1.745.445z"/>
    </g>
</svg>
