<svg xmlns="http://www.w3.org/2000/svg" width="501" height="199" viewBox="0 0 501 199">
    <g fill="none" fill-rule="evenodd">
        <text fill="#225795" font-family="SFCompactDisplay-Light, SF Compact Display" font-size="8" font-weight="300">
            <tspan x="36.428" y="172">Sound receiving</tspan> <tspan x="44.299" y="182">and playing</tspan>
        </text>
        <text fill="#225795" font-family="SFCompactDisplay-Light, SF Compact Display" font-size="8" font-weight="300">
            <tspan x="137.984" y="187">Display Remote </tspan> <tspan x="145.201" y="197">User’s eyes</tspan>
        </text>
        <text fill="#225795" font-family="SFCompactDisplay-Light, SF Compact Display" font-size="8" font-weight="300">
            <tspan x="211.926" y="152">Front camera captures</tspan> <tspan x="199.26" y="162">Remote User&apos;s viewing screen</tspan>
        </text>
        <text fill="#225795" font-family="SFCompactDisplay-Light, SF Compact Display" font-size="8" font-weight="300">
            <tspan x="289.926" y="187">Front camera captures</tspan> <tspan x="277.26" y="197">Remote User&apos;s viewing screen</tspan>
        </text>
        <text fill="#225795" font-family="SFCompactDisplay-Light, SF Compact Display" font-size="8" font-weight="300">
            <tspan x="342.377" y="167">Display Surrogate’s view</tspan>
        </text>
        <text fill="#225795" font-family="SFCompactDisplay-Light, SF Compact Display" font-size="8" font-weight="300">
            <tspan x="446.428" y="150">Sound receiving</tspan> <tspan x="454.299" y="160">and playing</tspan>
        </text>
        <path stroke="#225795" stroke-linecap="round" stroke-width="2" d="M107.5 150.5L70.5 163.5M229 94L250 144M335 104L329 177M162 145L162 179M380 124L380 158M428 120L474 141"/>
        <g fill-rule="nonzero">
            <g fill="#23548E" opacity=".1">
                <path d="M0.196 2.513L1.22 45.34 86.413 57.813 89.882 55.992 94.326 8.126 2.85 0.642 0.196 2.513 90.495 9.579 94.326 8.126 90.495 9.579 86.413 57.813" transform="translate(401 38)"/>
                <path d="M86.959 57.7l-.135-.28 2.721-1.428.141.28-2.727 1.429zm-3.065-.1l-3.064-.442.043-.312 3.064.443-.043.312zm2.74-.623h-.307l.264-3.118h.306l-.263 3.118zm-8.795-.262l-3.065-.449.043-.305 3.034.442-.012.312zm-6.068-.892l-3.065-.442.043-.312 3.034.449-.012.305zm-6.068-.885l-3.034-.45.043-.305 3.065.443-.074.312zm-6.068-.892l-3.033-.443.043-.305 3.064.442-.074.306zm30.676-.836h-.306l.288-3.118.306.031-.288 3.087zm-36.774-.05l-3.028-.442.043-.312 3.065.443-.08.311zm-6.062-.891l-3.064-.443.043-.306 3.034.443-.013.306zm-6.067-.886l-3.065-.443.043-.312 3.034.45-.012.305zm45.735-.592h-.307l.264-3.119h.306l-.263 3.119zm-51.785-.275l-3.064-.449.043-.305 3.064.442-.043.312zm-6.067-.892l-3.034-.442.043-.312 3.064.449-.073.305zm-6.068-.885l-3.028-.443.043-.312 3.028.443-.043.312zm-6.062-.91l-3.064-.444.043-.305 3.064.443-.043.305zm73.714-.83l-.306-.031.288-3.119h.306L90.875 47zm-79.781-.056L8.029 46.5l.043-.312 3.034.443-.012.312zm-6.068-.892l-3.065-.443.043-.306 3.034.443-.012.306zm82.662-1.472h-.306l.263-3.118h.307l-.264 3.118zM1.011 43.032l-.073-3.118h.306l.074 3.118H1.01zm90.44-2.251h-.306l.288-3.118.306.03-.288 3.088zm-3.236-2.426h-.306l.263-3.118h.307l-.264 3.118zm-87.35-1.56l-.08-3.118h.306l.08 3.119H.864zm91.162-2.226h-.306l.288-3.118h.306l-.288 3.118zm-3.285-2.432h-.306l.263-3.118h.3l-.257 3.118zM.711 30.559l-.074-3.118h.307l.073 3.118H.711zm91.893-2.201h-.307l.288-3.119h.307l-.288 3.119zm-3.34-2.433h-.301l.263-3.118h.3l-.263 3.118zm-88.7-1.602L.49 21.204h.307l.073 3.119H.564zm92.597-2.158l-.306-.031.288-3.119h.306l-.288 3.15zm-3.39-2.439h-.306l.264-3.118.306.031-.263 3.087zM.418 18.086l-.074-3.118H.65l.073 3.118H.417zm93.357-2.133h-.306l.288-3.118h.306l-.288 3.118zm-3.438-2.445h-.307l.264-3.118h.306l-.263 3.118zM.264 11.85L.19 8.731h.306L.57 11.85H.264zm94.068-2.12h-.307l.13-1.36-1.478.568-.11-.293 1.06-.406-.784-.062v-.312l1.63.131-.141 1.734zm-4.064 0l-3.064-.243V9.18l3.064.237v.312zm-6.129-.48l-3.064-.237V8.7l3.064.237v.312zm-6.129-.48l-3.064-.237V8.22l3.064.237v.312zm-6.129-.474l-3.064-.244V7.74l3.064.243v.312zM89.73 7.92l-3.064-.249v-.312l3.064.25v.311zm-23.958-.106l-3.065-.237v-.311l3.065.237v.311zm17.847-.399l-3.064-.25V6.86l3.064.25v.305zm-23.958-.08l-3.065-.238v-.312l3.065.237v.312zm17.854-.419l-3.065-.25v-.31l3.065.249v.311zm-23.965-.062l-3.064-.237v-.312l3.064.243v.306zm17.854-.437l-3.064-.249v-.312l3.064.25v.311zM47.44 6.38l-3.065-.243V5.83l3.065.237v.312zm17.854-.462l-3.065-.249v-.312l3.065.25v.311zm-23.965 0l-3.064-.236V5.37l3.064.237v.311zM.116 5.613L.043 2.495h.306l.074 3.118H.116zm35.15-.225l-3.064-.237V4.84l3.064.243v.305zm23.971 0l-3.064-.25v-.31l3.064.249v.311zm-30.081-.474l-3.065-.243V4.36l3.065.244v.311zm23.97 0l-3.064-.25v-.31l3.064.249v.311zm-30.08-.455l-3.065-.237V3.91l3.064.237v.312zm23.976-.044l-3.065-.249v-.312l3.065.25v.311zM16.935 3.98l-3.065-.237V3.43l3.065.237v.312zM40.91 3.91l-3.064-.25v-.305l3.064.25v.305zm-30.087-.405l-3.065-.243V2.95l3.065.243v.312zM34.8 3.41l-3.065-.25v-.31l3.065.255v.305zM4.713 3.025L1.65 2.788v-.312l3.064.237v.312zm23.977-.113l-3.065-.249v-.312l3.065.25v.311zm-6.129-.498l-3.065-.25v-.312l3.065.25v.312zm-6.13-.5l-3.064-.249v-.312l3.065.25v.312zM1.546 1.722l-.178-.255L2.764.48l1.471.125v.312L2.875.805l-1.33.916zm8.776-.305l-3.064-.25V.854l3.064.25v.312z" transform="translate(401 38)"/>
                <path d="M0.84 2.675L1.857 45.377 86.438 57.813 90.495 9.723z" transform="translate(401 38)"/>
                <path d="M84.642 57.707l-3.065-.45.05-.305 3.027.443-.012.312zm-6.062-.892l-3.064-.449.043-.306 3.034.443-.013.312zm8.121-.28h-.306l.263-3.119h.307l-.264 3.118zm-14.188-.624l-3.034-.45.043-.305 3.064.443-.073.312zm-6.068-.892l-3.034-.45.043-.305 3.064.443-.073.312zm-6.068-.892l-3.064-.449.049-.306 3.064.443-.049.312zm-6.062-.892l-3.064-.449.043-.305 3.064.442-.043.312zm-6.067-.892l-3.065-.449.043-.305 3.034.443-.012.311zm-6.068-.891l-3.065-.45.05-.305 3.027.443-.012.312zm-6.068-.892l-3.027-.45.042-.305 3.065.443-.08.312zm51.116-.25h-.306l.263-3.118h.3l-.257 3.118zm-57.177-.623l-3.034-.45.043-.305 3.064.443-.073.312zm-6.068-.892l-3.065-.45.043-.305 3.065.443-.043.312zm-6.068-.892l-3.064-.449.049-.306 3.027.443-.012.312zm-6.061-.892l-3.065-.449.043-.305 3.034.442-.012.312zm-6.068-.892L2.72 45.67l.043-.305 3.065.443-.043.311zm81.963-2.002h-.306L87.706 41h.307l-.264 3.118zm-86.1-.904l-.074-3.118h.307l.073 3.118H1.65zm86.61-5.32h-.307l.263-3.118h.307l-.264 3.118zM1.482 36.97l-.073-3.118h.306l.074 3.118h-.307zm87.296-5.288h-.306l.263-3.119h.307l-.264 3.119zm-87.443-.948l-.073-3.119h.306l.074 3.119h-.307zm87.97-5.264H89l.263-3.118h.307l-.264 3.118zm-88.08-.967l-.074-3.118h.307l.073 3.118h-.306zm88.638-5.25h-.307l.264-3.119h.306l-.263 3.118zM1.06 18.266l-.073-3.118h.306l.074 3.118H1.06zm89.313-5.226h-.307l.264-3.119h.306l-.263 3.119zM.889 12.03l-.08-3.119h.306l.08 3.118H.89zm86.756-2.377l-3.064-.243v-.306l3.064.237v.312zm-6.129-.48l-3.064-.243v-.306l3.064.237v.312zm-6.129-.48l-3.064-.243v-.306l3.064.237v.312zm-6.129-.48l-3.064-.244v-.305l3.064.237v.312zm-6.129-.48l-3.064-.244v-.305l3.064.237v.311zM57 7.253l-3.065-.244v-.306L57 6.941v.312zm-6.129-.481l-3.065-.243v-.312l3.065.243v.312zm-6.13-.48l-3.064-.244v-.311l3.065.243v.312zm-6.128-.48l-3.065-.244v-.312l3.065.244v.311zm-38 0l.073-3.318 1.41.112v.312L1.024 2.83l.067 2.944-.478.037zm31.87-.462l-3.064-.243v-.312l3.065.243v.312zm-6.128-.48l-3.065-.243v-.312l3.065.243v.312zm-6.13-.48l-3.064-.244v-.312l3.065.244v.312zm-6.128-.48l-3.065-.244v-.312l3.065.243v.312zm-6.13-.48l-3.064-.244v-.312l3.065.243v.312z" transform="translate(401 38)"/>
            </g>
            <path fill="#23548E" d="M84.864 160L83 43.125l.286-.03L211 31l-.963 88.219-.236.068L84.864 160zM83.62 43.687l1.864 115.466 123.95-40.386.95-87.087L83.621 43.687z"/>
            <path fill="#23548E" d="M107.589 133L107 54.79l.273-.036L195 44v.348l-.818 63.9L107.59 133zm.055-77.666l.577 76.853 85.335-24.403.824-63.112-86.736 10.662z"/>
            <path fill="#23548E" d="M108.173 132L108 131.417 191.582 108 194 108.832 193.796 109.402 191.563 108.637z"/>
            <path fill="#23548E" d="M159.72 75.137L222.97 75.136 222.97 75.753 159.72 75.754z" transform="rotate(-89.38 191.345 75.445)"/>
            <path fill="#23548E" d="M83.797 160L1.864 131.345 1.858 131.129 0 66.805 30.307 72.608 29.034 2 70.145 2.71 44.224 44.613 44.39 44.891 69.763 4.043 70.28 4.37 44.378 46.07 43.504 44.607 69.049 3.309 29.661 2.623 30.935 73.355 0.634 67.558 2.467 130.9 84 159.42z"/>
            <path fill="#23548E" d="M45 110v-2.72l.056-.08 25.532-36.331-.71-67.504h.31L198 1v31.296h-.617V1.652L70.503 3.974l.684 66.988c0 .1 0 .1-25.594 36.517v.553l25.594-36.63.16 15.87 8.514 1.31-.463-45.545h2.864v.62h-2.24l.462 45.644-9.747-1.49-.142-14.471L45 110zM69.556 3L69.544 2.381 172.934.699 163.345.619 29.006 2.307 29 1.689 163.345 0 198 .291 198 .909z"/>
            <path fill="#23548E" d="M71.008 86.027L80.318 86.026 80.317 86.644 71.008 86.645z" transform="rotate(-12.29 75.663 86.336)"/>
            <path fill="#23548E" d="M80.909 87L75 86.125 80.875 85 81 85.49 78.006 86.06 81 86.505zM.092 67L0 66.412 9.534 65.006 30 65 30 65.593 9.577 65.593z"/>
            <path fill="#23548E" d="M106.797 61.413L191.814 61.407 191.814 62.025 106.797 62.031z" transform="rotate(-7.63 149.306 61.72)"/>
            <path fill="#23548E" d="M70.012 72L70 70.144 70.587 70.138 70.593 71.252 78.924 70 79 70.649zM80.055 44L80 43.345 206.578 30 209 30.563 208.864 31.205 206.541 30.662zM41.466 146L40 84.211 69.501 42 70 42.362 40.608 84.405 42.074 145.981zM200.356 61h-.09c-1.393-.099-2.387-2.151-2.254-4.673.034-1.101.328-2.17.85-3.09.385-.774 1.098-1.247 1.867-1.237 1.398.1 2.392 2.145 2.26 4.667-.035 1.101-.33 2.17-.852 3.09-.38.732-1.047 1.197-1.78 1.243zm.266-8.388c-.557.056-1.056.425-1.334.99-.463.821-.726 1.774-.76 2.756-.107 2.108.701 3.944 1.76 4.018.583-.019 1.116-.392 1.403-.983.462-.82.723-1.771.755-2.75.111-2.102-.697-3.938-1.76-4.012l-.064-.019z"/>
            <path fill="#23548E" d="M198.653 60l-.653-.257c1.034-2.097 1.449-4.388 1.205-6.662l.718-.081c.269 2.39-.168 4.8-1.27 7z"/>
            <path fill="#23548E" d="M195.811 0.783L197.873 0.782 197.873 1.4 195.811 1.4z" transform="rotate(-28.97 196.842 1.091)"/>
            <g>
                <path fill="#23548E" d="M122.787 28.757c-.137.003-.272-.04-.382-.124-.19-.148-.297-.377-.29-.618.018-.492.325-.926.783-1.105.208-.072.437-.04.617.086.19.149.297.378.29.618-.017.492-.325.926-.783 1.106-.076.024-.155.036-.235.037zm.346-1.433c-.033-.006-.066-.006-.099 0-.269.111-.447.37-.457.66-.008.096.028.19.1.254.067.033.147.033.215 0 .267-.114.444-.371.457-.661.009-.095-.028-.19-.099-.253-.032-.01-.067-.01-.099 0h-.018zM119.276 21.003c-.181.002-.358-.054-.506-.16-.244-.2-.38-.5-.37-.816.013-.658.43-1.241 1.05-1.464.272-.095.573-.052.807.118.245.197.38.5.365.815-.014.657-.428 1.238-1.043 1.464-.098.029-.2.043-.303.043zm.47-2.026c-.054-.005-.108-.005-.161 0-.424.166-.709.57-.722 1.026-.01.169.058.333.185.444.117.078.264.094.395.044.42-.17.702-.572.716-1.026.012-.166-.054-.328-.18-.439-.07-.04-.152-.057-.234-.049z" transform="translate(108 73)"/>
                <path fill="#23548E" d="M120.547 21.003c-.18.001-.358-.055-.505-.16-.244-.2-.381-.5-.37-.816.012-.658.43-1.241 1.048-1.464.273-.095.575-.052.809.118.244.197.38.5.364.815-.014.657-.428 1.238-1.043 1.464-.098.03-.2.044-.303.043zm.47-2.026c-.054-.005-.108-.005-.161 0-.422.169-.705.57-.722 1.026-.01.169.058.333.185.444.117.078.264.094.395.044.423-.167.705-.57.716-1.026.012-.166-.054-.328-.18-.439-.07-.04-.152-.058-.234-.049z" opacity=".8" transform="translate(108 73)"/>
                <path fill="#23548E" d="M7.719 69.754c-.914.02-1.81-.25-2.56-.772-1.032-.79-1.61-2.037-1.55-3.336 0-3.09 2.697-6.444 5.973-7.463 1.475-.555 3.126-.371 4.443.494 1.018.791 1.588 2.028 1.53 3.318 0 3.045-2.653 6.381-5.88 7.413-.63.216-1.29.333-1.956.346zM11.42 58.35c-.582.005-1.16.098-1.715.278-3.085.963-5.64 4.114-5.652 7.024-.06 1.148.448 2.252 1.357 2.953 1.227.78 2.754.922 4.103.383 3.086-.995 5.554-4.133 5.554-6.993.06-1.142-.443-2.24-1.345-2.941-.667-.472-1.467-.719-2.283-.704h-.019zM108.676 3.248h-.26v-.26c.027-.33.26-.608.58-.692l3.703-.994c.157-.048.328-.02.463.074.095.08.157.192.173.315l.246.229-.388.123-4.517 1.205zM95.132 6.911l-.185-.13-.03-.148c.03-.344.28-.63.616-.704l7.51-2.032c.159-.054.334-.026.469.074.099.076.163.19.178.315l.253.228-.394.124-8.417 2.273zM84.273 9.852l-.198-.13v-.148c.032-.346.28-.634.617-.717l7.8-2.106c.164-.048.341-.019.48.08.098.078.16.191.174.315l.055.05-.08.271-8.848 2.385zM95.182 67.184c-.111.002-.22-.032-.309-.099-.126-.083-.2-.225-.197-.377v-.216l.222-.074 8.274-3.015h.043l2.265-.34-2.043.748c-.058.263-.243.48-.493.58l-7.54 2.762c-.071.025-.147.036-.222.031z" transform="translate(108 73)"/>
                <path fill="#23548E" d="M6.83 97.432c-2.763.11-5.224-1.737-5.892-4.424l-.037-.05c-.26-.66-.691-2.297-.68-5.875l.081-16.167v-.05c.17-2.032.184-4.075.044-6.11l-.044-.03.08-17.188c0-.24 0-.513.031-.803.031-.29.044-.698.044-1.075v-.902-.828c.05-1.376.276-2.74.672-4.059h.247l-.222-.062c.984-3.588 3.39-6.618 6.657-8.39l.982-.518c1.504-.646 3.052-1.183 4.633-1.607l35.306-9.711 68.15-18.392c1.1-.31 2.225-.517 3.363-.618h.722c2.308.068 4.122 1.717 4.739 4.324v.075c.148.45.463 1.785.45 4.942l-.13 33.732c.054 1.745-.105 3.49-.474 5.196-.554 2.935-2.205 5.549-4.616 7.308l-.697.47c-1.086.596-2.217 1.108-3.381 1.532L88.129 68.747 13.321 95.93c-1.506.562-3.053 1.008-4.627 1.335l-1 .111c-.287.033-.575.052-.864.056zM1.308 92.73l.043.099c.796 2.86 3.196 4.417 6.282 4.077l.98-.105c1.543-.322 3.059-.76 4.536-1.31l75.35-27.386 28.186-10.398c1.138-.411 2.241-.911 3.301-1.495l.679-.457c2.331-1.671 3.938-4.17 4.492-6.988V48.7c.356-1.67.509-3.377.456-5.084l.13-33.726c0-3.268-.333-4.522-.438-4.831v-.086c-.562-2.36-2.215-3.868-4.32-3.93l-.666-.037c-1.1.105-2.19.311-3.252.618l-68.15 18.41-35.312 9.7c-1.552.417-3.071.945-4.547 1.582l-.969.512c-3.158 1.708-5.48 4.634-6.43 8.1v.068c-.39 1.285-.612 2.617-.66 3.96v1.717c0 .334 0 .754-.043 1.094-.043.34-.03.543-.03.778L.79 64.64c.247.982.123 5.517-.031 6.363L.685 87.108c-.012 3.478.413 5.06.623 5.622z" transform="translate(108 73)"/>
                <path fill="#23548E" d="M7.164 96.542c-2.525.097-4.768-1.6-5.362-4.059l-.05-.086c-.24-.618-.648-2.163-.617-5.622l.18-39.311v-.97V45.4c0-.376 0-.766.042-1.124.044-.358.031-.531.037-.754.053-1.224.26-2.436.617-3.608l.05-.148c.888-3.254 3.063-6.005 6.022-7.617l.944-.5c1.447-.621 2.936-1.14 4.455-1.552l36.12-9.94 67.342-18.256c1.053-.303 2.13-.51 3.22-.618h.698c2.098.062 3.745 1.563 4.32 3.917l.03.142c.124.34.432 1.582.42 4.72l-.13 33.763c.052 1.672-.097 3.343-.444 4.98v.086c-.524 2.672-2.044 5.044-4.251 6.635l-.673.445c-1.04.572-2.123 1.061-3.24 1.464L87.785 68.13 13.37 95.096c-1.447.536-2.932.964-4.443 1.28l-.962.104c-.266.037-.534.057-.802.062zm-4.992-4.325l.08.167c.71 2.564 2.875 3.979 5.64 3.707l.938-.105c1.48-.302 2.937-.715 4.356-1.236l74.431-27.022 29.111-10.7c1.089-.391 2.145-.866 3.16-1.422l.653-.438c2.108-1.514 3.558-3.777 4.054-6.326v-.105c.338-1.604.483-3.243.432-4.881l.13-33.763c0-3.157-.309-4.325-.408-4.615v-.136c-.512-2.144-1.999-3.509-3.874-3.565h-.673c-1.044.102-2.076.297-3.085.581L49.664 20.602l-36.04 9.946c-1.496.399-2.96.907-4.381 1.52l-.926.488c-2.846 1.55-4.936 4.197-5.787 7.327l-.062.186c-.34 1.13-.534 2.299-.58 3.478 0 .21 0 .476-.037.754s-.043.723-.043 1.1V47.463l-.18 39.317c-.06 3.429.353 4.911.544 5.412v.024z" transform="translate(108 73)"/>
                <path fill="#23548E" d="M17.684 91.044v-.328l.265-59.346L113.834 4.88l-.203 51.599-95.947 34.566zm.728-59.31l-.26 58.692 95.022-34.233.198-50.66-94.96 26.202z" transform="translate(108 73)"/>
                <path fill="#23548E" d="M17.622 91.488c-.086.001-.17-.025-.24-.074-.112-.08-.176-.209-.173-.346L17.48 31.5c.01-.271.195-.504.457-.575l95.75-26.398c.122-.037.256-.01.356.07.1.079.156.203.15.331l-.204 51.42c-.006.232-.15.439-.364.525L17.807 91.47c-.06.018-.123.024-.185.018zm.333-60.025c-.005.012-.005.025 0 .037l-.271 59.506.271-59.543zm.457.265l-.26 58.692 95.022-34.233.198-50.66-94.96 26.201zM119.381 33.749c-.104 0-.205-.032-.29-.093-.14-.109-.221-.279-.216-.457V24.92c.013-.342.23-.644.55-.766.159-.051.333-.024.468.074.14.11.218.28.21.458l-.03 8.266c-.005.343-.221.648-.544.766-.048.016-.097.027-.148.03zm.266-9.15c-.155.035-.268.169-.278.327v8.353h.056c.13-.058.215-.185.222-.327l.03-8.266c.025-.038-.018-.068-.03-.075V24.6z" transform="translate(108 73)"/>
                <path fill="#23548E" d="M119.338 33.749c-.104.001-.206-.031-.29-.093-.143-.107-.224-.278-.216-.457l.031-8.279c.007-.344.226-.648.55-.766.158-.05.33-.025.468.068.139.113.217.285.21.464l-.031 8.266c-.006.343-.222.646-.543.766-.058.019-.118.03-.179.03zm.265-9.15c-.155.03-.269.163-.277.321l-.031 8.279v.08h.055c.132-.06.219-.189.223-.333l.03-8.267c.025-.03.013-.061 0-.068V24.6z" transform="translate(108 73)"/>
                <path fill="#040000" d="M119.338 33.749c-.104.001-.206-.031-.29-.093-.143-.107-.224-.278-.216-.457l.031-8.279c.007-.344.226-.648.55-.766.158-.05.33-.025.468.068.139.113.217.285.21.464l-.031 8.266c-.006.343-.222.646-.543.766-.058.019-.118.03-.179.03zm.265-9.15c-.155.03-.269.163-.277.321l-.031 8.279v.08h.055c.132-.06.219-.189.223-.333l.03-8.267c.025-.03.013-.061 0-.068V24.6z" opacity=".9" transform="translate(108 73)"/>
                <path fill="#23548E" d="M119.313 33.786c-.104.001-.205-.031-.29-.093-.142-.11-.223-.283-.216-.463l.031-8.273c.006-.345.225-.65.55-.766.158-.054.332-.029.468.068.14.11.218.28.21.457v8.273c-.006.343-.222.647-.543.766-.067.022-.138.033-.21.03zm.266-9.156c-.156.033-.27.168-.278.327l-.03 8.279v.08h.055c.13-.061.215-.19.222-.333v-8.267c.02-.024.031-.054.03-.086z" opacity=".5" style="mix-blend-mode:multiply" transform="translate(108 73)"/>
            </g>
            <g fill="#23548E" opacity=".1">
                <path d="M0.702 26.989L0.438 86.503 95.797 51.902 96.001 0.466z" transform="translate(129 83)"/>
                <path d="M.616 86.024H.308v-3.107h.308v3.107zm2.348-.26l-.105-.293 2.896-1.056.105.292-2.896 1.056zm5.799-2.107l-.105-.292 2.896-1.05.105.291-2.896 1.05zm5.798-2.107l-.105-.292 2.897-1.05.104.292-2.896 1.05zM.616 79.81H.308v-3.107h.308v3.107zm19.72-.36l-.106-.292 2.897-1.05.104.291-2.896 1.05zm5.798-2.107l-.105-.292L28.925 76l.105.292-2.896 1.05zm5.798-2.1l-.104-.292 2.896-1.05.105.291-2.897 1.05zM.647 73.596H.339v-3.107h.308v3.107zm37.084-.46l-.105-.292 2.897-1.05.104.292-2.896 1.05zm5.799-2.1l-.105-.293 2.896-1.056.105.292-2.896 1.056zm5.792-2.107l-.098-.292 2.896-1.05.104.292-2.902 1.05zM.641 67.382H.333v-3.108H.64v3.108zm54.455-.554l-.105-.292 2.897-1.056.104.292-2.896 1.056zm5.793-2.106l-.105-.292 2.933-1.044.105.292-2.933 1.044zm5.798-2.1l-.105-.299 2.903-1.05.105.292-2.903 1.056zM.672 61.166H.364V58.06h.308v3.107zm71.814-.652l-.105-.292 2.902-1.05.105.291-2.902 1.05zm5.798-2.107l-.104-.292 2.902-1.05.105.292-2.903 1.05zm5.799-2.1l-.105-.292 2.903-1.05.104.291-2.902 1.05zM.696 54.953H.388v-3.107h.308v3.107zm89.186-.752l-.105-.292 2.902-1.05.105.292-2.902 1.05zm5.798-2.1l-.105-.292h.037v-2.853h.309v3.07l-.24.075zM.727 48.739H.42v-3.107h.308v3.107zm95.218-2.902h-.308v-3.108h.308v3.108zM.752 42.524H.444v-3.107h.308v3.107zm95.218-2.902h-.308v-3.107h.308v3.107zM.783 36.31H.474v-3.107h.309v3.107zm95.211-2.902h-.308v-3.107h.308v3.107zM.807 30.096H.5V26.87l2.157-.622.08.305-1.929.534v3.008zm95.212-2.902h-.308v-3.107h.308v3.107zM5.725 25.746l-.08-.305 2.97-.826.08.304-2.97.827zm5.94-1.653l-.08-.305 2.97-.826.08.304-2.97.827zm5.94-1.653l-.08-.305 2.97-.826.08.304-2.97.827zm78.439-1.46h-.308v-3.108h.308v3.107zm-72.498-.193l-.08-.305 2.97-.826.08.304-2.97.827zm5.94-1.653l-.08-.305 2.97-.826.08.304-2.97.827zm5.94-1.653l-.08-.305 2.97-.826.08.304-2.97.827zm5.94-1.653l-.08-.305 2.97-.826.08.304-2.97.827zm54.764-1.063h-.308v-3.107h.308v3.107zm-48.761-.59l-.08-.305 2.933-.82.086.298-2.94.827zm5.94-1.66l-.08-.298 2.964-.826.086.298-2.97.827zm5.94-1.652l-.092-.299 2.97-.826.086.298-2.964.827zm5.94-1.653l-.086-.299 2.97-.826.087.298-2.97.827zm30.941-.66h-.308V5.445h.308V8.55zm-25.025-.993l-.086-.299 2.97-.826.087.298-2.97.827zm5.922-1.653l-.086-.299 2.97-.826.086.298-2.97.827zm5.94-1.653l-.086-.299 2.97-.826.087.298-2.97.827zm5.941-1.653l-.086-.299 2.97-.826.086.298-2.97.827zm7.228-.261h-.308V.67l-.986.274-.086-.299 1.38-.385v2.076z" transform="translate(129 83)"/>
            </g>
            <path fill="#23548E" d="M349 84l-4-1.047v-.473c-.003-.15.065-.293.182-.384.111-.09.259-.119.395-.077l2.987.78c.265.072.445.317.436.592V84zM355 85l-3-.972v-.514c0-.16.058-.313.158-.413.098-.094.226-.124.345-.083l2.12.686c.229.077.385.34.377.635V85zM364 87l-3-.974v-.516c-.002-.158.053-.308.15-.408.098-.096.226-.126.345-.082l2.12.691c.225.076.378.337.37.629L364 87zM333 116l-.613-.18c-.24-.073-.398-.296-.386-.543v-5.845c-.003-.138.06-.269.17-.353.11-.077.248-.1.376-.06l.453.13V116zM413 145l-68-20.86V85l67.981 17.923L413 145zm-67.382-21.316l66.764 20.482v-40.742l-66.746-17.62-.018 37.88z"/>
            <path fill="#23548E" d="M421.665 152c-.753-.007-1.501-.125-2.22-.352l-81.261-25.11c-3.518-1.083-6.183-5.028-6.183-9.164V85.931c-.025-1.524.66-2.974 1.855-3.926 1.283-.952 2.94-1.248 4.476-.8l81.243 21.036c4.087 1.058 7.42 5.255 7.42 9.348v34.791c.08 1.789-.712 3.506-2.127 4.61-.932.669-2.054 1.023-3.203 1.01zm-2.034-.936c1.855.578 3.61.375 4.897-.573 1.249-.991 1.94-2.523 1.854-4.11v-34.792c0-3.834-3.09-7.76-6.943-8.751l-81.224-21.036c-1.347-.402-2.805-.147-3.932.689-1.051.832-1.654 2.103-1.633 3.44v31.443c0 3.884 2.473 7.57 5.732 8.58l81.25 25.11z"/>
            <path fill="#23548E" d="M420.656 131c-.426-.005-.85-.072-1.258-.2-2.505-.861-4.252-3.274-4.395-6.07-.045-1.168.438-2.289 1.299-3.014.947-.716 2.158-.908 3.26-.517 2.527.842 4.297 3.268 4.435 6.083.046 1.172-.44 2.295-1.305 3.02-.588.464-1.304.71-2.036.698zm-1.095-.797c.934.346 1.966.198 2.78-.399.717-.609 1.115-1.547 1.07-2.522-.128-2.54-1.726-4.727-4.008-5.485-.926-.334-1.946-.182-2.75.41-.712.613-1.107 1.55-1.065 2.522.134 2.523 1.713 4.698 3.973 5.474zM340.189 108c-.091-.002-.182-.019-.268-.05-.542-.215-.91-.797-.92-1.457v-6.469c-.01-.325.113-.635.334-.839.213-.177.486-.23.739-.145.544.213.914.795.925 1.457v6.482c.01.324-.113.635-.334.838-.137.12-.304.184-.476.183zm-.367-8.367c-.055-.002-.11.018-.153.057-.082.084-.125.208-.115.334v6.469c.011.387.229.726.547.851.083.047.18.047.263 0 .08-.088.123-.213.115-.34v-6.526c-.01-.386-.229-.723-.547-.845-.037-.008-.074-.008-.11 0z"/>
            <path fill="#23548E" d="M420.023 129c-.115.001-.23-.013-.34-.042l-1.534-.388c-.66-.18-1.12-.708-1.148-1.317v-1.364c-.014-.28.129-.548.38-.718.27-.17.614-.216.929-.126l1.534.383c.662.179 1.125.706 1.154 1.316v1.37c.016.234-.081.463-.267.631-.185.169-.442.26-.708.255zm-.173-.525c.137.044.29.029.41-.042.1-.074.153-.185.144-.299v-1.369c-.029-.375-.314-.698-.72-.813l-1.535-.383c-.137-.045-.29-.03-.41.042-.1.074-.153.185-.143.3v1.363c.029.374.31.695.714.813l1.54.388zM336.177 104c-.088 0-.176-.01-.261-.032-.542-.168-.909-.63-.915-1.151-.01-.26.114-.508.336-.671.214-.142.489-.183.741-.111.544.168.912.629.921 1.151.01.26-.114.508-.336.671-.14.095-.311.145-.486.143zm-.354-1.474c-.05-.001-.1.014-.139.042-.075.064-.113.156-.104.249.009.286.205.54.498.644.08.025.167.015.238-.026.073-.065.11-.156.104-.249-.009-.286-.205-.54-.498-.644-.029-.008-.058-.013-.087-.016h-.012z"/>
            <path fill="#23548E" d="M335.174 104c-.086 0-.172-.011-.255-.032-.54-.17-.906-.628-.918-1.15-.01-.26.113-.51.335-.674.214-.14.487-.18.74-.11.543.168.913.63.924 1.154-.002.26-.137.503-.364.66-.133.093-.294.147-.462.152zm-.353-1.471c-.047 0-.094.012-.133.037-.078.064-.118.158-.11.253.012.285.207.537.497.643.08.025.167.016.237-.026.077-.063.118-.154.11-.248-.011-.287-.209-.54-.503-.643-.031-.011-.064-.016-.098-.016z" opacity=".8"/>
            <path fill="#23548E" d="M492 47L428 105M429.206 104l-.206-.235 2.324-2.06.206.228-2.324 2.067zm4.649-4.134l-.206-.229 2.324-2.067.212.23-2.33 2.066zm4.655-4.134l-.213-.229 2.33-2.067.207.23-2.324 2.066zm4.648-4.128l-.206-.235 2.3-2.03.212.23-2.306 2.035zm4.655-4.121l-.212-.23 2.33-2.066.206.229-2.324 2.067zm4.649-4.134l-.206-.23 2.324-2.066.206.229-2.324 2.067zm4.655-4.128l-.213-.235 2.33-2.06.207.228-2.324 2.067zm4.648-4.134l-.206-.229 2.324-2.067.207.23-2.325 2.066zm4.655-4.134l-.212-.229 2.324-2.067.212.23-2.324 2.066zm4.649-4.127l-.206-.236 2.324-2.06.206.229-2.324 2.067zm4.655-4.134l-.213-.23 2.324-2.066.213.229-2.324 2.067zm4.648-4.134l-.206-.23 2.324-2.066.207.229-2.325 2.067zm4.649-4.128l-.206-.235 2.299-2.073.212.229-2.305 2.079zm4.655-4.134l-.213-.229 2.33-2.067.207.229-2.324 2.067zM487 96L425 149M425.206 149l-.206-.226.625-.567.206.232-.625.561zm3.012-2.567l-.206-.232 2.35-2.006.206.225-2.35 2.013zm4.7-4.02l-.206-.23 2.324-1.977.207.232-2.325 1.976zm4.706-4.012l-.207-.232 2.35-2.006.206.226-2.35 2.012zm4.7-4.019l-.207-.231 2.35-2.007.206.232-2.35 2.006zm4.705-4.018l-.206-.226 2.35-2.012.206.231-2.35 2.007zm4.7-4.013l-.207-.232 2.356-2.006.207.232-2.356 2.006zm4.705-4.019l-.206-.225 2.35-2.013.206.232-2.35 2.006zm4.7-4.012l-.206-.232 2.356-2.006.206.225-2.356 2.013zm4.706-4.02l-.207-.225 2.35-2.012.206.232-2.35 2.006zm4.7-4.012l-.207-.232 2.356-2.006.206.226-2.356 2.012zm4.705-4.019l-.213-.213 2.35-2.006.206.231-2.343 1.988zm4.7-4.018l-.207-.226 2.356-2.006.206.225-2.356 2.007zm4.705-4.013l-.206-.232 2.35-2.006.206.232-2.35 2.006zM332 81L400 42M332.161 81l-.161-.263 2.673-1.546.162.263L332.16 81zm5.347-3.098l-.161-.263 2.673-1.546.161.263-2.673 1.546zm5.346-3.098l-.16-.263 2.673-1.552.155.268-2.668 1.547zm5.34-3.099l-.154-.263 2.673-1.552.155.263-2.673 1.552zm5.347-3.098l-.155-.263 2.674-1.552.155.263-2.674 1.552zm5.347-3.098l-.155-.263 2.673-1.552.155.263-2.673 1.552zm5.347-3.105l-.162-.262 2.674-1.546.161.262-2.673 1.546zm5.346-3.098l-.161-.263 2.673-1.546.162.263-2.674 1.546zm5.347-3.086l-.161-.263 2.673-1.57.155.263-2.667 1.57zm5.34-3.098l-.155-.263 2.674-1.552.155.263-2.674 1.552zm5.347-3.098l-.155-.263 2.673-1.552.155.262-2.673 1.553zm5.365-3.11l-.155-.27 2.636-1.546.155.263-2.636 1.552zm5.347-3.105l-.162-.263L398.84 42l.161.263-2.673 1.546z"/>
            <g fill="#23548E" opacity=".1">
                <path d="M0.204 0.037L0.192 38.975 67.623 59.881 67.629 18.019z" transform="translate(340 90)"/>
                <path d="M66.764 59.775l-2.955-.919.086-.3 2.955.919-.086.3zm-5.91-1.831l-2.961-.919.092-.3 2.955.919-.086.3zm6.936-.313h-.31v-3.125h.31v3.125zm-12.852-1.525l-2.955-.912.093-.3 2.942.919-.08.293zm-5.91-1.831l-2.955-.913.093-.3 2.955.913-.093.3zm-5.91-1.831l-2.936-.919.093-.294 2.954.913-.11.3zM67.79 51.38h-.31v-3.125h.31v3.125zm-30.594-.756l-2.955-.919.093-.294 2.955.913-.093.3zm-5.91-1.831l-2.955-.919.093-.3 2.955.919-.093.3zm-5.91-1.831l-2.955-.92.093-.3 2.955.92-.093.3zm42.401-1.82h-.309V42.02h.31v3.125zm-48.31 0l-2.955-.912.092-.3 2.955.919-.092.294zm-5.91-1.83l-2.955-.913.093-.3 2.954.913-.092.3zm-5.91-1.832l-2.955-.919.093-.293 2.955.912-.093.3zm-5.91-1.831l-1.7-.531v-1.55h.31v1.319l1.483.462-.093.3zm66.04-.737h-.309v-3.125h.31v3.125zm-67.43-4.47h-.31V31.32h.31v3.125zm67.43-1.78h-.309v-3.125h.31v3.125zm-67.43-4.47h-.31V25.07h.31v3.125zm67.43-1.78h-.309v-3.125h.31v3.125zM.352 21.943H.043V18.82h.31v3.125zm67.432-1.78h-.31v-2.038l-.853-.225.08-.3 1.083.287v2.276zm-4.155-3.02l-2.985-.793.08-.306 2.986.8-.08.3zM.352 15.694H.043V12.57h.31v3.125zm57.3-.143l-2.986-.794.08-.306 2.986.8-.08.3zm-5.972-1.594l-2.992-.831.08-.306 2.986.8-.074.337zm-5.978-1.593l-2.992-.794.08-.307 2.986.8-.074.3zm-5.978-1.594l-2.992-.8.08-.3 2.987.8-.075.3zM.352 9.444H.043V6.319h.31v3.125zm33.382-.269l-2.992-.8.08-.3 2.986.8-.074.3zm-5.978-1.594l-2.992-.8.08-.3 2.993.794-.08.306zM21.78 5.987l-2.986-.8.074-.3 2.992.794-.08.306zm-5.966-1.612l-2.986-.8.074-.3 2.992.794-.08.306zM.36 3.175h-.31V.05h.31v3.125zm9.476-.4L6.85 1.981l.075-.3 2.992.794-.08.3zM3.857 1.181L.872.387l.08-.306 2.986.8-.08.3z" transform="translate(340 90)"/>
            </g>
            <path fill="#23548E" d="M401.5 145L401.5 187M230.5 95L230.5 156M335.5 103L335.5 156"/>
            <path fill="#957473" d="M335.271 102.178c-10.593-.52-21.212.1-31.671 1.852-2.867.488-6 .97-6.643 4.284-.805 4.173 2.922 7.012 4 10.691 1.485 5.074-2.966 9.507-6.922 11.89-4.482 2.697-9.98 3.752-15.124 4.277-10.06 1.018-20.175-.617-30.043-2.47-10.976-2.08-21.915-4.53-33.12-4.937-.997-.031-.997 1.512 0 1.543 20.02.679 39.31 8.426 59.43 7.636 8.104-.321 17.334-1.803 23.438-7.605 2.241-2.13 4.067-4.939 4.154-8.118.118-4.246-3.399-6.715-4.24-10.604-.52-2.377 1.535-4.37 3.714-4.815 1.362-.272 2.742-.475 4.11-.685 3.269-.502 6.554-.885 9.856-1.148 6.335-.502 12.695-.597 19.042-.284.997.049.997-1.494 0-1.544l.019.037z" opacity=".8"/>
            <path fill="#957473" d="M218.184 126.022c-.97.242-2.856.926-3.144 2.156-.288 1.23 1.048 2.811 1.76 3.604.587.667 1.515-.35.928-1.017-.383-.437-1.352-1.483-1.294-2.15.057-.667 1.572-1.08 2.095-1.207.823-.213.477-1.599-.345-1.386z" opacity=".8"/>
            <g fill="#957473" opacity=".8">
                <path d="M1.612 11.25C18.207 1.2 38.798 1.194 57.474 3.019c20.25 2.012 40.024 7.443 58.5 16.069.895.418 1.68-.925.778-1.35C98.021 8.995 77.973 3.492 57.443 1.456 38.495-.419 17.632-.294.803 9.9c-.238.14-.384.4-.383.678.001.28.15.537.39.675.239.139.533.138.772-.003h.03z" transform="translate(231 81)"/>
                <path d="M114.293 20c.71-.038 1.433-.044 2.15-.106.545.028 1.032-.34 1.162-.875-.005-.589-.19-1.161-.532-1.638-.306-.568-.668-1.104-1.08-1.6-.619-.781-1.718.332-1.094 1.1.24.301.458.619.655.95.136.326.295.641.475.944.093.281.229.138.414-.444h-.216c-.207-.001-.413.011-.618.038l-1.285.062c-.995.05-.995 1.613 0 1.563l-.03.006z" transform="translate(231 81)"/>
            </g>
            <path fill="#23548E" d="M400 83L381 91M381.121 91l-.121-.266 2.159-.883.121.265-2.159.884zm4.943-2.022l-.115-.265 2.783-1.156.121.266-2.79 1.155zm5.573-2.281l-.121-.266 2.79-1.155.12.266-2.789 1.155zm5.573-2.276l-.12-.266L399.878 83l.121.266-2.79 1.155zM93 55L117 104M114.726 102l-1.336-2.751.275-.135 1.335 2.757-.274.129zm-2.671-5.514l-1.342-2.757.275-.135 1.335 2.757-.268.135zm-2.677-5.515l-1.335-2.75.274-.135 1.335 2.75-.274.135zm-2.67-5.514l-1.342-2.75.274-.136 1.342 2.751-.275.135zm-2.678-5.514l-1.335-2.751.275-.135 1.335 2.751-.275.135zm-2.67-5.514l-1.336-2.758.275-.134 1.335 2.757-.274.135zm-2.677-5.515l-1.335-2.757.274-.128 1.335 2.75-.274.135zm-2.67-5.514l-1.336-2.75.274-.136 1.336 2.751-.275.135zm-2.672-5.514L92 55.135l.274-.135 1.342 2.751-.275.135zM92 136L110 165M109.699 165l-1.576-2.62.27-.16 1.607 2.621-.301.159zm-3.22-5.247l-1.607-2.62.27-.153 1.607 2.62-.27.153zm-3.213-5.24l-1.613-2.62.27-.16 1.613 2.621-.27.159zm-3.22-5.247l-1.607-2.62.27-.159 1.607 2.627-.27.152zm-3.22-5.24l-1.606-2.627.27-.152 1.606 2.62-.27.159zm-3.213-5.247L92 136.16l.27-.159 1.613 2.626-.27.153zM205 39L231 74M230.755 74l-.184-.253.245-.179.184.247-.245.185zm-2.004-2.727l-1.84-2.469.246-.185 1.839 2.468-.245.186zm-3.647-4.937l-1.839-2.468.245-.185 1.839 2.468-.245.185zm-3.678-4.936l-1.839-2.469.246-.185 1.838 2.468-.245.186zm-3.647-4.937l-1.838-2.468.245-.18 1.839 2.469-.246.179zm-3.647-4.937l-1.838-2.468.245-.185 1.839 2.468-.246.185zm-3.646-4.936l-1.84-2.468.252-.185 1.839 2.468-.251.185zm-3.647-4.937L205 39.185l.251-.185 1.84 2.468-.252.185zM429 116L445 154M108 156L79 176M443 138v-.716l2.49-66.212L500 45l-5.603 48.697-.093.08L443 138zm3.113-66.53l-2.428 65.124 50.12-43.234 5.454-47.34-53.146 25.45z"/>
            <path fill="#23548E" d="M292.655 113L284 55.219 320.801 34 403.127 35.758 500 43.836 499.945 44.455 403.09 36.377 320.962 34.625 284.672 55.547 293.068 111.564 324.907 74.153 325.061 74.159 404.655 78.257 494.538 91.608 494.446 92.221 404.594 78.87 325.178 74.784z"/>
            <path fill="#23548E" d="M322.165 35.676L322.783 35.676 322.781 75.963 322.163 75.963z" transform="rotate(-5.94 322.473 55.82)"/>
            <path fill="#23548E" d="M445.779 71c-60.577-24.06-160.71-14.546-161.718-14.446l-.061-.622c1.008-.1 101.295-9.608 162 14.49l-.221.578zM443.654 137c-32.59-21.457-72.048-26.686-99.41-27.294-29.666-.664-51.916 3.818-52.127 3.862l-.117-.627c.216-.044 22.516-4.538 52.245-3.874 27.448.627 67.035 5.855 99.755 27.394l-.346.539z"/>
        </g>
    </g>
</svg>
