<svg xmlns="http://www.w3.org/2000/svg" width="540" height="774" viewBox="0 0 540 774">
    <g fill="none" fill-rule="evenodd">
        <g>
            <path fill="#225795" d="M232.63 758H46.927v-7.114h185.705c17.17 0 31.14-15.741 31.14-35.089V561.886c0-19.348-13.97-35.09-31.14-35.09h-50.909c-21.103 0-38.271-18.932-38.271-42.202V384.63c0-23.27 17.168-42.203 38.271-42.203h53.006c7.69 0 15.075-3.189 20.796-8.979 6.72-6.8 10.488-16.525 10.341-26.681l-1.542-106.485c-.276-19.034-14.244-34.518-31.137-34.518H59.27C38.17 165.764 21 146.832 21 123.561V14h7.131v109.561c0 19.348 13.97 35.09 31.14 35.09h173.915c10.18 0 19.762 4.354 26.98 12.261 7.118 7.8 11.127 18.194 11.286 29.266l1.543 106.486c.175 12.048-4.342 23.63-12.393 31.778-7.07 7.158-16.26 11.099-25.874 11.099h-53.006c-17.171 0-31.14 15.741-31.14 35.089v99.964c0 19.347 13.969 35.089 31.14 35.089h50.909c21.103 0 38.271 18.932 38.271 42.203v153.911c0 23.27-17.168 42.203-38.271 42.203" transform="translate(245)"/>
            <path fill="#225795" d="M52 26c0 14.36-11.64 26-26 26S0 40.36 0 26 11.64 0 26 0s26 11.64 26 26" transform="translate(245)"/>
            <path fill="#FFF" d="M23.65 18.523L23.594 18.523 20.47 20.4 20 18.339 23.926 16 26 16 26 36 23.65 36z" transform="translate(245)"/>
            <path fill="#225795" d="M295 251c0 14.36-11.64 26-26 26s-26-11.64-26-26 11.64-26 26-26 26 11.64 26 26" transform="translate(245)"/>
            <path fill="#FFF" d="M261 261v-1.716l1.996-2.129c4.8-5.018 6.968-7.688 6.997-10.802 0-2.096-.926-4.034-3.73-4.034-1.707 0-3.123.953-3.991 1.747l-.81-1.97c1.302-1.207 3.152-2.096 5.32-2.096 4.048 0 5.754 3.05 5.754 6.004 0 3.813-2.515 6.894-6.476 11.088l-1.504 1.525v.064H273V261h-12z" transform="translate(245)"/>
            <path fill="#225795" d="M173 444c0 14.36-11.64 26-26 26s-26-11.64-26-26 11.64-26 26-26 26 11.64 26 26" transform="translate(245)"/>
            <path fill="#FFF" d="M139.71 450.5c.738.5 2.452 1.28 4.255 1.28 3.34 0 4.375-2.249 4.345-3.937-.029-2.843-2.454-4.062-4.966-4.062h-1.447v-2.063h1.447c1.892 0 4.286-1.03 4.286-3.438 0-1.624-.975-3.061-3.369-3.061-1.537 0-3.015.718-3.842 1.343l-.68-2c1.005-.781 2.955-1.562 5.025-1.562 3.783 0 5.497 2.374 5.497 4.843 0 2.094-1.183 3.875-3.547 4.782v.062c2.364.5 4.286 2.375 4.286 5.219 0 3.25-2.394 6.094-7.005 6.094-2.157 0-4.049-.72-4.995-1.375l.71-2.125z" transform="translate(245)"/>
            <path fill="#225795" d="M295 639c0 14.36-11.64 26-26 26s-26-11.64-26-26 11.64-26 26-26 26 11.64 26 26" transform="translate(245)"/>
            <path fill="#FFF" d="M268.882 641.431v-6.677c0-1.046.03-2.092.089-3.138h-.089c-.589 1.169-1.06 2.03-1.588 2.954l-4.676 6.8v.061h6.264zm0 7.569v-5.446H260v-1.785L268.53 629h2.793v12.431H274v2.123h-2.677V649h-2.441z" transform="translate(245)"/>
            <path fill="#225795" d="M65 748c0 14.36-11.64 26-26 26s-26-11.64-26-26 11.64-26 26-26 26 11.64 26 26" transform="translate(245)"/>
            <path fill="#FFF" d="M42.613 739.351h-7.365l-.743 5.305c.446-.063.861-.127 1.574-.127 1.486 0 2.97.35 4.158 1.112 1.514.921 2.763 2.7 2.763 5.306 0 4.035-3 7.053-7.188 7.053-2.108 0-3.89-.635-4.812-1.27l.654-2.13c.801.51 2.376 1.144 4.128 1.144 2.465 0 4.574-1.715 4.574-4.48-.029-2.668-1.693-4.575-5.554-4.575-1.098 0-1.96.128-2.673.223L33.376 737h9.237v2.351z" transform="translate(245)"/>
        </g>
        <text fill="#225795" font-family="PingFangTC-Semibold, PingFang TC" font-size="28" font-weight="500">
            <tspan x="20" y="30">Our Story</tspan>
        </text>
        <text fill="#225795" font-family="PingFangTC-Semibold, PingFang TC" font-size="28" font-weight="500">
            <tspan x="39" y="265">Projects</tspan>
        </text>
        <text fill="#225795" font-family="PingFangTC-Semibold, PingFang TC" font-size="28" font-weight="500">
            <tspan x="0" y="455">Workshops</tspan>
        </text>
        <text fill="#225795" font-family="PingFangTC-Semibold, PingFang TC" font-size="28" font-weight="500">
            <tspan x="74" y="654">Apply</tspan>
        </text>
        <text fill="#225795" font-family="PingFangTC-Semibold, PingFang TC" font-size="28" font-weight="500">
            <tspan x="43" y="765">Contact</tspan>
        </text>
        <path stroke="#225795" d="M160 20.5L234.62 20.5M160 255L467.5 255.5M161.25 643.25L477.5 643.5M160.5 444.5L351.5 444.5M160.25 754.25L245.5 754.5"/>
    </g>
</svg>
