<svg xmlns="http://www.w3.org/2000/svg" xmlns:xlink="http://www.w3.org/1999/xlink" width="465" height="491" viewBox="0 0 465 491">
    <defs>
        <path id="prefix__a" d="M0 0.114L119.855 0.114 119.855 46.592 0 46.592z"/>
        <path id="prefix__c" d="M0.294 0.423L14.208 0.423 14.208 40 0.294 40z"/>
    </defs>
    <g fill="none" fill-rule="evenodd">
        <path fill="#FFF" d="M386.855 207.528v2.467c0 12.103-9.903 22.006-22.006 22.006h-75.843C276.903 232 267 222.098 267 209.995v-2.467c0-12.103 9.903-22.005 22.006-22.005h75.843c12.103 0 22.006 9.902 22.006 22.005"/>
        <path fill="#CAC36B" d="M.597 344.913c2.727-43.686 32.093-96.025 43.317-126.882 16.05-44.12 47.46-139.769 106.212-142.503 87.041-4.047 161.346 139.143 172.531 210.33 6.865 43.715-14.874 87.222-55.269 106.058-28.411 13.25-60.556 15.37-91.846 17.28l-79.624 4.864c-23.333 1.426-48.394 2.44-68.218-9.949C5.652 390.333-.902 368.931.597 344.913"/>
        <path fill="#063D42" d="M227.301 387.247c4.99-31.46 29.877-67.353 40.14-88.933 14.671-30.856 44.027-97.984 86.78-95.91 63.34 3.075 107.29 111.94 110.48 164.284 1.955 32.145-16.796 62.164-47.36 73.024-21.499 7.637-44.933 6.955-67.733 6.181l-58.02-1.972c-17.004-.577-35.23-1.573-48.737-11.916-15.023-11.503-18.294-27.46-15.55-44.758"/>
        <path fill="#FFF" d="M463.855 107.006v2.466c0 12.103-9.903 22.006-22.006 22.006h-75.843c-12.103 0-22.006-9.903-22.006-22.006v-2.466C344 94.902 353.903 85 366.006 85h75.843c12.103 0 22.006 9.902 22.006 22.006M207.855 22.006v2.466c0 12.103-9.903 22.006-22.006 22.006h-75.843C97.903 46.478 88 36.575 88 24.472v-2.466C88 9.902 97.903 0 110.006 0h75.843c12.103 0 22.006 9.902 22.006 22.006"/>
        <g transform="translate(27 166)">
            <mask id="prefix__b" fill="#fff">
                <use xlink:href="#prefix__a"/>
            </mask>
            <path fill="#FFF" d="M119.855 22.12v2.466c0 12.103-9.903 22.006-22.006 22.006H22.006C9.903 46.592 0 36.69 0 24.586V22.12C0 10.016 9.903.114 22.006.114h75.843c12.103 0 22.006 9.902 22.006 22.006" mask="url(#prefix__b)"/>
        </g>
        <path fill="#FFF" d="M315.855 267.006v2.466c0 12.103-9.903 22.006-22.006 22.006h-75.843c-12.103 0-22.006-9.903-22.006-22.006v-2.466c0-12.104 9.903-22.006 22.006-22.006h75.843c12.103 0 22.006 9.902 22.006 22.006"/>
        <path fill="#063D42" d="M158.166 129.409c.476.7.956 1.4 1.438 2.099-.245-.828-.755-1.573-1.438-2.1zm10.28 15.224l-.59-.76c-1.138-1.464-2.265-2.944-3.377-4.44l-.255.248-14.956-14.1c1.42 3.141 3.295 6.043 5.584 8.64l.948 1.076-1.325-.55c-.06-.026-.12-.05-.178-.076.926 1.082 1.803 2.204 2.629 3.364l-.541.385c-1.151-1.615-2.404-3.157-3.75-4.616-1.612-.999-3.015-2.346-4.057-3.923l-1.308-1.978 1.802 1.543c1.403 1.202 2.736 2.483 3.99 3.84.088.053.176.105.265.155-2.207-2.743-3.986-5.787-5.296-9.069l-.557-1.397 13.829 13.038c-1.294-1.805-2.46-3.703-3.484-5.675-2.493-3.413-4.763-7.007-6.772-10.72l.576-.331c1.848 3.004 3.763 5.984 5.738 8.93l.062.022c1.796.678 3.046 2.537 3.007 4.453 2.38 3.4 4.839 6.743 7.362 10.012l.083-16.107.666.005-.094 18.03zM216.166 210.409c.476.7.956 1.4 1.438 2.099-.245-.828-.755-1.573-1.438-2.1zm10.28 15.224l-.59-.76c-1.138-1.464-2.265-2.944-3.377-4.44l-.255.248-14.956-14.1c1.42 3.142 3.295 6.043 5.584 8.64l.948 1.076-1.325-.55c-.06-.026-.12-.05-.178-.076.926 1.082 1.803 2.204 2.629 3.364l-.541.385c-1.151-1.615-2.404-3.157-3.75-4.616-1.612-.999-3.015-2.346-4.057-3.923l-1.308-1.978 1.802 1.543c1.403 1.202 2.736 2.483 3.99 3.84.088.053.176.105.265.155-2.207-2.743-3.986-5.786-5.296-9.069l-.557-1.397 13.829 13.038c-1.294-1.805-2.46-3.703-3.484-5.675-2.493-3.413-4.763-7.007-6.772-10.72l.576-.332c1.848 3.006 3.763 5.986 5.738 8.93l.062.023c1.796.678 3.046 2.537 3.007 4.453 2.38 3.4 4.839 6.743 7.362 10.012l.083-16.107.666.004-.094 18.031zM80.166 267.409c.476.7.956 1.4 1.438 2.099-.245-.827-.755-1.573-1.438-2.1zm10.28 15.224l-.59-.76c-1.138-1.464-2.265-2.945-3.377-4.44l-.255.248-14.956-14.1c1.42 3.142 3.295 6.042 5.584 8.64l.948 1.075-1.325-.55c-.06-.024-.12-.05-.178-.075.926 1.082 1.803 2.204 2.629 3.363l-.541.386c-1.151-1.615-2.404-3.158-3.75-4.617-1.612-.998-3.015-2.346-4.057-3.921l-1.308-1.98 1.802 1.543c1.403 1.202 2.736 2.485 3.99 3.84.088.053.176.105.265.156-2.207-2.742-3.986-5.786-5.296-9.068l-.557-1.397 13.829 13.038c-1.294-1.805-2.46-3.704-3.484-5.677-2.493-3.412-4.763-7.007-6.772-10.719l.576-.332c1.848 3.005 3.763 5.986 5.738 8.93l.062.024c1.796.676 3.046 2.536 3.007 4.452 2.38 3.4 4.839 6.743 7.362 10.012l.083-16.106.666.003-.094 18.031zM80.166 320.409c.476.7.956 1.4 1.438 2.099-.245-.827-.755-1.573-1.438-2.1zm10.28 15.224l-.59-.76c-1.138-1.464-2.265-2.945-3.377-4.44l-.255.248-14.956-14.1c1.42 3.142 3.295 6.042 5.584 8.64l.948 1.075-1.325-.55c-.06-.024-.12-.05-.178-.075.926 1.082 1.803 2.204 2.629 3.363l-.541.386c-1.151-1.615-2.404-3.158-3.75-4.617-1.612-.998-3.015-2.346-4.057-3.921l-1.308-1.98 1.802 1.543c1.403 1.202 2.736 2.485 3.99 3.84.088.053.176.105.265.156-2.207-2.742-3.986-5.786-5.296-9.068l-.557-1.397 13.829 13.038c-1.294-1.805-2.46-3.704-3.484-5.677-2.493-3.412-4.763-7.007-6.772-10.719l.576-.332c1.848 3.005 3.763 5.986 5.738 8.93l.062.024c1.796.676 3.046 2.536 3.007 4.452 2.38 3.4 4.839 6.743 7.362 10.012l.083-16.106.666.003-.094 18.031zM46.166 356.409c.476.7.956 1.4 1.438 2.099-.245-.827-.755-1.573-1.438-2.1zm10.28 15.224l-.59-.76c-1.138-1.464-2.265-2.945-3.377-4.44l-.255.248-14.956-14.1c1.42 3.142 3.295 6.042 5.584 8.64l.948 1.075-1.325-.55c-.06-.024-.12-.05-.178-.075.926 1.082 1.803 2.204 2.629 3.363l-.541.386c-1.151-1.615-2.404-3.158-3.75-4.617-1.612-.998-3.015-2.346-4.057-3.921l-1.308-1.98 1.802 1.543c1.403 1.202 2.736 2.485 3.99 3.84.088.053.176.105.265.156-2.207-2.742-3.986-5.786-5.296-9.068l-.557-1.397 13.829 13.038c-1.294-1.805-2.46-3.704-3.484-5.677-2.493-3.412-4.763-7.007-6.772-10.719l.576-.332c1.848 3.005 3.763 5.986 5.738 8.93l.062.024c1.796.676 3.046 2.536 3.007 4.452 2.38 3.4 4.839 6.743 7.362 10.012l.083-16.106.666.003-.094 18.031z"/>
        <path fill="#F5B582" d="M160.063 435.79c-2.563-7.327-2.94-17.166-3.79-22.719-1.217-7.939-4.204-25.014 1.68-27.854 8.714-4.206 28.4-13.754 34.186-2.45 3.554 6.941 8.948 46.612 6.007 51.365-2.068 3.343-12.75 3.575-15.854 5.163-2.63 1.347-5.264 2.693-7.896 4.04-2.314 1.184-4.833 2.37-7.684 1.13-3.17-1.379-5.24-4.648-6.649-8.676"/>
        <path fill="#FAE8D5" d="M194.964 361.761c0 10.577-9.527 12.417-18.942 12.417-9.415 0-20.585-9.184-17.048-19.152 4.63-13.049 16.472-16.416 25.887-16.416 9.416 0 10.103 12.573 10.103 23.151"/>
        <g transform="translate(195 450.886)">
            <mask id="prefix__d" fill="#fff">
                <use xlink:href="#prefix__c"/>
            </mask>
            <path fill="#063D42" d="M.776 7.095C-.41 17.334.599 27.82 3.713 37.645c.25.794.566 1.647 1.277 2.079 2.863 1.736 5.178-5.327 8.276-4.06 1.372-8.53 1.244-17.298-.375-25.785-.664-3.481-1.87-7.305-5.002-8.964C4.757-.743-.228 2.055.963 5.394" mask="url(#prefix__d)"/>
        </g>
        <path fill="#063D42" d="M177.597 447.075c-1.185 10.238-.177 20.725 2.938 30.55.25.793.566 1.646 1.276 2.077 2.862 1.736 5.178-5.327 8.276-4.06 1.371-8.529 1.245-17.298-.374-25.784-.665-3.481-1.87-7.305-5.002-8.964-3.134-1.659-8.118 1.14-6.927 4.478"/>
    </g>
</svg>
