<svg xmlns="http://www.w3.org/2000/svg" width="560" height="330" viewBox="0 0 560 330">
    <g fill="none" fill-rule="evenodd">
        <path fill="#006987" fill-rule="nonzero" d="M558.96 217H1.04c-.574 0-1.04-.448-1.04-1s.466-1 1.04-1h557.92c.574 0 1.04.448 1.04 1s-.466 1-1.04 1z"/>
        <path fill="#FFF" fill-rule="nonzero" d="M220 1H405V216H220z"/>
        <path fill="#003D79" fill-rule="nonzero" d="M404.964 217H220.036c-.572 0-1.036-.466-1.036-1.042V1.042c0-.576.464-1.042 1.036-1.042h184.928c.572 0 1.036.466 1.036 1.042v214.916c0 .576-.464 1.042-1.036 1.042zm-183.856-2.083h182.82V2.083H221.072l.036 212.834z"/>
        <path fill="#FFF" fill-rule="nonzero" d="M220 64L371 215"/>
        <path fill="#003D79" fill-rule="nonzero" d="M370.96 217c-.276.002-.542-.108-.738-.304L218.305 63.79c-.263-.265-.366-.651-.27-1.013.097-.362.378-.644.737-.741.36-.097.743.006 1.006.271l151.917 152.906c.195.197.305.464.305.742 0 .278-.11.545-.305.741-.196.195-.46.304-.734.304z"/>
        <path fill="#FFF" fill-rule="nonzero" d="M321 2L404 85"/>
        <path fill="#003D79" fill-rule="nonzero" d="M403.959 87c-.272 0-.534-.108-.727-.302L320.3 2.784c-.26-.265-.36-.65-.264-1.012.097-.36.377-.642.734-.737.358-.096.738.009.998.274L404.7 85.223c.294.298.38.746.22 1.135-.16.39-.535.642-.951.642h-.01z"/>
        <path fill="#FFF" fill-rule="nonzero" d="M267 1L405 139"/>
        <path fill="#003D79" fill-rule="nonzero" d="M403.966 139c-.276 0-.54-.11-.734-.305L266.302 1.765c-.403-.404-.403-1.058 0-1.462.405-.404 1.06-.404 1.463 0l136.93 136.93c.297.295.387.74.227 1.127-.16.388-.537.64-.956.64z"/>
        <path fill="#E5F2ED" fill-rule="nonzero" d="M343.168 136.833c-.808.048-1.61.176-2.392.38-2.924.684-5.606 2.145-7.762 4.227-2.831 2.533-5.234 6.452-6.898 10.887-.581 1.662-1.12 3.398-1.57 5.17.476-4.759 1.167-9.439 1.978-13.811.555-2.559 1.047-5.05 1.743-7.343.61-2.15 1.353-4.262 2.224-6.322.74-1.723 1.614-3.386 2.617-4.971.804-1.2 1.71-2.327 2.706-3.372.668-.659 1.385-1.265 2.146-1.814l.817-.589-.932.36c-.905.335-1.77.769-2.58 1.292-.524.344-1.047.782-1.686 1.24-.638.46-1.172 1.085-1.81 1.715-1.364 1.477-2.561 3.1-3.57 4.837-2.324 3.788-4.187 8.671-5.569 13.992-.628 2.606-1.298 5.321-1.706 8.11 0-.303.031-.615.052-.912.246-2.893.33-5.76.597-8.506.267-2.746.471-5.42.686-7.947.214-2.528.523-4.894.758-7.104.351-2.162.524-4.21.848-5.961.223-1.53.532-3.045.927-4.54.202-.974.491-1.927.863-2.85l.377-1.001-.555.896c-.567.84-1.031 1.744-1.381 2.695-.62 1.448-1.154 2.93-1.602 4.44-.612 1.73-1.047 3.726-1.622 5.905-.456 2.188-1.047 4.565-1.419 7.103-.371 2.538-.89 5.211-1.204 7.984-.188 1.397-.355 2.82-.523 4.252-1.403-6.451-3.255-12.403-5.626-17.062-.866-1.814-1.919-3.535-3.14-5.133-.906-1.242-1.949-2.378-3.11-3.388l-1.318-1.042-1.079-.594-.895-.48.78.662.916.787c.32.354.68.766 1.084 1.225.952 1.121 1.775 2.345 2.454 3.648.447.79.842 1.608 1.183 2.45.414.86.775 1.808 1.141 2.798.754 1.98 1.392 4.195 2.041 6.54.65 2.345 1.141 4.894 1.68 7.51.827 4.456 1.544 9.209 2.094 14.024-.361-1.016-.738-2.027-1.162-2.996-1.77-4.211-4.187-7.88-6.93-10.34-1.22-1.118-2.609-2.041-4.113-2.736-.607-.305-1.246-.543-1.906-.709-.54-.175-1.095-.297-1.659-.365-.773-.14-1.56-.188-2.345-.14H297l.796.203c.745.166 1.473.398 2.177.693.506.174.992.401 1.45.678.563.276 1.099.604 1.601.98 1.216.87 2.319 1.89 3.282 3.032 1.121 1.394 2.111 2.887 2.957 4.461.926 1.806 1.73 3.67 2.407 5.582.728 1.996 1.309 4.133 1.864 6.322.555 2.188.994 4.455 1.376 6.738.382 2.283.733 4.57.99 6.848.256 2.277.523 4.513.648 6.702.335 4.367.524 8.463.592 11.986.068 3.523.042 6.484 0 8.553-.042 2.069-.073 3.278-.073 3.278s.355-1.137.816-3.174c.24-1.043.523-2.345.764-3.836.183 1.11.372 2.147.56 3.012.215 1.043.388 1.814.524 2.465.068.954.104 1.533.104 1.533s.042-.277.095-.673c.094.396.157.673.157.673s0-.595-.048-1.564c.079-.636.163-1.412.262-2.413.1-1.225.236-2.71.372-4.404.696 5.118 1.392 8.235 1.392 8.235s.256-5.8.497-14.405c.058-1.49.12-3.096.178-4.742.21 2.58.466 5.008.754 7.191.958 7.323 2.125 12.112 2.125 12.112s0-1.235.052-3.393c.052-2.157 0-5.211 0-8.86 0-3.647 0-7.92.094-12.46.094-4.54.31-9.38.874-14.113.44-4.621 1.316-9.191 2.617-13.649 1.314-4.169 3.093-7.853 5.297-10.47 1.742-2.155 3.95-3.891 6.458-5.08.709-.358 1.442-.665 2.193-.918l.796-.292-.832.068z"/>
        <path fill="#008077" fill-rule="nonzero" d="M317.637 207h-.164c-.5-.082-.866-.52-.86-1.031l.072-3.237c.036-1.774.061-4.67 0-8.418-.097-4.197-.287-8.063-.568-11.805-.102-1.598-.271-3.191-.455-4.877-.057-.572-.118-1.15-.18-1.727-.26-2.371-.583-4.64-.957-6.701-.445-2.707-.854-4.732-1.33-6.588-.494-2.083-1.092-4.139-1.791-6.16-.646-1.854-1.417-3.66-2.308-5.408-.791-1.492-1.718-2.907-2.769-4.227-.875-1.052-1.878-1.991-2.983-2.794-.453-.342-.936-.64-1.444-.892-.02-.009-.04-.021-.056-.036-.386-.234-.794-.429-1.218-.583l-.092-.03c-.628-.269-1.28-.48-1.945-.634l-.813-.202c-.498-.125-.827-.601-.77-1.114.057-.514.482-.905.995-.917h.803c.822-.048 1.647.002 2.457.15 1.306.202 2.577.595 3.771 1.165 1.558.729 2.994 1.695 4.258 2.866 2.11 1.997 3.884 4.325 5.256 6.892-.338-2.247-.706-4.459-1.1-6.614-.543-2.675-1.024-5.093-1.628-7.35-.552-2.026-1.207-4.367-1.96-6.372-.332-.907-.69-1.856-1.085-2.691-.323-.802-.694-1.583-1.11-2.34l-.03-.052c-.629-1.226-1.391-2.378-2.273-3.433l-.993-1.14c-.338-.283-.62-.515-.85-.731l-.757-.655c-.393-.345-.466-.932-.17-1.364.297-.431.868-.57 1.327-.322 0 0 .302.17.865.47l.731.412.338.185c.051.028.1.061.144.098l1.29 1.031c1.205 1.058 2.288 2.25 3.228 3.552 1.234 1.628 2.296 3.382 3.168 5.232 1.79 3.706 3.208 7.58 4.237 11.568.282-2.196.64-4.34 1.024-6.52.292-1.898.675-3.692 1.023-5.424.118-.557.236-1.103.348-1.64l.359-1.453c.399-1.613.777-3.144 1.259-4.516.445-1.507.973-2.99 1.58-4.438.364-.988.842-1.929 1.424-2.804l.552-.903c.28-.443.846-.604 1.315-.373.468.232.69.781.512 1.276l-.368.99c-.344.868-.613 1.765-.804 2.68v.062c-.372 1.44-.664 2.899-.875 4.371-.179.944-.307 1.96-.44 3.037-.113.912-.23 1.85-.389 2.83-.159.979-.2 1.928-.312 2.938-.148 1.304-.297 2.65-.425 4.047l-.378 4.448c1.056-3.409 2.497-6.684 4.293-9.763 1.017-1.768 2.218-3.422 3.582-4.934l.052-.051.337-.335c.512-.516.988-.995 1.495-1.418l.04-.03.512-.408c.405-.31.788-.598 1.167-.856.863-.562 1.784-1.027 2.748-1.386l.886-.35c.482-.197 1.033.002 1.282.462.248.46.115 1.035-.31 1.336l-.809.588-.061.041c-.545.392-1.06.824-1.54 1.294l-.333.31c-.926.982-1.766 2.043-2.513 3.17-.941 1.51-1.763 3.092-2.456 4.732-.83 2.008-1.543 4.063-2.134 6.155-.568 1.943-1.024 4.031-1.484 6.237l-.205.949c-.256 1.395-.493 2.796-.711 4.201 1.332-2.775 3.153-5.285 5.373-7.407 2.23-2.169 4.998-3.693 8.014-4.413.667-.194 1.354-.311 2.047-.35.159 0 .302-.026.425-.047h.03l.835-.088c.512-.046.979.299 1.09.804.113.507-.165 1.02-.65 1.196l-.763.284-.383.144c-.564.193-1.111.429-1.638.707l-.056.025c-2.312 1.114-4.346 2.737-5.952 4.748-1.965 2.361-3.69 5.815-4.995 10.006-1.244 4.343-2.08 8.794-2.497 13.294-.548 4.64-.722 9.413-.855 13.893-.097 4.021-.097 7.836-.097 11.197v9.877l-.051 3.371c-.011.516-.4.944-.91 1.002-.51.057-.982-.274-1.106-.775 0-.036-.574-2.402-1.234-6.29-.128 3.681-.225 5.903-.23 5.94-1.078-.177-2.165.256-2.83 1.128-.082.01-.164.01-.246 0-.054.005-.109.005-.163 0-.521-.022-.942-.435-.978-.959l-.097-1.438-.077-.35c-.312 1.283-.512 1.99-.542 2.026-.126.443-.53.749-.988.747zm1.535-8.995c.365 0 .703.196.886.515l.076-.938c.03-.388.274-.725.63-.874.358-.148.767-.081 1.06.173.05-1.619.107-3.413.158-5.351l.04-1.031c.042-1.18.093-2.418.134-3.68-.013-.57.435-1.042 1-1.055.565-.013 1.034.438 1.047 1.008.19 2.433.435 4.81.726 7.062 0 .206.052.407.082.608v-1.726c0-3.377 0-7.217.098-11.254.133-4.53.307-9.34.864-14.057.426-4.628 1.283-9.205 2.56-13.671 1.391-4.464 3.249-8.166 5.378-10.723.24-.304.511-.592.737-.866-.251.217-.512.444-.758.686-2.559 2.31-4.856 5.995-6.494 10.382-.594 1.717-1.1 3.407-1.5 5.006-.13.525-.64.86-1.17.766-.529-.094-.896-.584-.84-1.122.445-4.506 1.1-9.13 1.944-13.743l.21-.98c.481-2.247.931-4.366 1.535-6.387.612-2.17 1.354-4.301 2.221-6.382.508-1.214 1.087-2.397 1.735-3.541-.806.996-1.528 2.059-2.16 3.175-2.093 3.454-3.889 8.016-5.347 13.6l-.133.571c-.563 2.377-1.147 4.836-1.51 7.336-.058.57-.563.984-1.129.925-.565-.058-.976-.567-.918-1.136l.046-.903c.113-1.324.19-2.634.266-3.902.087-1.5.18-3.057.322-4.552l.676-7.82c.128-1.423.276-2.783.425-4.098.112-1.031.225-1.99.317-2.938v-.067c.051-.304.097-.614.138-.913-.071.304-.153.609-.23.923-.102.515-.22 1.031-.338 1.608-.368 1.701-.747 3.464-1.023 5.32-.45 2.63-.875 5.196-1.172 7.856-.18 1.325-.343 2.691-.512 4.202.03.57-.405 1.055-.97 1.085-.565.03-1.047-.408-1.077-.977-1.464-6.805-3.286-12.403-5.414-16.63-.144-.299-.287-.593-.435-.876.128.33.25.66.368.984.778 2.062 1.453 4.48 2.021 6.557.6 2.325 1.106 4.769 1.659 7.496.818 4.485 1.535 9.17 2.088 13.96.071.527-.268 1.023-.783 1.143-.515.12-1.037-.174-1.203-.68-.394-1.144-.747-2.062-1.11-2.897-1.69-4.082-4.008-7.583-6.525-9.877-.272-.242-.548-.474-.82-.69.257.268.512.551.784.855 1.146 1.438 2.159 2.979 3.024 4.604.932 1.833 1.74 3.728 2.42 5.67.723 2.08 1.34 4.197 1.848 6.34.486 1.913.911 3.996 1.361 6.749.38 2.098.707 4.402.978 6.825.056.587.118 1.16.179 1.727.174 1.634.353 3.32.46 4.954.287 3.768.471 7.665.574 11.908.025 1.402.04 2.69.04 3.845.147-.064.307-.092.466-.082l-.01-.005z"/>
        <path fill="#FFF" fill-rule="nonzero" d="M332.997 233s9.657-24.43 7.755-41.339c-1.44-12.84-6.663-14.497-11.39-17.264-1.947-1.136 3.076-4.497 1.467-6.397H312.17c-1.61 1.9 3.414 5.26 1.466 6.397-4.741 2.767-9.949 4.424-11.389 17.264-1.902 16.909 7.755 41.339 7.755 41.339h22.994z"/>
        <path fill="#008077" fill-rule="nonzero" d="M332.761 234h-23.52c-.43 0-.816-.261-.975-.66-.41-1.02-9.962-25.222-8.001-42.411 1.4-12.342 6.182-14.986 10.811-17.541l1.28-.712c-.234-.512-.519-1-.85-1.456-.928-1.382-2.197-3.272-.844-4.853.2-.233.49-.367.797-.367h19.085c.306 0 .597.134.796.367 1.353 1.57.084 3.471-.844 4.853-.33.456-.615.944-.849 1.456.435.251.855.482 1.274.712 4.63 2.555 9.438 5.194 10.816 17.54 1.95 17.206-7.591 41.407-8 42.412-.16.399-.546.66-.976.66zm-22.802-2.094h22.084c1.526-4.032 9.327-25.615 7.613-40.757-1.28-11.268-5.39-13.54-9.747-15.944-.466-.257-.933-.524-1.39-.78-.472-.253-.815-.695-.943-1.215-.241-1.047.45-2.094 1.18-3.173.455-.59.809-1.252 1.048-1.958h-17.616c.239.706.593 1.367 1.048 1.958.729 1.089 1.421 2.12 1.175 3.173-.124.52-.466.963-.939 1.215-.461.267-.928.523-1.39.78-4.356 2.403-8.467 4.676-9.746 15.944-1.704 15.142 6.098 36.725 7.623 40.757z"/>
        <path fill="#D9EDE9" fill-rule="nonzero" d="M331 194.642c5.458 1.561 16.103 4.257 16.609 17.74.58 15.313 3.512 3.876 5.495-2.603 3.74-12.264 14.005-13.253 19.896-10.677-4.3-3.096-11.344-4.683-18.294.52 1.111-8.846 9.147-15.933 13.916-16.698-5.296.307-13.567 2.742-18.33 15.236-.523-2.461-2.192-17.692 1.34-24.16-5.494 5.953-6.183 18.837-4.754 25.622-1.79-2.638-6.46-6.088-15.878-4.98z"/>
        <path fill="#008077" fill-rule="nonzero" d="M349.047 221h-.197c-1.302-.161-2.01-1.558-2.28-8.591-.464-12.394-9.823-15.064-15.42-16.622l-.395-.114c-.477-.136-.792-.59-.751-1.084.04-.494.425-.89.918-.947 7.485-.883 11.936 1.002 14.456 2.935-.308-3.4-.223-6.823.255-10.202.557-3.968 1.92-9.454 5.205-13.038.356-.387.945-.449 1.374-.143.428.306.56.882.307 1.343-2.509 4.592-2.227 14.3-1.702 19.811 4.867-9.61 12.155-12.113 17.699-12.435.575-.063 1.092.351 1.156.925.063.573-.352 1.09-.927 1.153-4.086.654-10.557 6.363-12.535 13.417 5.43-3.198 12.243-2.871 17.34.83.447.308.582.908.31 1.377-.273.47-.861.65-1.351.416-3.401-1.438-7.247-1.408-10.625.083-3.644 1.672-6.34 5.1-7.808 9.926l-.52 1.735c-1.953 6.592-2.91 9.225-4.509 9.225zm-11.613-25.306c5.252 2.275 10.843 6.653 11.218 16.621.018 1.976.192 3.947.52 5.896.76-1.6 1.775-5.008 2.38-7.028.176-.608.353-1.195.52-1.745 2.082-6.836 6.007-9.87 8.932-11.21.882-.406 1.803-.721 2.749-.94-3.078.133-6.037 1.223-8.464 3.117-.334.247-.783.273-1.143.065-.36-.207-.562-.609-.513-1.021.521-4.187 2.603-8.425 5.836-11.947.4-.436.817-.852 1.239-1.252-4.076 2.369-7.288 6.488-9.474 12.222-.166.428-.594.697-1.053.661-.458-.036-.839-.368-.936-.816-.569-3.562-.86-7.162-.87-10.768 0-1.802.032-3.475.147-5.007-1.546 5.473-1.767 11.233-.646 16.808.103.486-.152.977-.61 1.171-.457.195-.99.04-1.269-.37-1.968-2.884-5.419-4.052-8.563-4.457z"/>
        <path fill="#FFF" fill-rule="nonzero" d="M357.87 250s6.188-9.306 4.972-20.493c-.925-8.5-3.75-12.175-6.79-14.008-1.253-.749 1.46-7.245.428-8.499h-11.96c-1.023 1.259 1.675 7.755.428 8.5-3.04 1.832-5.865 5.513-6.79 14.007-1.216 11.17 4.987 20.493 4.987 20.493h14.725z"/>
        <path fill="#008077" fill-rule="nonzero" d="M357.854 251h-14.708c-.336 0-.651-.169-.842-.45-.26-.384-6.378-9.52-5.138-20.68.806-7.209 3.128-11.911 7.108-14.335.072-.554-.26-2.108-.464-3.06-.546-2.554-.842-4.17-.051-5.112.194-.23.477-.363.776-.363h11.93c.299 0 .582.132.776.363.791.942.51 2.558-.05 5.111-.205.953-.511 2.507-.465 3.066 3.975 2.434 6.302 7.121 7.108 14.33 1.24 11.16-4.878 20.296-5.144 20.68-.189.28-.502.448-.836.45zm-14.167-2.072h13.61c1.169-1.92 5.517-9.783 4.506-18.825-.735-6.619-2.791-10.829-6.282-12.88-1.275-.75-.857-2.708-.326-5.179.24-.973.411-1.963.51-2.962h-10.41c.096.999.267 1.99.51 2.962.51 2.481.95 4.439-.332 5.18-3.485 2.07-5.541 6.266-6.276 12.88-1.026 9.052 3.322 16.888 4.49 18.824z"/>
        <path fill="#EEEFF8" fill-rule="nonzero" d="M78 225H288V324H78z"/>
        <path fill="#003D79" fill-rule="nonzero" d="M288.96 326H79.04c-.574 0-1.04-.467-1.04-1.043v-98.914c0-.576.466-1.043 1.04-1.043h209.92c.574 0 1.04.467 1.04 1.043v98.914c0 .576-.466 1.043-1.04 1.043zm-208.88-2.085h207.84v-96.83H80.08v96.83z"/>
        <path fill="#FFF" fill-rule="nonzero" d="M162 294H165V306H162zM199 297H202V306H199zM259 297H262V309H259zM273 267H276V281H273zM244 281H247V297H244zM250 246H253V256H250zM206 254H209V267H206zM257 257H260V268H257zM162 231H165V241H162zM199 231H202V242H199zM243 231H246V245H243zM282 231H285V245H282zM144 222H147V231H144zM195 242H198V254H195zM132 232H135V241H132zM95 237H98V251H95zM124 237H127V251H124zM183 237H186V251H183zM219 236H222V250H219zM257 235H260V250H257zM79 224H82V237H79zM149 225H152V237H149z"/>
        <path fill="#FFF" fill-rule="nonzero" d="M201 225H204V236H201zM228 225H231V236H228zM264 225H267V235H264zM77 251H80V265H77zM136 251H139V265H136zM162 251H165V265H162zM247 250H250V264H247zM115 266H118V282H115zM193 264H196V284H193zM236 265H239V285H236zM262 265H265V285H262zM194 284H197V293H194zM228 285H231V293H228zM81 312H84V328H81zM129 312H132V328H129zM173 313H176V328H173zM235 314H238V328H235zM160 289H163V300H160zM209 288H212V299H209zM245 288H248V299H245zM282 288H285V299H282zM89 298H92V311H89zM117 299H120V311H117zM189 300H192V313H189zM227 299H230V313H227zM265 299H268V313H265zM77 281H80V291H77z"/>
        <path fill="#FFF" fill-rule="nonzero" d="M230 277H233V288H230zM171 278H174V287H171zM94 268H97V281H94zM80 281H83V295H80zM122 282H125V296H122zM160 282H163V297H160zM204 282H207V297H204zM237 281H240V295H237z"/>
        <path fill="#FFF" fill-rule="nonzero" d="M93 270H96V281H93zM103 295H106V314H103zM127 296H130V315H127zM177 315H180V329H177zM209 313H212V327H209zM126 315H129V330H126zM121 230H124V242H121zM158 229H161V242H158zM186 229H189V242H186zM77 241H80V255H77zM128 241H131V254H128zM214 240H217V255H214zM84.95 270L82 270 82.05 256 85 256zM89 291H92V305H89zM148 290H151V304H148zM184 289H187V303H184zM222 288H225V303H222zM257 287H260V303H257zM87 262H90V278H87zM118 262H121V278H118zM168 261H171V277H168zM212 262H215V277H212zM273 263H276V277H273zM114 279H117V291H114zM165 277H168V288H165zM193 277H196V288H193zM228 277H231V287H228zM100 305H103V319H100z"/>
        <path fill="#FFF" fill-rule="nonzero" d="M126 305H129V319H126zM212 304H215V318H212zM102 241H105V249H102zM198 239H201V250H198zM247 238H250V249H247zM284 238H287V249H284zM77 248H80V262H77zM126 248H129V261H126zM155 249H158V261H155zM228 250H231V263H228zM264 249H267V263H264zM114 230H117V240H114zM268 227H271V238H268zM208 228H211V237H208z"/>
        <path fill="#003D79" fill-rule="nonzero" d="M288.96 326H79.04c-.574 0-1.04-.467-1.04-1.043v-98.914c0-.576.466-1.043 1.04-1.043h209.92c.574 0 1.04.467 1.04 1.043v98.914c0 .576-.466 1.043-1.04 1.043zm-208.88-2.085h207.84v-96.83H80.08v96.83z"/>
        <path fill="#FFF" fill-rule="nonzero" d="M91 167H273V182H91z"/>
        <path fill="#003D79" fill-rule="nonzero" d="M271.96 183H90.04c-.575 0-1.04-.47-1.04-1.05v-15.9c0-.58.465-1.05 1.04-1.05h181.92c.575 0 1.04.47 1.04 1.05v15.9c0 .58-.465 1.05-1.04 1.05zm-180.88-2.101h179.84v-13.798H91.08v13.798z"/>
        <path fill="#E5F2ED" fill-rule="nonzero" d="M231 151H255V175H231z"/>
        <path fill="#008077" fill-rule="nonzero" d="M255.006 176h-23.012c-.549 0-.994-.466-.994-1.042v-23.916c0-.576.445-1.042.994-1.042h23.012c.549 0 .994.466.994 1.042v23.916c0 .576-.445 1.042-.994 1.042zm-22.038-2.084h21.044v-21.832h-21.024l-.02 21.832z"/>
        <path fill="#FFF" fill-rule="nonzero" d="M231 152H255V157H231z"/>
        <path fill="#008077" fill-rule="nonzero" d="M255.006 158h-23.012c-.549 0-.994-.52-.994-1.16v-5.68c0-.64.445-1.16.994-1.16h23.012c.549 0 .994.52.994 1.16v5.68c0 .64-.445 1.16-.994 1.16zm-22.038-2.319h21.044v-3.362h-21.024l-.02 3.362z"/>
        <path fill="#E5F2ED" fill-rule="nonzero" d="M235.5 150L235.5 153"/>
        <path fill="#008077" fill-rule="nonzero" d="M235.5 156c-.828 0-1.5-.76-1.5-1.696v-3.608c0-.937.672-1.696 1.5-1.696s1.5.76 1.5 1.696v3.608c0 .937-.672 1.696-1.5 1.696z"/>
        <path fill="#E5F2ED" fill-rule="nonzero" d="M250.5 150L250.5 153"/>
        <path fill="#008077" fill-rule="nonzero" d="M250.5 156c-.828 0-1.5-.76-1.5-1.696v-3.608c0-.937.672-1.696 1.5-1.696s1.5.76 1.5 1.696v3.608c0 .937-.672 1.696-1.5 1.696z"/>
        <text fill="#008077" font-family="Helvetica" font-size="23.6">
            <tspan x="236" y="181">0</tspan> <tspan x="236" y="209">1</tspan>
        </text>
        <path fill="#FFF" fill-rule="nonzero" d="M191 169L176 169 176.511 156 190.489 156z"/>
        <path fill="#006980" fill-rule="nonzero" d="M190.92 170h-15.84c-.293 0-.575-.11-.778-.307-.204-.196-.313-.461-.301-.733l.54-12.005c.026-.534.502-.956 1.08-.955h14.758c.578 0 1.054.42 1.08.955l.54 12.005c.012.272-.097.537-.3.733-.204.196-.486.307-.78.307zm-14.716-2h13.587l-.449-10.004h-12.69l-.448 10.003z"/>
        <path fill="#FFF" fill-rule="nonzero" d="M226 150.869c0 3.107-2.064 5.131-5.223 5.131h-74.554c-3.148 0-5.223-2.035-5.223-5.131v-39.738c0-3.107 2.064-5.131 5.223-5.131h74.554c3.143 0 5.223 2.035 5.223 5.131v39.738z"/>
        <path fill="#006980" fill-rule="nonzero" d="M221.677 157h-75.354c-3.782 0-6.323-2.524-6.323-6.281v-40.443c0-3.752 2.54-6.276 6.323-6.276h75.354c3.782 0 6.323 2.524 6.323 6.276v40.459c0 3.74-2.54 6.265-6.323 6.265zm-75.354-50.908c-2.609 0-4.236 1.58-4.236 4.168v40.459c0 2.571 1.622 4.173 4.236 4.173h75.354c2.609 0 4.236-1.58 4.236-4.173v-40.443c0-2.572-1.627-4.168-4.236-4.168l-75.354-.016z"/>
        <path fill="#E5F2ED" fill-rule="nonzero" d="M167.465 112.345L167.465 110 157.863 110 157.863 112.345 146 112.345 146 153 222 153 222 112.345z"/>
        <path fill="#008077" fill-rule="nonzero" d="M222.22 153h-76.44c-.43 0-.78-.346-.78-.773v-39.193c0-.427.35-.773.78-.773h11.147v-1.488c0-.427.35-.773.78-.773h9.659c.431 0 .78.346.78.773v1.488h54.073c.432 0 .781.346.781.773v39.193c0 .427-.35.773-.78.773zm-75.659-1.545h74.878v-37.649h-54.073c-.431 0-.78-.346-.78-.772v-1.489h-8.098v1.489c0 .426-.35.772-.78.772H146.56v37.649z"/>
        <path fill="#FFF" fill-rule="nonzero" d="M148 115H194V131H148z"/>
        <path fill="#008077" fill-rule="nonzero" d="M194.48 133h-45.96c-.287 0-.52-.24-.52-.536v-16.928c0-.296.233-.536.52-.536h45.96c.287 0 .52.24.52.536v16.928c0 .296-.233.536-.52.536zm-45.44-1.072h44.92v-15.856h-44.92v15.856z"/>
        <path fill="#FFF" fill-rule="nonzero" d="M148 135H194V149H148z"/>
        <path fill="#008077" fill-rule="nonzero" d="M194.48 149h-45.96c-.287 0-.52-.222-.52-.495v-14.01c0-.273.233-.495.52-.495h45.96c.287 0 .52.222.52.495v14.01c0 .273-.233.495-.52.495zm-45.44-.99h44.92v-13.02h-44.92v13.02z"/>
        <path fill="#FFF" fill-rule="nonzero" d="M196 116H219V149H196z"/>
        <path fill="#008077" fill-rule="nonzero" d="M218.46 149h-22.94c-.287 0-.52-.232-.52-.517v-32.966c0-.286.233-.517.52-.517h22.96c.287 0 .52.231.52.517v32.966c0 .14-.057.275-.16.373-.101.097-.239.15-.38.144zm-22.442-1.034h21.922v-31.932H196.04l-.021 31.932z"/>
        <path fill="#E5F2ED" fill-rule="nonzero" d="M216 118.5L201 118.5"/>
        <path fill="#008077" fill-rule="nonzero" d="M216.182 119h-16.364c-.452 0-.818-.448-.818-1s.366-1 .818-1h16.364c.452 0 .818.448.818 1s-.366 1-.818 1z"/>
        <path fill="#E5F2ED" fill-rule="nonzero" d="M216 122.5L208 122.5"/>
        <path fill="#008077" fill-rule="nonzero" d="M216.218 123h-8.436c-.432 0-.782-.448-.782-1s.35-1 .782-1h8.436c.432 0 .782.448.782 1s-.35 1-.782 1z"/>
        <path fill="#E5F2ED" fill-rule="nonzero" d="M216 124.5L203 124.5"/>
        <path fill="#008077" fill-rule="nonzero" d="M216.225 125h-12.45c-.428 0-.775-.448-.775-1s.347-1 .775-1h12.45c.428 0 .775.448.775 1s-.347 1-.775 1z"/>
        <path fill="#E5F2ED" fill-rule="nonzero" d="M191 137.5L153 137.5"/>
        <path fill="#008077" fill-rule="nonzero" d="M191.211 138h-39.422c-.436 0-.789-.448-.789-1s.353-1 .789-1h39.422c.436 0 .789.448.789 1s-.353 1-.789 1z"/>
        <path fill="#E5F2ED" fill-rule="nonzero" d="M192 139.5L161 139.5"/>
        <path fill="#008077" fill-rule="nonzero" d="M191.232 140h-30.464c-.424 0-.768-.448-.768-1s.344-1 .768-1h30.464c.424 0 .768.448.768 1s-.344 1-.768 1z"/>
        <path fill="#E5F2ED" fill-rule="nonzero" d="M191 141.5L171 141.5"/>
        <path fill="#008077" fill-rule="nonzero" d="M191.214 144h-20.428c-.434 0-.786-.448-.786-1s.352-1 .786-1h20.428c.434 0 .786.448.786 1s-.352 1-.786 1z"/>
        <path fill="#E5F2ED" fill-rule="nonzero" d="M192 145.5L161 145.5"/>
        <path fill="#008077" fill-rule="nonzero" d="M191.235 146h-29.47c-.423 0-.765-.448-.765-1s.342-1 .765-1h29.47c.423 0 .765.448.765 1s-.342 1-.765 1zM158 128c-.422 0-.765-.343-.765-.766s.343-.766.766-.766c1.681-.003 3.118-1.212 3.41-2.868.29-1.656-.649-3.282-2.229-3.858-1.58-.575-3.345.065-4.187 1.52-.843 1.455-.521 3.305.764 4.389.29.28.312.739.05 1.046-.262.308-.717.36-1.04.118-1.85-1.567-2.31-4.234-1.09-6.33 1.219-2.095 3.765-3.013 6.041-2.179 2.276.834 3.626 3.18 3.203 5.568-.424 2.386-2.498 4.125-4.922 4.126zM183.85 128c-.436 0-.79-.343-.79-.766s.354-.766.79-.766c1.806 0 3.33-1.303 3.555-3.041.224-1.738-.921-3.366-2.671-3.797-1.75-.432-3.558.468-4.217 2.099-.167.382-.618.566-1.017.413-.398-.152-.599-.585-.452-.975.953-2.344 3.554-3.634 6.071-3.01 2.517.622 4.163 2.964 3.84 5.463-.321 2.5-2.51 4.377-5.108 4.38zM171.024 128c-1.624.004-3.15-.778-4.092-2.097-.944-1.32-1.187-3.012-.655-4.543.142-.4.582-.61.983-.47.402.142.613.58.472.981-.496 1.442.01 3.037 1.248 3.932s2.915.878 4.135-.04c1.22-.918 1.696-2.522 1.173-3.954-.523-1.433-1.922-2.356-3.448-2.277-.204.014-.405-.055-.557-.192-.151-.137-.24-.33-.247-.533-.011-.203.06-.402.196-.552.137-.15.328-.24.531-.25 1.812-.08 3.526.82 4.482 2.357.957 1.536 1.008 3.468.132 5.052-.875 1.583-2.54 2.572-4.353 2.586zM157.406 113h-6.812c-.328 0-.594-.21-.594-.47v-2.06c0-.26.266-.47.594-.47h6.812c.328 0 .594.21.594.47v2.06c0 .26-.266.47-.594.47zm-6.217-.939h5.622v-1.122h-5.622v1.122z"/>
        <path fill="#008077" fill-rule="nonzero" d="M150.406 113h-6.812c-.328 0-.594-.21-.594-.47v-2.06c0-.26.266-.47.594-.47h6.812c.328 0 .594.21.594.47v2.06c0 .26-.266.47-.594.47zm-6.217-.939h5.622v-1.122h-5.622v1.122zM172.423 113h-5.846c-.319 0-.577-.21-.577-.47v-2.06c0-.26.258-.47.577-.47h5.846c.319 0 .577.21.577.47v2.06c0 .26-.258.47-.577.47zm-5.27-.939h4.694v-1.122h-4.694v1.122z"/>
        <path fill="#008077" fill-rule="nonzero" d="M178.423 113h-5.846c-.319 0-.577-.21-.577-.47v-2.06c0-.26.258-.47.577-.47h5.846c.319 0 .577.21.577.47v2.06c0 .26-.258.47-.577.47zm-5.27-.939h4.694v-1.122h-4.694v1.122z"/>
        <path fill="#008077" fill-rule="nonzero" d="M182.423 113h-5.846c-.319 0-.577-.21-.577-.47v-2.06c0-.26.258-.47.577-.47h5.846c.319 0 .577.21.577.47v2.06c0 .26-.258.47-.577.47zm-5.27-.939h4.694v-1.122h-4.694v1.122z"/>
        <path fill="#008077" fill-rule="nonzero" d="M188.423 113h-5.846c-.319 0-.577-.21-.577-.47v-2.06c0-.26.258-.47.577-.47h5.846c.319 0 .577.21.577.47v2.06c0 .26-.258.47-.577.47zm-5.269-.939h4.692v-1.122h-4.692v1.122z"/>
        <path fill="#008077" fill-rule="nonzero" d="M193.423 113h-5.846c-.319 0-.577-.21-.577-.47v-2.06c0-.26.258-.47.577-.47h5.846c.319 0 .577.21.577.47v2.06c0 .26-.258.47-.577.47zm-5.27-.939h4.694v-1.122h-4.694v1.122z"/>
        <path fill="#008077" fill-rule="nonzero" d="M199.423 113h-5.846c-.319 0-.577-.21-.577-.47v-2.06c0-.26.258-.47.577-.47h5.846c.319 0 .577.21.577.47v2.06c0 .26-.258.47-.577.47zm-5.27-.939h4.694v-1.122h-4.694v1.122z"/>
        <path fill="#008077" fill-rule="nonzero" d="M203.423 113h-5.846c-.319 0-.577-.21-.577-.47v-2.06c0-.26.258-.47.577-.47h5.846c.319 0 .577.21.577.47v2.06c0 .26-.258.47-.577.47zm-5.27-.939h4.694v-1.122h-4.694v1.122z"/>
        <path fill="#008077" fill-rule="nonzero" d="M209.423 113h-5.846c-.319 0-.577-.21-.577-.47v-2.06c0-.26.258-.47.577-.47h5.846c.319 0 .577.21.577.47v2.06c0 .26-.258.47-.577.47zm-5.27-.939h4.694v-1.122h-4.694v1.122z"/>
        <path fill="#008077" fill-rule="nonzero" d="M214.423 113h-5.846c-.319 0-.577-.21-.577-.47v-2.06c0-.26.258-.47.577-.47h5.846c.319 0 .577.21.577.47v2.06c0 .26-.258.47-.577.47zm-5.269-.939h4.692v-1.122h-4.692v1.122z"/>
        <path fill="#008077" fill-rule="nonzero" d="M219.423 113h-5.846c-.319 0-.577-.21-.577-.47v-2.06c0-.26.258-.47.577-.47h5.846c.319 0 .577.21.577.47v2.06c0 .26-.258.47-.577.47zm-5.27-.939h4.694v-1.122h-4.694v1.122z"/>
        <path fill="#EEEFF8" fill-rule="nonzero" d="M91 181H273V188H91z"/>
        <path fill="#003D79" fill-rule="nonzero" d="M271.96 189H90.04c-.575 0-1.04-.504-1.04-1.125v-6.75c0-.621.465-1.125 1.04-1.125h181.92c.575 0 1.04.504 1.04 1.125v6.75c0 .621-.465 1.125-1.04 1.125zm-180.88-2.25h179.84v-4.5H91.08v4.5z"/>
        <path fill="#FFF" fill-rule="nonzero" d="M184 187H271V289H184z"/>
        <path fill="#003D79" fill-rule="nonzero" d="M270.961 290h-85.922c-.574 0-1.039-.467-1.039-1.044V187.044c0-.577.465-1.044 1.039-1.044h85.922c.574 0 1.039.467 1.039 1.044v101.912c0 .577-.465 1.044-1.039 1.044zm-84.883-2.088h83.844v-99.824h-83.844v99.824z"/>
        <path fill="#EEEFF8" fill-rule="nonzero" d="M189 192H266V207H189z"/>
        <path fill="#003D79" fill-rule="nonzero" d="M265.96 209h-76.92c-.575 0-1.04-.473-1.04-1.056v-15.888c0-.583.465-1.056 1.04-1.056h76.92c.575 0 1.04.473 1.04 1.056v15.888c0 .583-.465 1.056-1.04 1.056zm-75.881-2.112h74.842v-13.776H190.08v13.776z"/>
        <path fill="#EEEFF8" fill-rule="nonzero" d="M189 213H266V237H189z"/>
        <path fill="#003D79" fill-rule="nonzero" d="M265.96 238h-76.92c-.575 0-1.04-.474-1.04-1.058v-23.884c0-.584.465-1.058 1.04-1.058h76.92c.575 0 1.04.474 1.04 1.058v23.884c0 .584-.465 1.058-1.04 1.058zm-75.881-2.116h74.842v-21.768H190.08v21.768z"/>
        <path fill="#EEEFF8" fill-rule="nonzero" d="M189 240H266V277H189z"/>
        <path fill="#003D79" fill-rule="nonzero" d="M265.96 277h-76.92c-.575 0-1.04-.46-1.04-1.03v-35.94c0-.57.465-1.03 1.04-1.03h76.92c.575 0 1.04.46 1.04 1.03v35.94c0 .57-.465 1.03-1.04 1.03zm-75.881-2.06h74.842v-33.88H190.08v33.88z"/>
        <path fill="#FFF" fill-rule="nonzero" d="M94 187H102V289H94z" transform="rotate(-180 98 238)"/>
        <path fill="#003D79" fill-rule="nonzero" d="M101.98 290h-7.96c-.563 0-1.02-.467-1.02-1.044V187.044c0-.577.457-1.044 1.02-1.044h7.96c.563 0 1.02.467 1.02 1.044v101.912c0 .577-.457 1.044-1.02 1.044zm-6.94-2.088h5.92v-99.824h-5.92v99.824zM98.51 295h-2.056c-.42-.016-.773-.353-.857-.815l-.58-2.968c-.052-.296.015-.602.183-.837.168-.234.42-.374.687-.38h3.226c.268.006.52.146.687.38.168.235.235.541.183.837l-.58 2.968c-.087.476-.46.818-.893.815zM198.546 295h-2.038c-.438.01-.819-.333-.906-.815l-.585-2.968c-.052-.296.015-.604.184-.839.169-.235.422-.373.69-.378h3.222c.268.006.52.146.687.38.168.235.235.541.183.837l-.58 2.968c-.084.462-.438.798-.857.815zM255.47 295h2.06c.416-.007.775-.334.869-.793l.584-2.984c.052-.298-.015-.606-.184-.843-.169-.236-.421-.375-.69-.38h-3.218c-.269.005-.521.144-.69.38-.169.237-.236.545-.184.843l.584 2.984c.094.459.453.786.87.793z"/>
        <rect width="16" height="4" x="219" y="198" fill="#FFF" fill-rule="nonzero" rx="2"/>
        <path fill="#003D79" fill-rule="nonzero" d="M233.557 202.997h-12.114c-1.213.052-2.356-.603-2.977-1.707-.621-1.103-.621-2.477 0-3.58.621-1.104 1.764-1.759 2.977-1.707h12.114c1.213-.052 2.356.603 2.977 1.707.621 1.103.621 2.477 0 3.58-.621 1.104-1.764 1.759-2.977 1.707zm-12.114-4.732c-.436-.032-.852.197-1.08.592-.227.395-.227.891 0 1.286.228.395.644.624 1.08.592h12.114c.436.032.852-.197 1.08-.592.227-.395.227-.891 0-1.286-.228-.395-.644-.624-1.08-.592h-12.114z"/>
        <rect width="16" height="4" x="219" y="222" fill="#FFF" fill-rule="nonzero" rx="2"/>
        <path fill="#003D79" fill-rule="nonzero" d="M233.557 226.997h-12.114c-1.213.052-2.356-.603-2.977-1.707-.621-1.103-.621-2.477 0-3.58.621-1.104 1.764-1.759 2.977-1.707h12.114c1.213-.052 2.356.603 2.977 1.707.621 1.103.621 2.477 0 3.58-.621 1.104-1.764 1.759-2.977 1.707zm-12.114-4.732c-.436-.032-.852.197-1.08.592-.227.395-.227.891 0 1.286.228.395.644.624 1.08.592h12.114c.436.032.852-.197 1.08-.592.227-.395.227-.891 0-1.286-.228-.395-.644-.624-1.08-.592h-12.114z"/>
        <rect width="16" height="4" x="219" y="249" fill="#FFF" fill-rule="nonzero" rx="2"/>
        <path fill="#003D79" fill-rule="nonzero" d="M233.643 255h-12.286c-1.854 0-3.357-1.567-3.357-3.5s1.503-3.5 3.357-3.5h12.286c1.854 0 3.357 1.567 3.357 3.5s-1.503 3.5-3.357 3.5zm-12.286-4.738c-.656 0-1.187.554-1.187 1.238 0 .684.531 1.238 1.187 1.238h12.286c.656 0 1.187-.554 1.187-1.238 0-.684-.531-1.238-1.187-1.238h-12.286z"/>
        <path fill="#FFF" fill-rule="nonzero" d="M99 169H123V176H99z"/>
        <path fill="#003D79" fill-rule="nonzero" d="M122.983 177h-22.966c-.562 0-1.017-.507-1.017-1.134v-6.732c0-.627.455-1.134 1.017-1.134h22.966c.562 0 1.017.507 1.017 1.134v6.732c0 .627-.455 1.134-1.017 1.134zm-21.948-2.267h20.93v-4.466h-20.93v4.466z"/>
        <path fill="#003D79" fill-rule="nonzero" d="M105.977 173.99c-.749 0-1.389-.548-1.518-1.297l-6.436-37.323c-.087-.51.078-1.03.443-1.392l18.653-18.528c.29-.29.683-.452 1.091-.45l28.245.167c.853 0 1.545.703 1.545 1.57 0 .867-.692 1.57-1.545 1.57l-27.611-.162-17.63 17.523 6.303 36.507c.072.41-.02.832-.254 1.174-.235.341-.594.574-.997.647-.096.007-.193.005-.289-.005zM123.89 260h-3.892c-9.385-.012-16.99-7.636-16.998-17.044v-23.841c0-1.168.945-2.115 2.11-2.115s2.11.947 2.11 2.115v23.841c.005 7.073 5.722 12.806 12.778 12.815h3.892c1.165 0 2.11.947 2.11 2.114 0 1.168-.945 2.115-2.11 2.115z"/>
        <path fill="#E5E8F5" fill-rule="nonzero" d="M127.61 239h28.78c7.516 0 13.61 6.239 13.61 13.934v2.264c0 2.1-1.663 3.802-3.713 3.802h-48.574c-2.05 0-3.713-1.702-3.713-3.802v-2.264c0-3.695 1.434-7.24 3.986-9.853 2.553-2.613 6.015-4.081 9.624-4.081z"/>
        <path fill="#003D79" fill-rule="nonzero" d="M166.266 259H117.74c-2.618-.003-4.739-2.167-4.739-4.836v-2.251c.009-8.23 6.55-14.901 14.625-14.913h28.75c8.074.012 14.616 6.682 14.625 14.913v2.251c0 2.667-2.118 4.83-4.734 4.836zm-38.64-19.89c-6.934.008-12.55 5.736-12.557 12.803v2.251c0 1.504 1.195 2.724 2.67 2.727h48.527c1.475-.003 2.67-1.223 2.67-2.727v-2.251c-.006-7.069-5.626-12.798-12.561-12.804h-28.75z"/>
        <rect width="46" height="26" x="118" y="202" fill="#E5E8F5" fill-rule="nonzero" rx="8.79"/>
        <path fill="#003D79" fill-rule="nonzero" d="M159.331 229h-36.673c-3.121-.003-5.652-2.565-5.658-5.729v-17.537c.003-3.166 2.535-5.731 5.658-5.734h36.673c1.503-.001 2.945.603 4.008 1.68 1.064 1.076 1.661 2.536 1.661 4.06v17.537c-.009 3.165-2.545 5.726-5.669 5.723zm-36.673-26.869c-1.966 0-3.56 1.616-3.56 3.608v17.538c.003 1.99 1.596 3.603 3.56 3.603h36.673c1.963-.003 3.553-1.615 3.556-3.603v-17.538c0-1.99-1.591-3.605-3.556-3.608h-36.673z"/>
        <path fill="#E5E8F5" fill-rule="nonzero" d="M159.51 193h-36.025c-1.27 0-2.48-.54-3.331-1.483-.85-.944-1.261-2.204-1.13-3.468l3.878-37.034c.242-2.282 2.166-4.014 4.46-4.015h28.27c2.294 0 4.219 1.733 4.46 4.015l3.884 37.034c.132 1.265-.279 2.527-1.13 3.471-.852.945-2.065 1.482-3.337 1.48z"/>
        <path fill="#003D79" fill-rule="nonzero" d="M159.465 194h-35.941c-1.565 0-3.056-.665-4.103-1.828-1.048-1.163-1.553-2.716-1.391-4.273l3.869-36.952c.29-2.816 2.665-4.954 5.494-4.947h28.203c2.83-.01 5.206 2.13 5.494 4.947l3.88 36.952c.163 1.558-.342 3.111-1.39 4.275-1.047 1.163-2.54 1.827-4.104 1.826h-.01zm-32.072-45.902c-1.756-.006-3.23 1.322-3.408 3.07l-3.869 36.951c-.1.966.215 1.928.864 2.65.65.72 1.574 1.132 2.544 1.133h35.941c.97 0 1.896-.41 2.546-1.132.65-.721.963-1.685.862-2.65l-3.869-36.953c-.178-1.747-1.652-3.075-3.408-3.069h-28.203z"/>
        <rect width="16" height="9" x="98" y="214" fill="#003D79" fill-rule="nonzero" rx="4.5"/>
        <path fill="#003D79" fill-rule="nonzero" d="M163.002 260h-3.892c-1.165 0-2.11-.947-2.11-2.115 0-1.167.945-2.114 2.11-2.114h3.892c7.056-.009 12.773-5.742 12.779-12.815v-23.841c0-1.168.944-2.115 2.11-2.115 1.164 0 2.109.947 2.109 2.115v23.841c-.009 9.408-7.613 17.032-16.998 17.044z"/>
        <rect width="16" height="9" x="170" y="214" fill="#003D79" fill-rule="nonzero" rx="4.5" transform="rotate(180 178 218.5)"/>
        <path fill="#DEE2F2" fill-rule="nonzero" d="M119.67 252h44.67c3.126 0 5.66 2.81 5.66 6.277 0 .952-.695 1.723-1.553 1.723h-52.894c-.858 0-1.553-.771-1.553-1.723 0-3.467 2.534-6.277 5.66-6.277h.01z"/>
        <path fill="#003D79" fill-rule="nonzero" d="M168.39 260H114.63c-1.453 0-2.631-1.124-2.631-2.51.003-3.583 3.047-6.487 6.804-6.49h45.392c3.757.003 6.801 2.907 6.804 6.49 0 1.379-1.165 2.499-2.61 2.51zm-49.575-6.987c-2.594.003-4.697 2.008-4.7 4.482 0 .277.236.502.527.502h53.748c.29 0 .526-.225.526-.502-.003-2.474-2.105-4.48-4.699-4.482h-45.402z"/>
        <path fill="#003D79" fill-rule="nonzero" d="M148.818 259h-15.636c-1.205 0-2.182-.927-2.182-2.07v-86.363c-.003-1.474.612-2.89 1.71-3.934 1.098-1.044 2.589-1.632 4.144-1.633h8.292c3.232.003 5.851 2.487 5.854 5.552v86.378c0 1.143-.977 2.07-2.182 2.07zm-13.454-4.14h11.272v-84.293c0-.374-.157-.733-.437-.998-.279-.265-.658-.414-1.053-.414h-8.292c-.395 0-.774.149-1.053.414-.28.265-.437.624-.437.998v84.294zM139 268H144V271H139zM139 259H144V262H139zM139 272H144V275H139zM139 275H144V278H139zM139 263H144V266H139z"/>
        <path fill="#003D79" fill-rule="nonzero" d="M168.922 287.98c-1.147 0-2.077-.908-2.077-2.028v-4.396c0-1.696-.798-3.3-2.166-4.346-1.368-1.046-3.154-1.42-4.841-1.013l-17.832 4.3c-.325.08-.666.08-.992 0l-17.847-4.28c-1.687-.404-3.472-.03-4.84 1.016-1.369 1.046-2.17 2.647-2.172 4.343v4.396c0 1.12-.93 2.028-2.077 2.028-1.148 0-2.078-.908-2.078-2.028v-4.396c0-2.943 1.387-5.723 3.76-7.538 2.375-1.815 5.472-2.464 8.4-1.76l17.348 4.163 17.353-4.163c2.922-.698 6.01-.049 8.378 1.761 2.369 1.81 3.755 4.581 3.761 7.517v4.396c0 1.12-.93 2.028-2.078 2.028z"/>
        <path fill="#FFF" fill-rule="nonzero" d="M173 287.5c0 2.485-2.015 4.5-4.5 4.5s-4.5-2.015-4.5-4.5 2.015-4.5 4.5-4.5 4.5 2.015 4.5 4.5z"/>
        <path fill="#003D79" fill-rule="nonzero" d="M174 287.495c-.003-3.036-2.465-5.495-5.5-5.495s-5.497 2.46-5.5 5.495c-.003 3.035 2.454 5.5 5.49 5.505 3.031-.006 5.488-2.462 5.494-5.495l.016-.01zm-9.704 0c-.002-1.704 1.022-3.24 2.595-3.893 1.573-.654 3.384-.295 4.59.909 1.204 1.203 1.565 3.014.914 4.588-.651 1.574-2.186 2.6-3.89 2.6-2.321-.003-4.203-1.883-4.21-4.204z"/>
        <path fill="#FFF" fill-rule="nonzero" d="M109 287.5c0 2.485 2.015 4.5 4.5 4.5s4.5-2.015 4.5-4.5-2.015-4.5-4.5-4.5-4.5 2.015-4.5 4.5z"/>
        <path fill="#003D79" fill-rule="nonzero" d="M108 287.495c.003-3.038 2.468-5.498 5.505-5.495 3.038.003 5.498 2.468 5.495 5.505-.003 3.038-2.468 5.498-5.505 5.495-3.033-.006-5.49-2.462-5.495-5.495v-.01zm9.704 0c.002-1.704-1.022-3.24-2.595-3.893-1.573-.654-3.384-.295-4.59.909-1.204 1.203-1.565 3.014-.914 4.588.651 1.574 2.186 2.6 3.89 2.6 2.321-.003 4.203-1.883 4.21-4.204z"/>
        <path fill="#003D79" fill-rule="nonzero" d="M168.923 305c-1.147 0-2.077-.945-2.077-2.11v-9.496c-.004-2.174-1.34-4.115-3.35-4.864l-21.996-8.15-21.996 8.15c-2.01.75-3.346 2.69-3.35 4.864v9.496c0 1.165-.93 2.11-2.077 2.11-1.147 0-2.077-.945-2.077-2.11v-9.496c.01-3.945 2.436-7.466 6.08-8.826l22.709-8.44c.46-.17.963-.17 1.422 0l22.708 8.44c3.645 1.36 6.071 4.881 6.081 8.826v9.496c0 1.165-.93 2.11-2.077 2.11z"/>
        <path fill="#FFF" fill-rule="nonzero" d="M173 303.5c0 2.485-2.015 4.5-4.5 4.5s-4.5-2.015-4.5-4.5 2.015-4.5 4.5-4.5 4.5 2.015 4.5 4.5z"/>
        <path fill="#003D79" fill-rule="nonzero" d="M174 303.5c0-3.036-2.46-5.498-5.496-5.5-3.037-.002-5.5 2.457-5.504 5.493-.004 3.036 2.453 5.501 5.49 5.507 1.46.003 2.862-.575 3.895-1.607C173.42 306.36 174 304.96 174 303.5zm-9.704 0c-.002-1.703 1.022-3.24 2.595-3.893 1.573-.653 3.384-.295 4.59.909 1.204 1.204 1.565 3.015.914 4.588-.651 1.574-2.186 2.6-3.89 2.6-2.322 0-4.206-1.881-4.21-4.204z"/>
        <path fill="#FFF" fill-rule="nonzero" d="M109 303.5c0 2.485 2.015 4.5 4.5 4.5s4.5-2.015 4.5-4.5-2.015-4.5-4.5-4.5-4.5 2.015-4.5 4.5z"/>
        <path fill="#003D79" fill-rule="nonzero" d="M108 303.505c-.002-2.225 1.337-4.232 3.393-5.085 2.055-.853 4.422-.383 5.996 1.191 1.574 1.574 2.044 3.94 1.191 5.996-.853 2.056-2.86 3.395-5.085 3.393-3.034-.003-5.492-2.461-5.495-5.495zm9.704 0c.002-1.703-1.022-3.24-2.595-3.893-1.573-.653-3.384-.294-4.59.91-1.204 1.203-1.565 3.014-.914 4.588.651 1.573 2.186 2.6 3.89 2.6 2.322 0 4.206-1.882 4.21-4.205z"/>
        <path fill="#E7F6F5" fill-rule="nonzero" d="M415 132H458V137H415z"/>
        <path fill="#006987" fill-rule="nonzero" d="M458.953 138h-43.906c-.578 0-1.047-.525-1.047-1.173v-6.654c0-.648.469-1.173 1.047-1.173h43.906c.578 0 1.047.525 1.047 1.173v6.654c0 .648-.469 1.173-1.047 1.173zm-42.859-2.345h41.812v-4.31h-41.812v4.31z"/>
        <path fill="#FFF" fill-rule="nonzero" d="M449.5 276L449.5 294"/>
        <path fill="#006980" fill-rule="nonzero" d="M450.5 297c-1.38 0-2.5-1.165-2.5-2.601V276.6c0-1.436 1.12-2.601 2.5-2.601s2.5 1.165 2.5 2.601V294.4c0 .69-.263 1.351-.732 1.84-.47.487-1.105.761-1.768.761z"/>
        <path fill="#FFF" fill-rule="nonzero" d="M422.5 276L422.5 294"/>
        <path fill="#006980" fill-rule="nonzero" d="M422.5 297c-1.38 0-2.5-1.165-2.5-2.601V276.6c0-1.436 1.12-2.601 2.5-2.601s2.5 1.165 2.5 2.601V294.4c0 1.436-1.12 2.601-2.5 2.601z"/>
        <path fill="#FFF" fill-rule="nonzero" d="M458 281L447.251 281 415 281 415 137 458 137z"/>
        <path fill="#006980" fill-rule="nonzero" d="M458.953 281h-43.906c-.578 0-1.047-.466-1.047-1.04V137.04c0-.574.469-1.04 1.047-1.04h43.906c.578 0 1.047.466 1.047 1.04v142.92c0 .574-.469 1.04-1.047 1.04zm-42.859-2.08h41.812V138.08h-41.812v140.84z"/>
        <path fill="#E7F6F5" fill-rule="nonzero" d="M420 186H455V229H420z"/>
        <path fill="#006987" fill-rule="nonzero" d="M454.964 230h-34.928c-.572 0-1.036-.467-1.036-1.043v-42.914c0-.576.464-1.043 1.036-1.043h34.928c.572 0 1.036.467 1.036 1.043v42.914c0 .576-.464 1.043-1.036 1.043zm-33.891-2.086h32.854v-40.828h-32.854v40.828z"/>
        <path fill="#E7F6F5" fill-rule="nonzero" d="M420 141H455V182H420z"/>
        <path fill="#006987" fill-rule="nonzero" d="M454.964 183h-34.928c-.572 0-1.036-.473-1.036-1.057v-40.886c0-.584.464-1.057 1.036-1.057h34.928c.572 0 1.036.473 1.036 1.057v40.886c0 .584-.464 1.057-1.036 1.057zm-33.891-2.114h32.854v-38.772h-32.854v38.772z"/>
        <path fill="#E7F6F5" fill-rule="nonzero" d="M420 232H455V275H420z"/>
        <path fill="#006987" fill-rule="nonzero" d="M454.964 276h-34.928c-.572 0-1.036-.47-1.036-1.048v-42.904c0-.579.464-1.048 1.036-1.048h34.928c.572 0 1.036.47 1.036 1.048v42.904c0 .579-.464 1.048-1.036 1.048zm-33.891-2.096h32.854v-40.808h-32.854v40.808z"/>
        <path fill="#FFF" fill-rule="nonzero" d="M419 164H422V182H419z"/>
        <path fill="#006980" fill-rule="nonzero" d="M422.086 183h-3.172c-.505 0-.914-.471-.914-1.053v-17.894c0-.582.41-1.053.914-1.053h3.172c.505 0 .914.471.914 1.053v17.894c0 .582-.41 1.053-.914 1.053zm-2.258-2.105h1.344v-15.79h-1.344v15.79z"/>
        <path fill="#FFF" fill-rule="nonzero" d="M427.842 182L424 181.402 427.153 169 431 169.598z"/>
        <path fill="#006980" fill-rule="nonzero" d="M427.3 183h-.16l-3.32-.547c-.27-.045-.509-.203-.66-.437-.149-.234-.197-.522-.131-.794l2.724-11.456c.121-.508.601-.836 1.104-.753l3.32.547c.27.045.508.203.659.437.151.233.2.521.137.794l-2.725 11.46c-.113.443-.503.75-.947.749zm-2.123-2.39l1.387.23 2.26-9.497-1.386-.23-2.261 9.496z"/>
        <path fill="#FFF" fill-rule="nonzero" d="M431 155H434V182H431z"/>
        <path fill="#006980" fill-rule="nonzero" d="M434.086 183h-3.172c-.505 0-.914-.471-.914-1.053v-27.894c0-.582.41-1.053.914-1.053h3.172c.505 0 .914.471.914 1.053v27.894c0 .582-.41 1.053-.914 1.053zm-2.258-2.105h1.344v-25.79h-1.344v25.79z"/>
        <path fill="#FFF" fill-rule="nonzero" d="M428 257H431V275H428z"/>
        <path fill="#006980" fill-rule="nonzero" d="M431.103 276h-3.206c-.495 0-.897-.471-.897-1.053v-17.894c0-.582.402-1.053.897-1.053h3.206c.495 0 .897.471.897 1.053v17.894c0 .582-.402 1.053-.897 1.053zm-2.31-2.105h1.413v-15.79h-1.412v15.79z"/>
        <path fill="#FFF" fill-rule="nonzero" d="M423 263H426V275H423z"/>
        <path fill="#006980" fill-rule="nonzero" d="M426.108 276h-3.211c-.495 0-.897-.46-.897-1.028v-11.944c0-.568.402-1.028.897-1.028h3.206c.495 0 .897.46.897 1.028v11.944c0 .566-.399 1.025-.892 1.028zm-2.31-2.055h1.413v-9.89h-1.417l.004 9.89z"/>
        <path fill="#FFF" fill-rule="nonzero" d="M419 248H422V275H419z"/>
        <path fill="#006980" fill-rule="nonzero" d="M422.102 276h-3.204c-.496 0-.898-.471-.898-1.053v-27.894c0-.582.402-1.053.898-1.053h3.204c.496 0 .898.471.898 1.053v27.894c0 .582-.402 1.053-.898 1.053zm-2.307-2.105h1.41v-25.79h-1.41v25.79z"/>
        <path fill="#FFF" fill-rule="nonzero" d="M428 227.697L423.15 228 420 201.303 424.855 201z"/>
        <path fill="#006980" fill-rule="nonzero" d="M423.76 230c-.51.003-.938-.415-.99-.967l-2.764-28.518c-.029-.293.053-.585.227-.81.175-.224.425-.36.694-.378l4.254-.324c.531-.041.998.383 1.055.961l2.758 28.519c.029.292-.053.585-.227.81-.173.224-.421.362-.689.383l-4.254.319-.064.005zm-1.67-28.621l2.551 26.37 2.278-.174-2.55-26.369-2.278.173z"/>
        <path fill="#003D79" fill-rule="nonzero" d="M65.164 71.976c-.292.001-.563-.13-.716-.346l-5.324-7.516c-.242-.343-.12-.791.274-1.003.188-.103.417-.136.634-.091.216.044.403.164.518.33l5.324 7.535c.16.225.168.508.02.739-.147.231-.426.375-.73.376v-.024zM67.167 72c-.29.002-.56-.13-.713-.345l-5.302-7.507c-.179-.222-.201-.511-.06-.752.143-.241.426-.394.737-.396.31-.002.596.146.743.385l5.303 7.502c.16.224.167.506.02.737-.147.231-.425.375-.728.376zM70.84 72c-.155 0-.307-.037-.438-.108-.191-.102-.328-.267-.38-.457-.051-.19-.014-.391.105-.558l5.342-7.564c.256-.318.751-.408 1.13-.204.38.204.511.63.301.974l-5.342 7.569c-.154.218-.426.35-.719.348z"/>
        <path fill="#003D79" fill-rule="nonzero" d="M68.837 72c-.304 0-.584-.146-.732-.379-.147-.233-.14-.517.02-.744l5.348-7.564c.255-.318.75-.408 1.127-.204.379.204.51.63.3.974l-5.346 7.569c-.153.218-.425.35-.717.348z"/>
        <ellipse cx="68" cy="74.5" fill="#003D79" fill-rule="nonzero" rx="4" ry="4.5"/>
        <path fill="#FFF" fill-rule="nonzero" d="M68.005 71.008c2.205 0 3.992 1.787 3.992 3.992s-1.787 3.992-3.992 3.992-3.992-1.787-3.992-3.992c-.001-1.06.419-2.075 1.168-2.824.749-.75 1.765-1.17 2.824-1.168m0-1.008c-2.023-.002-3.847 1.215-4.623 3.083-.775 1.868-.349 4.02 1.08 5.45 1.43 1.432 3.581 1.86 5.45 1.087C71.782 78.846 73 77.023 73 75c-.003-2.758-2.237-4.994-4.995-5z"/>
        <text fill="#FFF" font-family="Helvetica" font-size="13.32">
            <tspan x="66" y="84">1</tspan>
        </text>
        <path fill="#003D79" fill-rule="nonzero" d="M85.164 71.999c-.292 0-.563-.13-.716-.347l-5.324-7.536c-.242-.345-.119-.796.277-1.008.395-.211.912-.103 1.155.242l5.318 7.555c.118.166.155.366.103.555-.051.19-.187.354-.377.456-.134.062-.285.09-.436.083zM87.168 72c-.291 0-.562-.13-.716-.347l-5.328-7.537c-.243-.345-.118-.796.277-1.008.396-.211.913-.103 1.156.242l5.317 7.532c.118.166.155.365.103.555-.051.19-.187.354-.378.456-.129.07-.278.107-.43.107zM91.819 72c-.296-.008-.566-.15-.71-.376-.146-.225-.145-.5.001-.726l5.355-7.584c.257-.32.753-.409 1.133-.204.38.204.513.632.302.975l-5.355 7.59c-.161.211-.436.334-.726.324z"/>
        <path fill="#003D79" fill-rule="nonzero" d="M87.845 72c-.306 0-.589-.143-.738-.377-.15-.233-.142-.518.02-.746l5.342-7.564c.256-.318.751-.408 1.13-.204.38.204.511.63.301.974l-5.343 7.569c-.151.217-.421.349-.712.348z"/>
        <ellipse cx="88" cy="74.5" fill="#003D79" fill-rule="nonzero" rx="4" ry="4.5"/>
        <path fill="#FFF" fill-rule="nonzero" d="M88 71.008c1.615 0 3.07.973 3.688 2.464.618 1.492.276 3.209-.865 4.35-1.142 1.142-2.859 1.484-4.35.866-1.492-.618-2.465-2.074-2.465-3.688 0-2.205 1.787-3.992 3.992-3.992M88 70c-2.022 0-3.845 1.218-4.62 3.087-.773 1.868-.345 4.018 1.085 5.448 1.43 1.43 3.58 1.858 5.448 1.084C91.782 78.845 93 77.022 93 75c-.003-2.76-2.24-4.996-5-4.999z"/>
        <text fill="#FFF" font-family="Helvetica" font-size="13.32">
            <tspan x="86" y="84">1</tspan>
        </text>
        <path fill="#003D79" fill-rule="nonzero" d="M104.162 73.973c-.29 0-.56-.145-.713-.382l-5.297-8.319c-.179-.245-.201-.567-.06-.834.143-.267.426-.436.737-.438.31-.002.596.162.743.427l5.303 8.34c.16.249.167.563.019.82-.148.256-.429.414-.732.413v-.027zM109.162 72c-.29 0-.56-.13-.713-.345l-5.297-7.507c-.179-.222-.201-.511-.06-.752.143-.241.426-.394.737-.396.31-.002.596.146.743.385l5.303 7.502c.16.225.167.508.019.74-.148.23-.429.374-.732.373zM111.845 72c-.306 0-.589-.143-.738-.377-.15-.233-.142-.518.02-.746l5.342-7.564c.256-.318.751-.408 1.13-.204.38.204.511.63.301.974l-5.337 7.569c-.155.216-.426.348-.718.348z"/>
        <path fill="#003D79" fill-rule="nonzero" d="M108.845 72c-.306 0-.589-.143-.738-.377-.15-.233-.142-.518.02-.746l5.342-7.564c.256-.318.751-.408 1.13-.204.38.204.511.63.301.974l-5.337 7.569c-.155.216-.426.348-.718.348z"/>
        <ellipse cx="109" cy="74.5" fill="#003D79" fill-rule="nonzero" rx="4" ry="4.5"/>
        <path fill="#FFF" fill-rule="nonzero" d="M109 71.008c2.205 0 3.992 1.787 3.992 3.992s-1.787 3.992-3.992 3.992-3.992-1.787-3.992-3.992 1.787-3.992 3.992-3.992M109 70c-2.761 0-5 2.239-5 5s2.239 5 5 5 5-2.239 5-5c-.003-2.76-2.24-4.997-5-5z"/>
        <text fill="#FFF" font-family="Helvetica" font-size="13.32">
            <tspan x="105" y="84">1</tspan>
        </text>
        <path fill="#003D79" fill-rule="nonzero" d="M131 64H46v-5h85v5zm-84.48-.443h83.96v-4.114H46.52v4.114z"/>
        <path fill="#003D79" fill-rule="nonzero" d="M130.956 66H46.044C45.467 66 45 65.498 45 64.88v-5.76c0-.618.467-1.12 1.044-1.12h84.912c.577 0 1.044.502 1.044 1.12v5.76c0 .618-.467 1.12-1.044 1.12zm-83.868-2.24h82.824v-3.52H47.088v3.52z"/>
        <path fill="#003D79" fill-rule="nonzero" d="M131 60H46V48h85v12zm-84.48-.54h83.96V48.54H46.52v10.92z"/>
        <path fill="#DCDFEC" fill-rule="nonzero" d="M46 48H130V59H46z"/>
        <path fill="#003D79" fill-rule="nonzero" d="M130.956 60H46.044C45.467 60 45 59.537 45 58.966V48.034c0-.571.467-1.034 1.044-1.034h84.912c.577 0 1.044.463 1.044 1.034v10.958c-.014.56-.477 1.008-1.044 1.008zm-83.868-2.068h82.824v-8.864H47.088v8.864z"/>
        <path fill="#FFF" fill-rule="nonzero" d="M119.42 30.102l-7.137 5.065c-.248.177-.348.512-.24.806l4.242 11.592c.096.262.335.434.601.435h1.77c.205-.004.395-.115.509-.295l3.721-5.716c.103-.156.138-.351.097-.537l-2.595-10.936c-.05-.211-.193-.384-.384-.466-.192-.082-.409-.062-.584.052z"/>
        <path fill="#006980" fill-rule="nonzero" d="M118.698 49h-1.834c-.603-.004-1.143-.388-1.363-.969l-4.397-11.813c-.253-.654-.033-1.402.528-1.8l7.399-5.157c.395-.278.895-.338 1.341-.161.446.177.78.568.894 1.048l2.69 11.145c.102.421.025.867-.211 1.226l-3.858 5.824c-.268.408-.713.653-1.189.657zm-1.75-1.642h1.687l3.789-5.72-2.643-10.915-7.166 5.003 4.334 11.632z"/>
        <path fill="#DBF6F4" fill-rule="nonzero" d="M118.891 32L112 36.43 116.056 47 116.944 47 121 42.045z"/>
        <path fill="#DBF6F4" d="M122.263 49.364c0-.753-.56-1.364-1.25-1.364h-6.07c-.688.003-1.245.612-1.248 1.364.009.751-.54 1.369-1.228 1.381h-.218c-.69 0-1.249.611-1.249 1.364v2.096c0 .439.326.795.728.795h12.544c.402 0 .728-.356.728-.795v-2.113c-.004-.363-.14-.709-.379-.961-.238-.253-.56-.392-.891-.386h-.218c-.334 0-.654-.146-.89-.405-.234-.26-.364-.611-.36-.976z"/>
        <path fill="#006987" fill-rule="nonzero" d="M124.316 56h-11.652c-.918-.003-1.661-.85-1.664-1.896v-2.03c.01-1.344.968-2.427 2.148-2.43h.222c.095 0 .173-.088.173-.197 0-1.352.961-2.447 2.148-2.447h5.638c1.186 0 2.148 1.095 2.148 2.447 0 .109.077.197.173.197h.202c1.186 0 2.148 1.095 2.148 2.447v2.03c-.004.504-.184.985-.5 1.338-.315.352-.742.547-1.184.54zm-11.356-2.25h11.03v-1.688c0-.108-.077-.196-.172-.196h-.203c-1.186 0-2.148-1.096-2.148-2.447 0-.109-.077-.197-.172-.197h-5.624c-.096 0-.173.088-.173.197.007.65-.214 1.276-.613 1.74-.4.464-.945.729-1.515.735h-.202c-.096 0-.173.088-.173.197l-.035 1.659z"/>
        <path fill="#FFF" fill-rule="nonzero" d="M120.101 54h-5.202c-.497 0-.899-.448-.899-1s.402-1 .899-1h5.202c.497 0 .899.448.899 1s-.402 1-.899 1z"/>
        <path fill="#006980" fill-rule="nonzero" d="M118.698 49h-1.834c-.603-.004-1.143-.388-1.363-.969l-4.397-11.813c-.253-.654-.033-1.402.528-1.8l7.399-5.157c.395-.278.895-.338 1.341-.161.446.177.78.568.894 1.048l2.69 11.145c.102.421.025.867-.211 1.226l-3.858 5.824c-.268.408-.713.653-1.189.657zm-1.75-1.642h1.687l3.789-5.72-2.643-10.915-7.166 5.003 4.334 11.632z"/>
        <path fill="#DBF6F4" d="M103.284 50.765c0-.422-.362-.765-.808-.765H95.53c-.447 0-.81.342-.813.765 0 .423-.362.766-.808.766h-.404c-.83 0-1.504.638-1.504 1.425v1.621c.003.234.204.423.452.423h13.096c.248 0 .45-.189.452-.423v-1.621c0-.787-.673-1.425-1.504-1.425h-.404c-.214 0-.42-.08-.571-.224-.152-.144-.237-.339-.237-.542z"/>
        <path fill="#006987" fill-rule="nonzero" d="M105.591 56H93.409c-.776 0-1.406-.731-1.409-1.636V52.51c.003-1.535 1.07-2.779 2.388-2.782h.158c.128-.995.862-1.73 1.726-1.728h6.461c.863 0 1.596.734 1.726 1.728h.153c1.318.003 2.385 1.247 2.388 2.782v1.854c-.003.905-.633 1.636-1.409 1.636zm-11.613-2.304h11.025V52.51c0-.264-.184-.478-.41-.478h-.376c-.863 0-1.596-.735-1.726-1.728H96.49c-.13.993-.863 1.728-1.725 1.728h-.376c-.109 0-.213.05-.29.14-.077.09-.12.21-.12.338v1.186z"/>
        <path fill="#FFF" fill-rule="nonzero" d="M102 49L98 49 98.444 40 101.556 40z"/>
        <path fill="#006980" fill-rule="nonzero" d="M103 50h-7l.699-11h5.637L103 50zm-5.155-1.577h3.333l-.47-7.846h-2.382l-.481 7.846z"/>
        <path fill="#FFF" fill-rule="nonzero" d="M99.28 54h-1.56c-.398 0-.72-.448-.72-1s.322-1 .72-1h1.56c.398 0 .72.448.72 1s-.322 1-.72 1z"/>
        <path fill="#DBF6F4" fill-rule="nonzero" d="M100 49L97 49 97.396 40 99.449 40z"/>
        <path fill="#FFF" fill-rule="nonzero" d="M103 36.505c-.003 2.485-1.795 4.497-4.003 4.495-2.209-.002-3.998-2.017-3.997-4.502C95 34.014 96.791 32 99 32c1.062 0 2.08.475 2.83 1.32.75.845 1.171 1.991 1.17 3.185z"/>
        <path fill="#006980" fill-rule="nonzero" d="M99.005 42c-2.023.002-3.848-1.215-4.623-3.084-.775-1.869-.348-4.02 1.083-5.451 1.43-1.431 3.582-1.858 5.45-1.083 1.87.775 3.087 2.6 3.085 4.623-.003 2.758-2.237 4.992-4.995 4.995zm0-8.47c-1.406-.002-2.675.843-3.214 2.142-.54 1.298-.244 2.794.75 3.789.993.995 2.489 1.293 3.788.756 1.3-.538 2.147-1.806 2.147-3.212 0-1.917-1.553-3.473-3.47-3.475z"/>
        <path fill="#DBF6F4" fill-rule="nonzero" d="M102 37c0 1.618-.975 3.077-2.47 3.696-1.496.619-3.217.275-4.36-.87-1.144-1.145-1.485-2.866-.864-4.36.621-1.495 2.082-2.468 3.7-2.466 1.06 0 2.077.422 2.826 1.172.75.75 1.17 1.768 1.168 2.828z"/>
        <path fill="#006980" fill-rule="nonzero" d="M103 50h-7l.699-11h5.637L103 50zm-5.155-1.577h3.333l-.47-7.846h-2.382l-.481 7.846z"/>
        <path fill="#006980" fill-rule="nonzero" d="M99.005 42c-2.023.002-3.848-1.215-4.623-3.084-.775-1.869-.348-4.02 1.083-5.451 1.43-1.431 3.582-1.858 5.45-1.083 1.87.775 3.087 2.6 3.085 4.623-.003 2.758-2.237 4.992-4.995 4.995zm0-8.47c-1.406-.002-2.675.843-3.214 2.142-.54 1.298-.244 2.794.75 3.789.993.995 2.489 1.293 3.788.756 1.3-.538 2.147-1.806 2.147-3.212 0-1.917-1.553-3.473-3.47-3.475z"/>
        <rect width="30" height="24" x="54" y="29" fill="#DBF6F4" fill-rule="nonzero" rx="3.49"/>
        <path fill="#006987" fill-rule="nonzero" d="M82.158 54H56.852C55.277 54 54 52.721 54 51.144V30.856C54 29.279 55.277 28 56.852 28h25.306c1.567.006 2.836 1.276 2.842 2.846v20.288c.003.757-.295 1.485-.828 2.022-.533.538-1.257.841-2.014.844zM56.852 30.07c-.205 0-.402.082-.547.227-.145.146-.227.343-.227.549v20.288c0 .428.347.775.774.775h25.306c.42-.006.758-.345.764-.765V30.856c0-.206-.082-.403-.227-.548-.145-.146-.342-.227-.547-.227l-25.296-.01z"/>
        <rect width="30" height="24" x="54" y="31" fill="#FFF" fill-rule="nonzero" rx="3.49"/>
        <path fill="#006980" fill-rule="nonzero" d="M82.36 56H56.64C55.182 56 54 54.812 54 53.347V32.653C54 31.188 55.182 30 56.64 30h25.72c1.458 0 2.64 1.188 2.64 2.653v20.694C85 54.812 83.818 56 82.36 56zM56.64 31.592c-.583 0-1.056.475-1.056 1.061v20.694c0 .586.473 1.061 1.056 1.061h25.72c.583 0 1.056-.475 1.056-1.061V32.653c0-.586-.473-1.061-1.056-1.061H56.64z"/>
        <path fill="#FFF" fill-rule="nonzero" d="M66 48.5L73 48.5"/>
        <path fill="#006980" fill-rule="nonzero" d="M73.226 49h-6.452c-.427 0-.774-.448-.774-1s.347-1 .774-1h6.452c.427 0 .774.448.774 1s-.347 1-.774 1z"/>
        <path fill="#FFF" fill-rule="nonzero" d="M64 52.5L76 52.5"/>
        <path fill="#006980" fill-rule="nonzero" d="M76.215 53h-12.43c-.434 0-.785-.448-.785-1s.351-1 .785-1h12.43c.434 0 .785.448.785 1s-.351 1-.785 1zM73 46.357L71.773 46.095 71.08 47 70 44.643 71.924 44zM66 46.357L67.231 46.095 67.92 47 69 44.643 67.08 44zM69.03 43.425l-.179.296c-.13.217-.388.318-.629.246-.24-.072-.403-.299-.395-.552v-.346c0-.19-.097-.368-.258-.47-.16-.102-.361-.113-.532-.03l-.308.15c-.22.098-.479.042-.638-.141-.16-.182-.183-.448-.058-.656l.189-.29c.107-.16.123-.365.044-.54-.079-.176-.242-.298-.432-.323l-.343-.04c-.25-.028-.45-.223-.486-.475-.035-.252.104-.495.337-.592l.313-.135c.176-.079.299-.242.326-.434.028-.191-.045-.384-.192-.508l-.263-.22c-.192-.161-.254-.432-.15-.66.103-.229.346-.36.592-.318l.338.055c.196.038.398-.033.527-.187s.165-.366.095-.555l-.105-.33c-.078-.241.015-.505.227-.642.212-.137.489-.112.673.06l.254.231c.142.13.341.177.526.123.185-.054.328-.201.378-.389l.09-.335c.062-.246.282-.418.534-.418.252 0 .472.172.534.418l.09.335c.05.188.193.335.378.39.185.053.384.007.526-.124l.254-.23c.184-.173.461-.198.673-.061.212.137.305.4.227.642l-.105.33c-.055.183-.013.382.111.526.124.145.313.215.5.186l.339-.055c.246-.041.489.089.592.318.104.228.042.499-.15.66l-.263.22c-.147.124-.22.317-.192.508.027.192.15.355.326.434l.313.135c.233.097.372.34.337.592-.036.252-.236.447-.486.475l-.338.04c-.19.023-.356.145-.436.32-.08.176-.064.381.043.542l.189.29c.138.209.122.485-.04.674-.163.19-.432.247-.656.139l-.308-.15c-.171-.086-.374-.075-.536.027-.162.102-.26.28-.26.473v.371c.009.253-.153.48-.394.552-.241.072-.5-.03-.63-.246l-.178-.296c-.098-.165-.274-.268-.465-.27-.19-.002-.369.097-.47.26z"/>
        <path fill="#FFF" fill-rule="nonzero" d="M70.023 34.506c.253-.005.476.165.537.41l.09.336c.068.243.29.41.543.41.138 0 .271-.051.372-.145l.256-.23c.1-.096.233-.15.372-.15.18 0 .35.084.456.229.106.145.136.331.082.502l-.106.33c-.053.164-.027.344.072.485.098.142.258.23.43.236h.096l.342-.055c.033-.005.067-.005.1 0 .243-.006.462.146.541.375.08.229 0 .482-.194.627l-.266.22c-.148.125-.222.317-.194.508.027.192.152.355.33.434l.316.135c.236.096.376.34.34.591-.035.252-.237.447-.49.475l-.342.04c-.193.023-.36.145-.44.32-.082.176-.065.381.043.542l.19.29c.114.17.126.39.03.57-.095.182-.281.297-.487.301-.085 0-.17-.021-.246-.06l-.311-.15c-.077-.037-.161-.056-.247-.055-.15 0-.293.06-.398.166-.104.107-.162.25-.16.4v.325c.01.253-.155.48-.398.552-.244.072-.505-.03-.636-.246l-.181-.296c-.102-.164-.281-.264-.475-.264-.194 0-.373.1-.475.264l-.18.296c-.1.166-.28.267-.473.265-.147-.005-.285-.068-.385-.175-.1-.107-.153-.25-.148-.396v-.345c.003-.15-.055-.293-.16-.4-.104-.106-.248-.166-.397-.166-.084-.002-.167.017-.242.055l-.311.15c-.078.038-.164.059-.251.06-.2-.009-.38-.123-.473-.299-.093-.176-.085-.388.02-.557l.191-.29c.108-.16.125-.364.045-.54-.08-.175-.245-.297-.436-.322l-.347-.04c-.254-.028-.456-.223-.491-.475-.036-.251.104-.495.34-.591l.317-.135c.177-.079.302-.242.33-.434.027-.191-.047-.383-.195-.508l-.266-.22c-.195-.145-.273-.398-.194-.627.08-.23.298-.38.54-.375.034-.005.068-.005.101 0l.342.055h.095c.173-.007.333-.094.431-.236.099-.141.125-.32.072-.485l-.106-.33c-.054-.171-.024-.357.083-.502.106-.145.275-.23.455-.23.139 0 .272.054.372.15l.256.231c.101.094.234.145.372.145.253 0 .475-.167.542-.41l.09-.336c.064-.246.289-.416.543-.41m0-.501c-.473.005-.884.325-1.004.781l-.09.33c-.008.028-.033.047-.061.046h-.035l-.257-.23c-.192-.18-.445-.28-.708-.281-.342.002-.662.166-.864.44-.2.271-.257.622-.151.942l.106.33c.009.016.009.035 0 .05-.013.005-.028.005-.04 0l-.357-.054c-.06-.005-.121-.005-.181 0-.447.002-.845.283-.994.702-.15.42-.02.888.325 1.17l.267.22c.009.016.009.035 0 .05-.003.021-.016.038-.035.046l-.317.135c-.418.202-.657.65-.59 1.108.067.458.423.82.881.895l.342.04c.021.001.04.015.045.035.011.017.011.038 0 .055l-.19.286c-.222.32-.245.738-.06 1.081.181.348.54.567.934.571.162-.002.321-.04.467-.11l.311-.15h.026c.013-.005.027-.005.04 0 .005.012.005.027 0 .04v.39c-.014.285.093.561.296.762.203.204.48.32.769.32.367 0 .707-.19.9-.5l.18-.296c.016-.008.035-.008.05 0 .015-.007.031-.007.046 0l.18.295c.193.312.533.501.9.501.29.001.566-.115.769-.32.203-.2.31-.477.296-.762v-.345c-.004-.013-.004-.027 0-.04.013-.005.027-.005.04 0h.026l.311.15c.146.07.305.108.467.11.394-.004.753-.223.935-.57.187-.344.163-.762-.06-1.082l-.191-.286c-.011-.016-.011-.038 0-.055.006-.02.024-.034.045-.035l.342-.04c.458-.075.814-.437.88-.895.068-.458-.171-.906-.589-1.108l-.317-.135c-.019-.007-.032-.025-.035-.045-.009-.016-.009-.035 0-.05l.267-.22c.345-.283.475-.751.325-1.17-.15-.42-.547-.701-.994-.703-.06-.005-.12-.005-.18 0l-.342.055c-.016.006-.034.006-.05 0-.01-.016-.01-.035 0-.05l.105-.33c.106-.32.05-.672-.15-.942-.203-.275-.523-.439-.865-.441-.263.001-.516.101-.708.28l-.257.23c-.011.005-.023.005-.035 0-.027 0-.052-.018-.06-.044l-.09-.33c-.12-.457-.532-.777-1.005-.782l-.01-.045z"/>
        <circle cx="69" cy="39" r="2" fill="#FFF" fill-rule="nonzero"/>
    </g>
</svg>
