<svg xmlns="http://www.w3.org/2000/svg" width="60" height="112" viewBox="0 0 60 112">
    <g fill="none">
        <rect width="59.75" height="59.75" y="51.37" fill="#006987" rx="11.49"/>
        <path fill="#006987" d="M17.37 49c-1.105 0-2-.895-2-2v-5c0-1.105.895-2 2-2s2 .895 2 2v5c0 1.105-.895 2-2 2zm0-10c-1.105 0-2-.895-2-2v-5c0-1.105.895-2 2-2s2 .895 2 2v5c0 1.105-.895 2-2 2zm0-10c-1.105 0-2-.895-2-2v-5c0-1.105.895-2 2-2s2 .895 2 2v5c0 1.105-.895 2-2 2zm0-10c-1.105 0-2-.895-2-2v-5c0-1.105.895-2 2-2s2 .895 2 2v5c0 1.105-.895 2-2 2zm0-10c-1.105 0-2-.895-2-2V2c0-1.105.895-2 2-2s2 .895 2 2v5c0 1.105-.895 2-2 2zM42.38 49c-1.105 0-2-.895-2-2v-5c0-1.105.895-2 2-2s2 .895 2 2v5c0 1.105-.895 2-2 2zm0-10c-1.105 0-2-.895-2-2v-5c0-1.105.895-2 2-2s2 .895 2 2v5c0 1.105-.895 2-2 2zm0-10c-1.105 0-2-.895-2-2v-5c0-1.105.895-2 2-2s2 .895 2 2v5c0 1.105-.895 2-2 2zm0-10c-1.105 0-2-.895-2-2v-5c0-1.105.895-2 2-2s2 .895 2 2v5c0 1.105-.895 2-2 2zm0-10c-1.105 0-2-.895-2-2V2c0-1.105.895-2 2-2s2 .895 2 2v5c0 1.105-.895 2-2 2z"/>
        <path fill="#FFF" d="M18.28 102.3h-6.24c-.55 0-1.076-.225-1.455-.624-.378-.4-.575-.937-.545-1.486l1-24.17c.032-1.081.918-1.94 2-1.94h4.24c1.082 0 1.968.859 2 1.94l1 24.17c.03.55-.167 1.087-.545 1.486-.379.4-.905.625-1.455.624z"/>
        <circle cx="15.17" cy="67.89" r="4.86" fill="#FFF"/>
        <path fill="#FFF" d="M23.99 83.49v17.61c0 .663.537 1.2 1.2 1.2h6.16c.317 0 .622-.127.845-.352.223-.225.348-.53.345-.848v-13c0-.318.126-.623.351-.849.226-.225.53-.351.849-.351h4.63c.317 0 .622.127.845.352.223.225.348.53.345.848v13c0 .663.537 1.2 1.2 1.2h7.52c.317 0 .622-.127.845-.352.223-.225.348-.53.345-.848V83.49c0-4.092-3.318-7.41-7.41-7.41H31.41c-4.094 0-7.414 3.316-7.42 7.41z"/>
    </g>
</svg>
