<svg xmlns="http://www.w3.org/2000/svg" width="60" height="112" viewBox="0 0 60 112">
    <g fill="none">
        <rect width="60" height="60" y="51.58" fill="#003D79" rx="11.53"/>
        <path fill="#FFF" d="M46.24 60.27h-5.08c-10.4 0-18.83 8.43-18.83 18.83v32.48h16.78V85.9c0-1.47.586-2.878 1.627-3.914 1.042-1.036 2.454-1.614 3.923-1.606h1.58c2.14 0 6.93-1.54 6.93-10s-5.35-10.11-6.93-10.11z"/>
        <ellipse cx="46.24" cy="70.5" fill="#003D79" rx="4.39" ry="6.96"/>
        <rect width="27.09" height="16.6" x="17.44" y="91.08" fill="#FFF" rx="2.35"/>
        <path fill="#006987" d="M17.44 49c-1.105 0-2-.895-2-2v-5c0-1.105.895-2 2-2s2 .895 2 2v5c0 1.105-.895 2-2 2zm0-10c-1.105 0-2-.895-2-2v-5c0-1.105.895-2 2-2s2 .895 2 2v5c0 1.105-.895 2-2 2zm0-10c-1.105 0-2-.895-2-2v-5c0-1.105.895-2 2-2s2 .895 2 2v5c0 1.105-.895 2-2 2zm0-10c-1.105 0-2-.895-2-2v-5c0-1.105.895-2 2-2s2 .895 2 2v5c0 1.105-.895 2-2 2zm0-10c-1.105 0-2-.895-2-2V2c0-1.105.895-2 2-2s2 .895 2 2v5c0 1.105-.895 2-2 2zM42.56 49c-1.105 0-2-.895-2-2v-5c0-1.105.895-2 2-2s2 .895 2 2v5c0 1.105-.895 2-2 2zm0-10c-1.105 0-2-.895-2-2v-5c0-1.105.895-2 2-2s2 .895 2 2v5c0 1.105-.895 2-2 2zm0-10c-1.105 0-2-.895-2-2v-5c0-1.105.895-2 2-2s2 .895 2 2v5c0 1.105-.895 2-2 2zm0-10c-1.105 0-2-.895-2-2v-5c0-1.105.895-2 2-2s2 .895 2 2v5c0 1.105-.895 2-2 2zm0-10c-1.105 0-2-.895-2-2V2c0-1.105.895-2 2-2s2 .895 2 2v5c0 1.105-.895 2-2 2z"/>
    </g>
</svg>
