<svg xmlns="http://www.w3.org/2000/svg" width="60" height="112" viewBox="0 0 60 112">
    <defs>
        <linearGradient id="prefix__a" x1="92.783%" x2="7.217%" y1="7.217%" y2="92.783%">
            <stop offset="0%" stop-color="#598F35"/>
            <stop offset="50%" stop-color="#008077"/>
            <stop offset="100%" stop-color="#006987"/>
        </linearGradient>
    </defs>
    <g fill="none">
        <rect width="60" height="60" y="51.68" fill="url(#prefix__a)" rx="14.78"/>
        <circle cx="16.79" cy="68.75" r="2.9" fill="#FFF"/>
        <circle cx="43.22" cy="68.75" r="2.9" fill="#FFF"/>
        <path fill="#FFF" d="M29.93 97.81c-5.347.016-10.177-3.193-12.234-8.13-2.057-4.935-.934-10.625 2.843-14.41 3.776-3.786 9.463-4.92 14.404-2.875 4.94 2.045 8.161 6.868 8.157 12.215-.011 7.274-5.896 13.172-13.17 13.2zm0-22.91c-5.363 0-9.71 4.347-9.71 9.71s4.347 9.71 9.71 9.71 9.71-4.347 9.71-9.71c-.006-5.36-4.35-9.704-9.71-9.71z"/>
        <path fill="#FFF" d="M42.54 106.22H17.47c-6.627 0-12-5.373-12-12V69.15c0-6.627 5.373-12 12-12h25.07c6.627 0 12 5.373 12 12v25.07c0 6.627-5.373 12-12 12zM17.47 60.64c-4.698.006-8.504 3.812-8.51 8.51v25.07c.006 4.696 3.814 8.5 8.51 8.5h25.07c4.696 0 8.504-3.804 8.51-8.5V69.15c-.006-4.698-3.812-8.504-8.51-8.51H17.47z"/>
        <path fill="#006987" d="M16.46 49c-1.105 0-2-.895-2-2v-5c0-1.105.895-2 2-2s2 .895 2 2v5c0 1.105-.895 2-2 2zm0-10c-1.105 0-2-.895-2-2v-5c0-1.105.895-2 2-2s2 .895 2 2v5c0 1.105-.895 2-2 2zm0-10c-1.105 0-2-.895-2-2v-5c0-1.105.895-2 2-2s2 .895 2 2v5c0 1.105-.895 2-2 2zm0-10c-1.105 0-2-.895-2-2v-5c0-1.105.895-2 2-2s2 .895 2 2v5c0 1.105-.895 2-2 2zm0-10c-1.105 0-2-.895-2-2V2c0-1.105.895-2 2-2s2 .895 2 2v5c0 1.105-.895 2-2 2zM41.57 49c-1.105 0-2-.895-2-2v-5c0-1.105.895-2 2-2s2 .895 2 2v5c0 1.105-.895 2-2 2zm0-10c-1.105 0-2-.895-2-2v-5c0-1.105.895-2 2-2s2 .895 2 2v5c0 1.105-.895 2-2 2zm0-10c-1.105 0-2-.895-2-2v-5c0-1.105.895-2 2-2s2 .895 2 2v5c0 1.105-.895 2-2 2zm0-10c-1.105 0-2-.895-2-2v-5c0-1.105.895-2 2-2s2 .895 2 2v5c0 1.105-.895 2-2 2zm0-10c-1.105 0-2-.895-2-2V2c0-1.105.895-2 2-2s2 .895 2 2v5c0 1.105-.895 2-2 2z"/>
    </g>
</svg>
