<svg xmlns="http://www.w3.org/2000/svg" xmlns:xlink="http://www.w3.org/1999/xlink" width="714" height="168" viewBox="0 0 714 168">
    <defs>
        <path id="prefix__a" d="M0 0.225L118.776 0.225 118.776 119.368 0 119.368z"/>
        <path id="prefix__c" d="M0 0.223L118.776 0.223 118.776 118.374 0 118.374z"/>
        <path id="prefix__e" d="M0 0.223L118.776 0.223 118.776 118.374 0 118.374z"/>
    </defs>
    <g fill="none" fill-rule="evenodd">
        <text fill="#225795" font-family="SFCompactDisplay-Bold, SF Compact Display" font-size="28" font-weight="bold">
            <tspan x="7" y="162">Get Lost</tspan>
        </text>
        <text fill="#225795" font-family="SFCompactDisplay-Bold, SF Compact Display" font-size="28" font-weight="bold">
            <tspan x="247" y="162">Leave the team</tspan>
        </text>
        <text fill="#225795" font-family="SFCompactDisplay-Bold, SF Compact Display" font-size="28" font-weight="bold">
            <tspan x="569" y="162">Emergency</tspan>
        </text>
        <mask id="prefix__b" fill="#fff">
            <use xlink:href="#prefix__a"/>
        </mask>
        <path fill="#21B8CE" d="M103.272 119.368H15.504C6.977 119.368 0 112.37 0 103.817v-88.04C0 7.224 6.977.225 15.504.225h87.768c8.527 0 15.504 6.999 15.504 15.552v88.04c0 8.553-6.977 15.551-15.504 15.551" mask="url(#prefix__b)"/>
        <path fill="#FFF" d="M93.767 53.804L27.868 25.17c-.772-.336-1.672-.165-2.267.43-.595.597-.767 1.496-.431 2.268l28.635 65.899c.326.752 1.067 1.233 1.88 1.233.039 0 .077 0 .117-.003.857-.049 1.593-.626 1.845-1.448l6.14-20.076c1.42-4.645 5.041-8.265 9.685-9.686l20.077-6.14c.821-.252 1.4-.988 1.448-1.846.048-.857-.442-1.654-1.23-1.997"/>
        <g transform="translate(582 1)">
            <mask id="prefix__d" fill="#fff">
                <use xlink:href="#prefix__c"/>
            </mask>
            <path fill="#21B8CE" d="M103.272 118.374H15.504C6.977 118.374 0 111.434 0 102.952V15.645C0 7.163 6.977.223 15.504.223h87.768c8.527 0 15.504 6.94 15.504 15.422v87.307c0 8.482-6.977 15.422-15.504 15.422" mask="url(#prefix__d)"/>
            <path fill="#FFF" d="M90.02 56c-1.646 0-2.98-1.37-2.98-3.059 0-8.583-3.255-16.648-9.166-22.718-1.165-1.196-1.165-3.13 0-4.326 1.166-1.196 3.049-1.196 4.215 0C89.126 33.12 93 42.725 93 52.94 93 54.629 91.665 56 90.02 56M28.98 56C27.336 56 26 54.63 26 52.941c0-10.216 3.875-19.82 10.911-27.044 1.166-1.196 3.05-1.196 4.215 0s1.165 3.13 0 4.326c-5.91 6.067-9.165 14.135-9.165 22.718 0 1.688-1.335 3.059-2.98 3.059M88.106 73.584c-4.612-3.898-7.256-9.595-7.256-15.63V49.45c0-10.732-7.973-19.617-18.3-21.106V25.05c0-1.687-1.367-3.05-3.05-3.05-1.684 0-3.05 1.363-3.05 3.05v3.294c-10.33 1.489-18.3 10.374-18.3 21.106v8.503c0 6.036-2.645 11.733-7.283 15.655C29.68 74.624 29 76.1 29 77.662 29 80.606 31.394 83 34.337 83h50.325C87.606 83 90 80.606 90 77.662c0-1.562-.68-3.038-1.894-4.078M59 95c5.422 0 9.958-3.873 11-9H48c1.042 5.127 5.577 9 11 9"/>
        </g>
        <g transform="translate(286 1)">
            <mask id="prefix__f" fill="#fff">
                <use xlink:href="#prefix__e"/>
            </mask>
            <path fill="#21B8CE" d="M103.272 118.374H15.504C6.977 118.374 0 111.434 0 102.95V15.645C0 7.163 6.977.223 15.504.223h87.768c8.527 0 15.504 6.94 15.504 15.422v87.306c0 8.482-6.977 15.423-15.504 15.423" mask="url(#prefix__f)"/>
            <path fill="#FFF" d="M39 62c-3.308 0-6 2.692-6 6 0 3.31 2.692 6 6 6s6-2.692 6-6-2.691-6-6-6"/>
            <path fill="#FFF" d="M39 76.745c-4.73 0-8.578-3.914-8.578-8.725 0-4.81 3.849-8.724 8.578-8.724 4.73 0 8.578 3.914 8.578 8.724 0 4.811-3.848 8.725-8.578 8.725M39 53c-8.271 0-15 6.844-15 15.257 0 3.442 2.374 9.113 7.054 16.856 3.422 5.662 6.893 10.44 6.927 10.488L39 97l1.02-1.399c.033-.048 3.504-4.826 6.926-10.488C51.626 77.37 54 71.7 54 68.257 54 59.844 47.271 53 39 53M80 30c-3.308 0-6 2.692-6 6 0 3.31 2.692 6 6 6s6-2.69 6-6c0-3.308-2.691-6-6-6"/>
            <path fill="#FFF" d="M80 44.745c-4.73 0-8.578-3.914-8.578-8.725 0-4.81 3.849-8.724 8.578-8.724 4.73 0 8.578 3.914 8.578 8.724 0 4.811-3.848 8.725-8.578 8.725M80 21c-8.271 0-15 6.844-15 15.257 0 3.44 2.374 9.112 7.054 16.856 3.422 5.662 6.893 10.44 6.927 10.488L80 65l1.02-1.4c.034-.047 3.504-4.825 6.926-10.487C92.626 45.369 95 39.698 95 36.257 95 27.844 88.271 21 80 21M44.95 97c-.382 0-.741-.232-.887-.611-.188-.491.056-1.043.546-1.231l20.034-7.72-10.929-4.559c-.39-.163-.627-.565-.578-.987.047-.422.368-.761.786-.832l21.287-3.6-15.454-5.329c-.41-.141-.673-.543-.638-.978.035-.433.358-.788.786-.862l18.986-3.278c.516-.086 1.008.26 1.097.778.09.519-.258 1.012-.775 1.1L63.88 71.539l15.478 5.337c.411.142.674.545.639.98-.036.434-.361.789-.79.861l-21.72 3.674 10.078 4.204c.359.15.59.503.585.893-.005.39-.247.737-.609.876l-22.25 8.573c-.112.044-.228.064-.34.064"/>
        </g>
    </g>
</svg>
