<svg id="圖層_1" data-name="圖層 1" xmlns="http://www.w3.org/2000/svg" viewBox="0 0 47.01 47.01"><defs><style>.cls-1{fill:#21548d;}.cls-2{fill:#fff;}</style></defs><title>icon</title><rect class="cls-1" width="47.01" height="47.01" rx="12" ry="12"/><path class="cls-2" d="M20.09,0V27.25a18.59,18.59,0,0,1-.44,4.69,7,7,0,0,1-1.5,3,6.8,6.8,0,0,1-5.45,2.41A9.2,9.2,0,0,1,7.9,36l2-3.5a5.06,5.06,0,0,0,2.79,1,2.57,2.57,0,0,0,2.53-1.39A11.09,11.09,0,0,0,16,27.25V0Z"/><path class="cls-2" d="M28.44,18.83v9.83c0,2.84,1.12,4.25,3.36,4.25s3.35-1.41,3.35-4.25V18.83h4v9.92a11,11,0,0,1-.51,3.55,6,6,0,0,1-1.71,2.41,7.47,7.47,0,0,1-5.09,1.74,7.46,7.46,0,0,1-5.08-1.74A6.11,6.11,0,0,1,25,32.3a9.73,9.73,0,0,1-.5-3.55V18.83Z"/></svg>