<svg xmlns="http://www.w3.org/2000/svg" width="24" height="23" viewBox="0 0 24 23">
    <path fill="#225795" d="M21.42 0H2.58C1.432 0 .5.931.5 2.08v18.84c0 1.148.931 2.08 2.08 2.08h18.84c1.148 0 2.08-.931 2.08-2.08V2.08C23.5.932 22.569 0 21.42 0zM7.616 19.86c0 .334-.27.605-.605.605H4.434c-.334 0-.605-.27-.605-.605V9.056c0-.335.271-.606.605-.606h2.578c.334 0 .605.271.605.606V19.86zM5.723 7.432c-1.352 0-2.448-1.096-2.448-2.449 0-1.352 1.096-2.448 2.448-2.448 1.352 0 2.449 1.096 2.449 2.448 0 1.353-1.097 2.449-2.449 2.449zm15.363 12.476c0 .308-.25.557-.556.557h-2.766c-.308 0-.557-.25-.557-.557v-5.067c0-.756.222-3.313-1.976-3.313-1.704 0-2.05 1.75-2.12 2.535v5.845c0 .308-.248.557-.556.557H9.88c-.307 0-.556-.25-.556-.557V9.007c0-.308.249-.557.556-.557h2.675c.308 0 .557.25.557.557v.942c.632-.948 1.571-1.68 3.571-1.68 4.429 0 4.403 4.137 4.403 6.41v5.23z"/>
</svg>
