<svg xmlns="http://www.w3.org/2000/svg" xmlns:xlink="http://www.w3.org/1999/xlink" width="338" height="122" viewBox="0 0 338 122">
    <defs>
        <path id="prefix__a" d="M0.261 0.154L119.033 0.154 119.033 88.707 0.261 88.707z"/>
        <path id="prefix__c" d="M0 0.092L70.569 0.092 70.569 10.568 0 10.568z"/>
        <path id="prefix__e" d="M0.458 0.198L71.386 0.198 71.386 86.395 0.458 86.395z"/>
    </defs>
    <g fill="none" fill-rule="evenodd">
        <path fill="#E8BC54" d="M49 70L16 70 22.887 59 49 59z"/>
        <g transform="translate(25.952)">
            <mask id="prefix__b" fill="#fff">
                <use xlink:href="#prefix__a"/>
            </mask>
            <path fill="#1B8996" d="M24.204 88.707c-1.926 0-3.838-.215-5.715-.662C8.503 85.668-1.388 75.925.493 60.153c2.558-21.426 25.849-34.716 45.423-33.596 4.355.247 5.677.84 5.677.84l-4.533 9.76-1.712-.139c-14.822-.804-32.597 9.013-34.43 24.375-1.586 13.305 8.817 16.178 10.008 16.463 5.923 1.408 14.815-1.104 20.358-9.944C46.738 59.216 64.77 14.614 70.45.154h6.202l3.891 32.47L110.605.154h8.428l-23.334 59.54h12.895l-4.446 10.476H77.753L96.7 26.756 78.802 46.908l-5.894-.157-1.833-19.995c-6.707 16.477-16.397 39.55-20.89 46.714-5.951 9.492-16.064 15.237-25.981 15.237" mask="url(#prefix__b)"/>
        </g>
        <g transform="translate(0 42.697)">
            <mask id="prefix__d" fill="#fff">
                <use xlink:href="#prefix__c"/>
            </mask>
            <path fill="#CF6B76" d="M65.445 10.568L0 10.568 6.848 0.092 70.569 0.092z" mask="url(#prefix__d)"/>
        </g>
        <path fill="#E8BC54" d="M92.239 70.17L38.339 70.17 38.339 59.694 97.363 59.694z"/>
        <path fill="#1B8996" d="M194.929 70.17L185.564 70.17 196.864 45.36 174.688 60.047 173.893 52.619 200.016 35.803 209.96 35.803z"/>
        <path fill="#1B8996" d="M220.411 70.17L204.853 70.17 215.958 45.763 195.395 60.083 194.363 52.649 219.387 35.803 229.235 35.803 217.973 61.607 224.132 61.607zM245.51 44.431c-1.09 0-2.207.253-3.29.756-2.153.997-3.902 2.837-4.925 5.177-1.024 2.342-1.186 4.872-.455 7.125.685 2.107 2.08 3.71 3.932 4.517 1.853.803 3.98.738 5.995-.198 2.151-.997 3.901-2.837 4.923-5.177 2.052-4.692.491-9.914-3.48-11.643-.852-.372-1.766-.557-2.7-.557zm-2.164 26.76c-2.066 0-4.108-.418-6.038-1.258-4.078-1.776-7.118-5.197-8.558-9.635-1.387-4.274-1.113-9.005.772-13.314 1.886-4.313 5.173-7.732 9.257-9.627 4.24-1.963 8.822-2.07 12.898-.296 8.254 3.595 11.747 13.891 7.786 22.95-1.885 4.314-5.173 7.732-9.257 9.626-2.232 1.035-4.56 1.555-6.86 1.555zM291.979 70.17h-3.554c-12.001 0-12.256-11.76-10.64-15.454 1.615-3.695 4.989-11.356 4.989-11.356l7.875 3.426s-2.477 5.396-4.243 9.605c-.884 2.11-.3 5.208 3.201 5.208l6.133.002-3.761 8.57zM320.055 70.17h-8.053c-12.503 0-17.761-9.537-14.08-18.029 3.68-8.492 7.175-16.338 7.175-16.338h9.354s-6.214 13.957-7.713 17.361c-1.498 3.404-.066 8.435 5.264 8.435h12.128l-4.075 8.571z"/>
        <path fill="#1B8996" d="M257.6 64.465h-4.294l4.295-8.571c3.472 0 4.86-2.646 4.872-2.674.487-1.222 7.492-17.39 7.502-17.416h9.3l-.486 1.284c-.008.016-.016.032-.023.05-.303.697-.717 1.93-.237 2.664.357.545 1.163.882 1.708.882h18.441l-3.739 8.57h-14.702c-2.113 0-4.218-.676-5.974-1.844-1.354 3.096-3.628 8.63-3.836 9.047-2.62 5.237-5.763 8.008-12.826 8.008"/>
        <g transform="translate(266.01 35.605)">
            <mask id="prefix__f" fill="#fff">
                <use xlink:href="#prefix__e"/>
            </mask>
            <path fill="#1B8996" d="M32.498 50.516c-8.778 0-21.217 4.595-22.487 15.254-1.07 8.97 5.891 10.893 6.687 11.083 4.013.945 10.054-.766 13.835-6.796.626-.998 2.639-4.9 9.084-19.502l-5.842-.005c-.415-.022-.842-.034-1.277-.034M16.196 86.33C6.896 85.723-.777 76.93.624 65.197 2.475 49.683 18.99 41.22 33.95 41.986h9.424c4.444-10.21 9.979-23.163 17.862-41.788h9.321S57.35 31.359 52.74 41.986h18.647l-3.64 8.57H49.002c-6.168 14.062-10 22.303-11.451 24.614-4.404 7.024-10.709 11.851-21.355 11.159" mask="url(#prefix__f)"/>
        </g>
        <path fill="#1B8996" d="M156.25 42.113c3.82-.43 6.764 2.245 5.07 5.059-1.475 2.45-10.404 2.992-16.695 2.978 2.5-4.088 7.614-7.587 11.625-8.037zm7.197 19.48c-4.923-.006-9.036-.02-10.786-.02-1.857 0-9.903.54-9.783-4.34 7.19 0 23.455.693 26.37-7.125 1.414-3.794.647-8.057-1.743-11.027-3.13-3.895-7.883-5.222-12.388-4.877-7.96.608-16.015 6.627-19.252 14.483-3.964 9.616-.28 16.163 2.658 18.665 3.579 3.05 11.158 2.802 13.69 2.802l7.562.016 3.672-8.578zM174.432 70.17L189.368 35.803 180.023 35.803 165.065 70.17z"/>
    </g>
</svg>
